<svg width="286" height="209" viewBox="0 0 286 209" fill="none" xmlns="http://www.w3.org/2000/svg">
<path d="M2.205 46V22.095H11.34C13.2067 22.095 14.77 22.3633 16.03 22.9C17.3133 23.4133 18.34 24.1717 19.11 25.175C19.88 26.1783 20.4283 27.3917 20.755 28.815C21.105 30.2383 21.28 31.86 21.28 33.68C21.28 35.5233 21.1167 37.1917 20.79 38.685C20.4867 40.1783 19.9617 41.4733 19.215 42.57C18.4683 43.6667 17.465 44.5183 16.205 45.125C14.945 45.7083 13.37 46 11.48 46H2.205ZM7.035 41.94H11.2C12.2967 41.94 13.1833 41.73 13.86 41.31C14.5367 40.89 15.05 40.3067 15.4 39.56C15.7733 38.79 16.0183 37.915 16.135 36.935C16.275 35.9317 16.345 34.8467 16.345 33.68C16.345 32.56 16.275 31.545 16.135 30.635C15.995 29.7017 15.7383 28.9083 15.365 28.255C15.015 27.5783 14.5017 27.065 13.825 26.715C13.1717 26.3417 12.2967 26.155 11.2 26.155H7.035V41.94ZM32.1803 46.385C30.197 46.385 28.5986 46.0583 27.3853 45.405C26.1953 44.7517 25.332 43.7483 24.7953 42.395C24.2586 41.0183 23.9903 39.245 23.9903 37.075C23.9903 34.975 24.2703 33.2717 24.8303 31.965C25.3903 30.635 26.277 29.655 27.4903 29.025C28.7036 28.3717 30.267 28.045 32.1803 28.045C34.117 28.045 35.6803 28.3717 36.8703 29.025C38.0836 29.655 38.9703 30.635 39.5303 31.965C40.1136 33.2717 40.4053 34.975 40.4053 37.075C40.4053 39.245 40.137 41.0183 39.6003 42.395C39.0636 43.7483 38.1886 44.7517 36.9753 45.405C35.7853 46.0583 34.187 46.385 32.1803 46.385ZM32.1803 42.535C33.1603 42.535 33.8953 42.36 34.3853 42.01C34.8753 41.6367 35.202 41.0533 35.3653 40.26C35.552 39.4433 35.6453 38.3817 35.6453 37.075C35.6453 35.7917 35.5403 34.7767 35.3303 34.03C35.1203 33.26 34.7703 32.7117 34.2803 32.385C33.7903 32.0583 33.0903 31.895 32.1803 31.895C31.2936 31.895 30.5936 32.0583 30.0803 32.385C29.5903 32.7117 29.2403 33.26 29.0303 34.03C28.8203 34.7767 28.7153 35.7917 28.7153 37.075C28.7153 38.3817 28.797 39.4433 28.9603 40.26C29.147 41.0533 29.4853 41.6367 29.9753 42.01C30.4653 42.36 31.2003 42.535 32.1803 42.535ZM56.6371 46V36.935L49.3221 22.095H54.5721L59.0521 31.685L63.6021 22.095H68.8171L61.4671 36.935V46H56.6371ZM75.3151 46.385C73.3317 46.385 71.7334 46.0583 70.5201 45.405C69.3301 44.7517 68.4667 43.7483 67.9301 42.395C67.3934 41.0183 67.1251 39.245 67.1251 37.075C67.1251 34.975 67.4051 33.2717 67.9651 31.965C68.5251 30.635 69.4117 29.655 70.6251 29.025C71.8384 28.3717 73.4017 28.045 75.3151 28.045C77.2517 28.045 78.8151 28.3717 80.0051 29.025C81.2184 29.655 82.1051 30.635 82.6651 31.965C83.2484 33.2717 83.5401 34.975 83.5401 37.075C83.5401 39.245 83.2717 41.0183 82.7351 42.395C82.1984 43.7483 81.3234 44.7517 80.1101 45.405C78.9201 46.0583 77.3217 46.385 75.3151 46.385ZM75.3151 42.535C76.2951 42.535 77.0301 42.36 77.5201 42.01C78.0101 41.6367 78.3367 41.0533 78.5001 40.26C78.6867 39.4433 78.7801 38.3817 78.7801 37.075C78.7801 35.7917 78.6751 34.7767 78.4651 34.03C78.2551 33.26 77.9051 32.7117 77.4151 32.385C76.9251 32.0583 76.2251 31.895 75.3151 31.895C74.4284 31.895 73.7284 32.0583 73.2151 32.385C72.7251 32.7117 72.3751 33.26 72.1651 34.03C71.9551 34.7767 71.8501 35.7917 71.8501 37.075C71.8501 38.3817 71.9317 39.4433 72.0951 40.26C72.2817 41.0533 72.6201 41.6367 73.1101 42.01C73.6001 42.36 74.3351 42.535 75.3151 42.535ZM92.3248 46.385C90.8081 46.385 89.6298 46.07 88.7898 45.44C87.9731 44.7867 87.3898 43.8067 87.0398 42.5C86.7131 41.1933 86.5498 39.5483 86.5498 37.565V28.43H91.2048V37.355C91.2048 38.5917 91.2631 39.5717 91.3798 40.295C91.5198 41.0183 91.7881 41.5317 92.1848 41.835C92.5815 42.1383 93.1531 42.29 93.8998 42.29C94.6231 42.29 95.2998 42.1967 95.9298 42.01C96.5598 41.8233 97.0615 41.6367 97.4348 41.45V28.43H102.09V46H97.4698V44.915C96.6765 45.3583 95.8831 45.72 95.0898 46C94.3198 46.2567 93.3981 46.385 92.3248 46.385ZM116.426 46L112.366 22.095H117.231L120.171 41.345H121.011L124.651 22.34H130.076L133.786 41.345H134.626L137.391 22.095H142.291L138.301 46H130.636L127.241 27.03H127.416L123.986 46H116.426ZM149.244 46.385C147.424 46.385 146.048 45.93 145.114 45.02C144.204 44.0867 143.749 42.6867 143.749 40.82C143.749 39.5133 143.983 38.4983 144.449 37.775C144.916 37.0283 145.604 36.4917 146.514 36.165C147.448 35.815 148.579 35.605 149.909 35.535L154.179 35.15V34.1C154.179 33.26 153.969 32.6767 153.549 32.35C153.129 32 152.511 31.825 151.694 31.825C151.041 31.825 150.283 31.8483 149.419 31.895C148.579 31.9417 147.739 32 146.899 32.07C146.083 32.14 145.371 32.21 144.764 32.28L144.624 28.99C145.231 28.85 145.954 28.71 146.794 28.57C147.658 28.4067 148.556 28.2783 149.489 28.185C150.423 28.0917 151.286 28.045 152.079 28.045C153.573 28.045 154.821 28.2317 155.824 28.605C156.828 28.9783 157.586 29.5967 158.099 30.46C158.613 31.3 158.869 32.4433 158.869 33.89V41.905C158.916 42.2317 159.091 42.4883 159.394 42.675C159.698 42.8383 160.048 42.955 160.444 43.025L160.339 46.245C159.779 46.2683 159.231 46.28 158.694 46.28C158.158 46.28 157.703 46.245 157.329 46.175C156.793 46.105 156.326 45.965 155.929 45.755C155.556 45.545 155.253 45.3233 155.019 45.09C154.646 45.2533 154.144 45.44 153.514 45.65C152.884 45.86 152.196 46.035 151.449 46.175C150.726 46.315 149.991 46.385 149.244 46.385ZM150.364 42.92C150.808 42.92 151.274 42.8733 151.764 42.78C152.254 42.6867 152.709 42.5817 153.129 42.465C153.573 42.325 153.923 42.1967 154.179 42.08V38.055L150.609 38.37C149.839 38.44 149.279 38.6733 148.929 39.07C148.603 39.4433 148.439 39.98 148.439 40.68C148.439 41.38 148.591 41.9283 148.894 42.325C149.221 42.7217 149.711 42.92 150.364 42.92ZM162.98 46V28.43H167.635V29.55C168.008 29.3167 168.463 29.095 169 28.885C169.536 28.6517 170.096 28.4533 170.68 28.29C171.286 28.1267 171.87 28.045 172.43 28.045C174.063 28.045 175.323 28.3367 176.21 28.92C177.12 29.48 177.761 30.4133 178.135 31.72C178.508 33.0033 178.695 34.73 178.695 36.9V46H174.005V37.145C174.005 35.9317 173.935 34.9633 173.795 34.24C173.655 33.4933 173.386 32.9567 172.99 32.63C172.593 32.3033 172.01 32.14 171.24 32.14C170.82 32.14 170.376 32.1867 169.91 32.28C169.466 32.35 169.035 32.455 168.615 32.595C168.218 32.735 167.891 32.875 167.635 33.015V46H162.98ZM188.417 46.42C187.134 46.42 186.095 46.2333 185.302 45.86C184.509 45.4867 183.937 44.845 183.587 43.935C183.26 43.0017 183.097 41.7067 183.097 40.05V32.315H181.032V28.43H183.097V23.775H187.752V28.43H192.232V32.315H187.752V38.825C187.752 39.735 187.787 40.4467 187.857 40.96C187.95 41.4733 188.137 41.835 188.417 42.045C188.697 42.255 189.129 42.36 189.712 42.36C189.875 42.36 190.12 42.3483 190.447 42.325C190.774 42.3017 191.1 42.2783 191.427 42.255C191.754 42.2317 192.022 42.2083 192.232 42.185L192.372 45.93C191.812 46.0233 191.135 46.1283 190.342 46.245C189.572 46.3617 188.93 46.42 188.417 46.42ZM207.357 46V26.19H200.917V22.095H218.417V26.19H212.187V46H207.357ZM226.116 46.385C224.133 46.385 222.534 46.0583 221.321 45.405C220.131 44.7517 219.268 43.7483 218.731 42.395C218.194 41.0183 217.926 39.245 217.926 37.075C217.926 34.975 218.206 33.2717 218.766 31.965C219.326 30.635 220.213 29.655 221.426 29.025C222.639 28.3717 224.203 28.045 226.116 28.045C228.053 28.045 229.616 28.3717 230.806 29.025C232.019 29.655 232.906 30.635 233.466 31.965C234.049 33.2717 234.341 34.975 234.341 37.075C234.341 39.245 234.073 41.0183 233.536 42.395C232.999 43.7483 232.124 44.7517 230.911 45.405C229.721 46.0583 228.123 46.385 226.116 46.385ZM226.116 42.535C227.096 42.535 227.831 42.36 228.321 42.01C228.811 41.6367 229.138 41.0533 229.301 40.26C229.488 39.4433 229.581 38.3817 229.581 37.075C229.581 35.7917 229.476 34.7767 229.266 34.03C229.056 33.26 228.706 32.7117 228.216 32.385C227.726 32.0583 227.026 31.895 226.116 31.895C225.229 31.895 224.529 32.0583 224.016 32.385C223.526 32.7117 223.176 33.26 222.966 34.03C222.756 34.7767 222.651 35.7917 222.651 37.075C222.651 38.3817 222.733 39.4433 222.896 40.26C223.083 41.0533 223.421 41.6367 223.911 42.01C224.401 42.36 225.136 42.535 226.116 42.535ZM2.205 112V88.095H7.035V98.07H16.31V88.095H21.14V112H16.31V102.13H7.035V112H2.205ZM29.8547 112.385C28.0347 112.385 26.6581 111.93 25.7247 111.02C24.8147 110.087 24.3597 108.687 24.3597 106.82C24.3597 105.513 24.5931 104.498 25.0597 103.775C25.5264 103.028 26.2147 102.492 27.1247 102.165C28.0581 101.815 29.1897 101.605 30.5197 101.535L34.7897 101.15V100.1C34.7897 99.26 34.5797 98.6767 34.1597 98.35C33.7397 98 33.1214 97.825 32.3047 97.825C31.6514 97.825 30.8931 97.8483 30.0297 97.895C29.1897 97.9417 28.3497 98 27.5097 98.07C26.6931 98.14 25.9814 98.21 25.3747 98.28L25.2347 94.99C25.8414 94.85 26.5647 94.71 27.4047 94.57C28.2681 94.4067 29.1664 94.2783 30.0997 94.185C31.0331 94.0917 31.8964 94.045 32.6897 94.045C34.1831 94.045 35.4314 94.2317 36.4347 94.605C37.4381 94.9783 38.1964 95.5967 38.7097 96.46C39.2231 97.3 39.4797 98.4433 39.4797 99.89V107.905C39.5264 108.232 39.7014 108.488 40.0047 108.675C40.3081 108.838 40.6581 108.955 41.0547 109.025L40.9497 112.245C40.3897 112.268 39.8414 112.28 39.3047 112.28C38.7681 112.28 38.3131 112.245 37.9397 112.175C37.4031 112.105 36.9364 111.965 36.5397 111.755C36.1664 111.545 35.8631 111.323 35.6297 111.09C35.2564 111.253 34.7547 111.44 34.1247 111.65C33.4947 111.86 32.8064 112.035 32.0597 112.175C31.3364 112.315 30.6014 112.385 29.8547 112.385ZM30.9747 108.92C31.4181 108.92 31.8847 108.873 32.3747 108.78C32.8647 108.687 33.3197 108.582 33.7397 108.465C34.1831 108.325 34.5331 108.197 34.7897 108.08V104.055L31.2197 104.37C30.4497 104.44 29.8897 104.673 29.5397 105.07C29.2131 105.443 29.0497 105.98 29.0497 106.68C29.0497 107.38 29.2014 107.928 29.5047 108.325C29.8314 108.722 30.3214 108.92 30.9747 108.92ZM45.9449 112L41.7799 94.43H46.7849L49.7249 108.045H50.7399L53.7499 94.43H58.4749L54.3099 112H45.9449ZM67.7507 112.385C65.814 112.385 64.274 112.058 63.1307 111.405C62.0107 110.752 61.2057 109.76 60.7157 108.43C60.2257 107.1 59.9807 105.432 59.9807 103.425C59.9807 101.255 60.284 99.4817 60.8907 98.105C61.5207 96.7283 62.4307 95.7133 63.6207 95.06C64.8107 94.3833 66.2807 94.045 68.0307 94.045C70.6207 94.045 72.569 94.6983 73.8757 96.005C75.2057 97.3117 75.8707 99.3767 75.8707 102.2L75.6607 104.79H64.6707C64.694 106.097 64.9624 107.077 65.4757 107.73C65.989 108.383 66.8757 108.71 68.1357 108.71C68.859 108.71 69.6524 108.698 70.5157 108.675C71.379 108.628 72.2307 108.582 73.0707 108.535C73.934 108.488 74.669 108.442 75.2757 108.395L75.3807 111.65C74.7974 111.743 74.0624 111.848 73.1757 111.965C72.289 112.082 71.3674 112.175 70.4107 112.245C69.4774 112.338 68.5907 112.385 67.7507 112.385ZM64.6707 101.815H71.2157C71.2157 100.228 70.959 99.12 70.4457 98.49C69.9557 97.86 69.1507 97.545 68.0307 97.545C66.934 97.545 66.094 97.8717 65.5107 98.525C64.9507 99.1783 64.6707 100.275 64.6707 101.815ZM94.6031 112.385C93.7164 112.385 92.7481 112.327 91.6981 112.21C90.6481 112.117 89.6214 112 88.6181 111.86C87.6381 111.697 86.7981 111.557 86.0981 111.44L86.4131 107.625C87.1364 107.718 87.9764 107.823 88.9331 107.94C89.8898 108.033 90.8348 108.115 91.7681 108.185C92.7248 108.255 93.5531 108.29 94.2531 108.29C95.5831 108.29 96.5514 108.033 97.1581 107.52C97.7648 106.983 98.0681 106.155 98.0681 105.035C98.0681 104.428 97.9398 103.95 97.6831 103.6C97.4498 103.227 97.0181 102.935 96.3881 102.725C95.7581 102.492 94.8831 102.27 93.7631 102.06C91.8964 101.71 90.3798 101.278 89.2131 100.765C88.0698 100.252 87.2298 99.5283 86.6931 98.595C86.1798 97.6617 85.9231 96.4133 85.9231 94.85C85.9231 93.03 86.2614 91.6067 86.9381 90.58C87.6148 89.53 88.5831 88.7833 89.8431 88.34C91.1031 87.8967 92.5848 87.675 94.2881 87.675C95.0581 87.675 95.9331 87.7217 96.9131 87.815C97.9164 87.885 98.8964 87.9783 99.8531 88.095C100.833 88.2117 101.661 88.34 102.338 88.48L102.128 92.33C101.428 92.2367 100.611 92.155 99.6781 92.085C98.7681 91.9917 97.8581 91.91 96.9481 91.84C96.0614 91.77 95.3031 91.735 94.6731 91.735C93.3431 91.735 92.3631 91.945 91.7331 92.365C91.1031 92.785 90.7881 93.4617 90.7881 94.395C90.7881 95.095 90.9281 95.6317 91.2081 96.005C91.4881 96.3783 91.9548 96.6817 92.6081 96.915C93.2848 97.1483 94.2064 97.3933 95.3731 97.65C96.7498 97.9533 97.9164 98.28 98.8731 98.63C99.8531 98.98 100.635 99.4 101.218 99.89C101.825 100.38 102.268 101.01 102.548 101.78C102.828 102.55 102.968 103.518 102.968 104.685C102.968 106.552 102.63 108.057 101.953 109.2C101.3 110.32 100.343 111.137 99.0831 111.65C97.8464 112.14 96.3531 112.385 94.6031 112.385ZM106.036 119.385V94.43H110.656L110.691 95.55C111.018 95.34 111.426 95.1183 111.916 94.885C112.43 94.6517 112.978 94.4533 113.561 94.29C114.145 94.1267 114.716 94.045 115.276 94.045C117.633 94.045 119.325 94.8033 120.351 96.32C121.378 97.8133 121.891 100.088 121.891 103.145C121.891 105.338 121.635 107.112 121.121 108.465C120.608 109.818 119.78 110.81 118.636 111.44C117.516 112.07 116.035 112.385 114.191 112.385C113.608 112.385 112.978 112.338 112.301 112.245C111.625 112.152 111.088 112.058 110.691 111.965V119.385H106.036ZM113.456 108.5C114.39 108.5 115.125 108.302 115.661 107.905C116.198 107.508 116.571 106.913 116.781 106.12C117.015 105.303 117.131 104.277 117.131 103.04C117.131 101.127 116.863 99.8083 116.326 99.085C115.813 98.3383 115.066 97.965 114.086 97.965C113.713 97.965 113.316 98.0117 112.896 98.105C112.476 98.1983 112.068 98.315 111.671 98.455C111.275 98.595 110.948 98.735 110.691 98.875V108.255C110.971 108.278 111.368 108.325 111.881 108.395C112.418 108.465 112.943 108.5 113.456 108.5ZM132.179 112.385C130.243 112.385 128.703 112.058 127.559 111.405C126.439 110.752 125.634 109.76 125.144 108.43C124.654 107.1 124.409 105.432 124.409 103.425C124.409 101.255 124.713 99.4817 125.319 98.105C125.949 96.7283 126.859 95.7133 128.049 95.06C129.239 94.3833 130.709 94.045 132.459 94.045C135.049 94.045 136.998 94.6983 138.304 96.005C139.634 97.3117 140.299 99.3767 140.299 102.2L140.089 104.79H129.099C129.123 106.097 129.391 107.077 129.904 107.73C130.418 108.383 131.304 108.71 132.564 108.71C133.288 108.71 134.081 108.698 134.944 108.675C135.808 108.628 136.659 108.582 137.499 108.535C138.363 108.488 139.098 108.442 139.704 108.395L139.809 111.65C139.226 111.743 138.491 111.848 137.604 111.965C136.718 112.082 135.796 112.175 134.839 112.245C133.906 112.338 133.019 112.385 132.179 112.385ZM129.099 101.815H135.644C135.644 100.228 135.388 99.12 134.874 98.49C134.384 97.86 133.579 97.545 132.459 97.545C131.363 97.545 130.523 97.8717 129.939 98.525C129.379 99.1783 129.099 100.275 129.099 101.815ZM150.57 112.385C148.563 112.385 146.988 112.082 145.845 111.475C144.725 110.845 143.931 109.842 143.465 108.465C143.021 107.088 142.8 105.28 142.8 103.04C142.8 100.823 143.056 99.0617 143.57 97.755C144.083 96.425 144.911 95.48 146.055 94.92C147.221 94.3367 148.738 94.045 150.605 94.045C151.095 94.045 151.666 94.08 152.32 94.15C152.973 94.22 153.626 94.3133 154.28 94.43C154.956 94.5233 155.528 94.6167 155.995 94.71L155.82 98.455C155.376 98.4083 154.875 98.3733 154.315 98.35C153.755 98.3033 153.206 98.2683 152.67 98.245C152.156 98.1983 151.736 98.175 151.41 98.175C150.406 98.175 149.613 98.3383 149.03 98.665C148.47 98.9683 148.073 99.4817 147.84 100.205C147.63 100.905 147.525 101.85 147.525 103.04C147.525 104.323 147.63 105.35 147.84 106.12C148.05 106.89 148.423 107.438 148.96 107.765C149.52 108.092 150.336 108.255 151.41 108.255C151.736 108.255 152.168 108.243 152.705 108.22C153.241 108.173 153.79 108.127 154.35 108.08C154.933 108.033 155.446 107.998 155.89 107.975L156.03 111.72C155.563 111.813 155.003 111.907 154.35 112C153.696 112.117 153.031 112.21 152.355 112.28C151.701 112.35 151.106 112.385 150.57 112.385ZM159.049 112V94.43H163.704V112H159.049ZM159.049 91.63V87.64H163.739V91.63H159.049ZM172.179 112.385C170.359 112.385 168.982 111.93 168.049 111.02C167.139 110.087 166.684 108.687 166.684 106.82C166.684 105.513 166.917 104.498 167.384 103.775C167.851 103.028 168.539 102.492 169.449 102.165C170.382 101.815 171.514 101.605 172.844 101.535L177.114 101.15V100.1C177.114 99.26 176.904 98.6767 176.484 98.35C176.064 98 175.446 97.825 174.629 97.825C173.976 97.825 173.217 97.8483 172.354 97.895C171.514 97.9417 170.674 98 169.834 98.07C169.017 98.14 168.306 98.21 167.699 98.28L167.559 94.99C168.166 94.85 168.889 94.71 169.729 94.57C170.592 94.4067 171.491 94.2783 172.424 94.185C173.357 94.0917 174.221 94.045 175.014 94.045C176.507 94.045 177.756 94.2317 178.759 94.605C179.762 94.9783 180.521 95.5967 181.034 96.46C181.547 97.3 181.804 98.4433 181.804 99.89V107.905C181.851 108.232 182.026 108.488 182.329 108.675C182.632 108.838 182.982 108.955 183.379 109.025L183.274 112.245C182.714 112.268 182.166 112.28 181.629 112.28C181.092 112.28 180.637 112.245 180.264 112.175C179.727 112.105 179.261 111.965 178.864 111.755C178.491 111.545 178.187 111.323 177.954 111.09C177.581 111.253 177.079 111.44 176.449 111.65C175.819 111.86 175.131 112.035 174.384 112.175C173.661 112.315 172.926 112.385 172.179 112.385ZM173.299 108.92C173.742 108.92 174.209 108.873 174.699 108.78C175.189 108.687 175.644 108.582 176.064 108.465C176.507 108.325 176.857 108.197 177.114 108.08V104.055L173.544 104.37C172.774 104.44 172.214 104.673 171.864 105.07C171.537 105.443 171.374 105.98 171.374 106.68C171.374 107.38 171.526 107.928 171.829 108.325C172.156 108.722 172.646 108.92 173.299 108.92ZM186.054 112V87.255H190.709V112H186.054ZM202.601 112V88.095H207.431V98.07H216.706V88.095H221.536V112H216.706V102.13H207.431V112H202.601ZM232.599 112.385C230.663 112.385 229.123 112.058 227.979 111.405C226.859 110.752 226.054 109.76 225.564 108.43C225.074 107.1 224.829 105.432 224.829 103.425C224.829 101.255 225.133 99.4817 225.739 98.105C226.369 96.7283 227.279 95.7133 228.469 95.06C229.659 94.3833 231.129 94.045 232.879 94.045C235.469 94.045 237.418 94.6983 238.724 96.005C240.054 97.3117 240.719 99.3767 240.719 102.2L240.509 104.79H229.519C229.543 106.097 229.811 107.077 230.324 107.73C230.838 108.383 231.724 108.71 232.984 108.71C233.708 108.71 234.501 108.698 235.364 108.675C236.228 108.628 237.079 108.582 237.919 108.535C238.783 108.488 239.518 108.442 240.124 108.395L240.229 111.65C239.646 111.743 238.911 111.848 238.024 111.965C237.138 112.082 236.216 112.175 235.259 112.245C234.326 112.338 233.439 112.385 232.599 112.385ZM229.519 101.815H236.064C236.064 100.228 235.808 99.12 235.294 98.49C234.804 97.86 233.999 97.545 232.879 97.545C231.783 97.545 230.943 97.8717 230.359 98.525C229.799 99.1783 229.519 100.275 229.519 101.815ZM243.955 112V87.255H248.61V112H243.955ZM252.599 119.385V94.43H257.219L257.254 95.55C257.58 95.34 257.989 95.1183 258.479 94.885C258.992 94.6517 259.54 94.4533 260.124 94.29C260.707 94.1267 261.279 94.045 261.839 94.045C264.195 94.045 265.887 94.8033 266.914 96.32C267.94 97.8133 268.454 100.088 268.454 103.145C268.454 105.338 268.197 107.112 267.684 108.465C267.17 109.818 266.342 110.81 265.199 111.44C264.079 112.07 262.597 112.385 260.754 112.385C260.17 112.385 259.54 112.338 258.864 112.245C258.187 112.152 257.65 112.058 257.254 111.965V119.385H252.599ZM260.019 108.5C260.952 108.5 261.687 108.302 262.224 107.905C262.76 107.508 263.134 106.913 263.344 106.12C263.577 105.303 263.694 104.277 263.694 103.04C263.694 101.127 263.425 99.8083 262.889 99.085C262.375 98.3383 261.629 97.965 260.649 97.965C260.275 97.965 259.879 98.0117 259.459 98.105C259.039 98.1983 258.63 98.315 258.234 98.455C257.837 98.595 257.51 98.735 257.254 98.875V108.255C257.534 108.278 257.93 108.325 258.444 108.395C258.98 108.465 259.505 108.5 260.019 108.5ZM274.135 104.72C274.018 104.487 273.89 104.16 273.75 103.74C273.61 103.297 273.54 102.83 273.54 102.34C273.54 101.78 273.657 101.267 273.89 100.8C274.123 100.333 274.473 99.8667 274.94 99.4C275.407 98.91 275.99 98.385 276.69 97.825C277.413 97.2417 277.962 96.7633 278.335 96.39C278.708 95.9933 278.953 95.62 279.07 95.27C279.21 94.8967 279.28 94.4417 279.28 93.905C279.28 92.995 278.988 92.3417 278.405 91.945C277.845 91.5483 276.923 91.35 275.64 91.35C275.127 91.35 274.543 91.385 273.89 91.455C273.26 91.525 272.63 91.6183 272 91.735C271.393 91.8517 270.857 91.9567 270.39 92.05L270.18 88.585C270.717 88.4217 271.358 88.2467 272.105 88.06C272.852 87.8733 273.633 87.7217 274.45 87.605C275.267 87.4883 276.013 87.43 276.69 87.43C279.187 87.43 281.03 87.9083 282.22 88.865C283.433 89.7983 284.04 91.3967 284.04 93.66C284.04 94.7567 283.947 95.6433 283.76 96.32C283.597 96.9967 283.282 97.6033 282.815 98.14C282.348 98.6767 281.695 99.2833 280.855 99.96C279.805 100.8 279.047 101.488 278.58 102.025C278.137 102.562 277.903 103.122 277.88 103.705V104.72H274.135ZM273.575 111.965V107.1H278.44V111.965H273.575Z" fill="white"/>
<rect x="7.51961" y="158.677" width="164.275" height="49.7451" stroke="#4E4E4E" stroke-width="1.15686"/>
<rect width="165.431" height="50.902" transform="translate(0 150)" fill="white"/>
<path d="M36.2499 182.136C35.238 182.136 34.4051 181.994 33.7511 181.71C33.097 181.426 32.5788 181.007 32.1962 180.452C31.826 179.884 31.5607 179.193 31.4003 178.379C31.2522 177.564 31.1782 176.639 31.1782 175.602C31.1782 174.516 31.2584 173.566 31.4188 172.752C31.5792 171.925 31.8507 171.234 32.2333 170.678C32.6281 170.123 33.1464 169.704 33.7881 169.42C34.4297 169.136 35.238 168.994 36.2129 168.994C36.6941 168.994 37.2 169.019 37.7307 169.068C38.2613 169.117 38.7672 169.185 39.2485 169.272C39.7297 169.358 40.1369 169.438 40.4701 169.512L40.4146 170.938C40.0937 170.876 39.6927 170.82 39.2114 170.771C38.7425 170.722 38.2613 170.678 37.7677 170.641C37.2741 170.592 36.8237 170.567 36.4165 170.567C35.7131 170.567 35.1393 170.666 34.6951 170.864C34.2508 171.061 33.9053 171.369 33.6585 171.789C33.4117 172.196 33.239 172.715 33.1402 173.344C33.0539 173.973 33.0107 174.726 33.0107 175.602C33.0107 176.725 33.097 177.657 33.2698 178.397C33.4426 179.137 33.7696 179.687 34.2508 180.044C34.7321 180.402 35.4354 180.581 36.3609 180.581C36.6201 180.581 36.8977 180.575 37.1939 180.563C37.49 180.538 37.7739 180.507 38.0453 180.47C38.3291 180.433 38.5636 180.402 38.7487 180.378V176.805H36.8422V175.324H40.4701V181.673C40.248 181.71 39.958 181.76 39.6002 181.821C39.2423 181.871 38.8659 181.92 38.4711 181.969C38.0762 182.019 37.6813 182.056 37.2864 182.08C36.8916 182.118 36.546 182.136 36.2499 182.136ZM46.2676 182.136C45.3174 182.136 44.5647 181.963 44.0094 181.618C43.4664 181.26 43.0716 180.729 42.8248 180.026C42.578 179.323 42.4546 178.44 42.4546 177.379C42.4546 176.219 42.615 175.281 42.9358 174.566C43.269 173.85 43.7317 173.325 44.3241 172.992C44.9164 172.659 45.6259 172.492 46.4527 172.492C47.7237 172.492 48.68 172.838 49.3217 173.529C49.9757 174.208 50.3027 175.306 50.3027 176.824L50.2102 177.99H44.213C44.2253 178.878 44.3919 179.551 44.7128 180.007C45.0336 180.452 45.6136 180.674 46.4527 180.674C46.8105 180.674 47.1992 180.668 47.6188 180.655C48.0507 180.631 48.4764 180.606 48.896 180.581C49.3155 180.557 49.6734 180.532 49.9695 180.507L50.0066 181.803C49.6981 181.852 49.3279 181.902 48.896 181.951C48.4641 182.013 48.0137 182.056 47.5448 182.08C47.0882 182.118 46.6625 182.136 46.2676 182.136ZM44.213 176.713H48.5813C48.5813 175.664 48.4086 174.93 48.063 174.51C47.7299 174.09 47.1931 173.881 46.4527 173.881C45.7246 173.881 45.1693 174.097 44.7868 174.528C44.4043 174.96 44.213 175.688 44.213 176.713ZM55.3529 182.155C54.6989 182.155 54.1744 182.056 53.7795 181.858C53.397 181.661 53.1193 181.322 52.9466 180.84C52.7862 180.347 52.706 179.656 52.706 178.767V174.14H51.4473V172.678H52.706V169.957H54.4089V172.678H57.1668V174.14H54.4089V178.286C54.4089 178.891 54.4335 179.366 54.4829 179.711C54.5446 180.044 54.6618 180.279 54.8346 180.415C55.0073 180.55 55.2788 180.618 55.649 180.618C55.7724 180.618 55.9267 180.618 56.1118 180.618C56.2969 180.606 56.4881 180.594 56.6856 180.581C56.883 180.557 57.0558 180.538 57.2038 180.526L57.2964 181.932C57.0126 181.982 56.6794 182.031 56.2969 182.08C55.9143 182.13 55.5997 182.155 55.3529 182.155ZM62.8177 181.951V172.678H64.5391V181.951H62.8177ZM62.8177 170.808V169.013H64.5391V170.808H62.8177ZM67.0113 181.951V172.678H68.7327V173.325C68.9301 173.202 69.1831 173.079 69.4916 172.955C69.8001 172.832 70.1271 172.727 70.4726 172.64C70.8181 172.542 71.1513 172.492 71.4722 172.492C72.3359 172.492 72.9961 172.647 73.4527 172.955C73.9093 173.251 74.2239 173.739 74.3967 174.417C74.5818 175.084 74.6744 175.966 74.6744 177.064V181.951H72.9344V177.157C72.9344 176.392 72.8912 175.781 72.8049 175.324C72.7185 174.868 72.5457 174.541 72.2866 174.343C72.0275 174.134 71.6387 174.029 71.1205 174.029C70.8367 174.029 70.5405 174.06 70.232 174.121C69.9358 174.183 69.652 174.263 69.3805 174.362C69.1214 174.461 68.9055 174.553 68.7327 174.64V181.951H67.0113ZM83.8504 181.951V170.771H80.093V169.198H89.3479V170.771H85.6274V181.951H83.8504ZM93.3259 182.136C92.2893 182.136 91.4749 181.963 90.8826 181.618C90.2903 181.26 89.8707 180.717 89.6239 179.989C89.3771 179.261 89.2537 178.335 89.2537 177.212C89.2537 176.139 89.3833 175.257 89.6424 174.566C89.9139 173.874 90.3458 173.356 90.9381 173.011C91.5428 172.665 92.3387 172.492 93.3259 172.492C94.3254 172.492 95.1213 172.665 95.7136 173.011C96.306 173.356 96.7317 173.874 96.9908 174.566C97.2623 175.257 97.398 176.139 97.398 177.212C97.398 178.335 97.2746 179.261 97.0278 179.989C96.7934 180.717 96.38 181.26 95.7877 181.618C95.1954 181.963 94.3748 182.136 93.3259 182.136ZM93.3259 180.674C93.9799 180.674 94.4735 180.557 94.8067 180.322C95.1398 180.088 95.362 179.717 95.473 179.211C95.5841 178.693 95.6396 178.027 95.6396 177.212C95.6396 176.41 95.5717 175.775 95.436 175.306C95.3003 174.825 95.0658 174.479 94.7326 174.269C94.3994 174.06 93.9305 173.955 93.3259 173.955C92.7336 173.955 92.2646 174.06 91.9191 174.269C91.5859 174.479 91.3515 174.825 91.2158 175.306C91.08 175.775 91.0121 176.41 91.0121 177.212C91.0121 178.027 91.0677 178.693 91.1787 179.211C91.2898 179.717 91.5057 180.088 91.8266 180.322C92.1598 180.557 92.6595 180.674 93.3259 180.674ZM102.381 182.136C101.579 182.136 100.962 181.976 100.53 181.655C100.11 181.322 99.8204 180.816 99.66 180.137C99.4996 179.458 99.4194 178.582 99.4194 177.509V172.678H101.141V177.49C101.141 178.255 101.178 178.866 101.252 179.323C101.326 179.779 101.486 180.106 101.733 180.304C101.992 180.501 102.375 180.6 102.881 180.6C103.374 180.6 103.825 180.532 104.232 180.396C104.651 180.26 104.991 180.131 105.25 180.007V172.678H106.953V181.951H105.25V181.322C104.855 181.544 104.429 181.735 103.973 181.895C103.529 182.056 102.998 182.136 102.381 182.136ZM112.989 182.136C111.99 182.136 111.206 181.976 110.638 181.655C110.071 181.322 109.67 180.791 109.435 180.063C109.201 179.335 109.083 178.379 109.083 177.194C109.083 176.046 109.213 175.133 109.472 174.454C109.731 173.763 110.151 173.264 110.731 172.955C111.311 172.647 112.07 172.492 113.008 172.492C113.23 172.492 113.495 172.511 113.804 172.548C114.124 172.573 114.445 172.61 114.766 172.659C115.099 172.708 115.383 172.752 115.617 172.789L115.562 174.195C115.352 174.171 115.105 174.146 114.822 174.121C114.538 174.097 114.266 174.078 114.007 174.066C113.748 174.041 113.532 174.029 113.359 174.029C112.693 174.029 112.175 174.134 111.804 174.343C111.447 174.553 111.194 174.886 111.046 175.343C110.91 175.8 110.842 176.416 110.842 177.194C110.842 178.033 110.904 178.706 111.027 179.211C111.163 179.705 111.41 180.063 111.767 180.285C112.125 180.495 112.656 180.6 113.359 180.6C113.532 180.6 113.748 180.594 114.007 180.581C114.279 180.557 114.556 180.532 114.84 180.507C115.136 180.482 115.389 180.464 115.599 180.452L115.654 181.858C115.408 181.895 115.118 181.932 114.785 181.969C114.464 182.019 114.143 182.056 113.822 182.08C113.501 182.118 113.224 182.136 112.989 182.136ZM117.588 181.951V168.735H119.309V173.14C119.63 173.005 120.05 172.863 120.568 172.715C121.086 172.566 121.58 172.492 122.049 172.492C122.9 172.492 123.554 172.647 124.011 172.955C124.48 173.251 124.801 173.739 124.973 174.417C125.146 175.084 125.232 175.96 125.232 177.046V181.951H123.493V177.157C123.493 176.392 123.449 175.781 123.363 175.324C123.277 174.868 123.104 174.541 122.845 174.343C122.598 174.134 122.215 174.029 121.697 174.029C121.265 174.029 120.821 174.084 120.364 174.195C119.92 174.306 119.568 174.417 119.309 174.528V181.951H117.588ZM131.984 177.675L131.854 169.198H133.705L133.576 177.675H131.984ZM131.854 181.951V179.656H133.705V181.951H131.854Z" fill="#313131"/>
</svg>
