<svg width="1258" height="44" viewBox="0 0 1258 44" fill="none" xmlns="http://www.w3.org/2000/svg">
<path d="M16.4587 8.25C8.86874 8.25 2.70874 14.41 2.70874 22C2.70874 29.59 8.86874 35.75 16.4587 35.75C24.0487 35.75 30.2087 29.59 30.2087 22C30.2087 14.41 24.0625 8.25 16.4587 8.25ZM23.925 28.0913C22.2337 30.525 19.4562 31.9688 16.5 31.9688C13.5437 31.9688 10.7662 30.525 9.07499 28.0913C8.74499 27.6238 8.86874 26.9775 9.33624 26.6613C9.80374 26.3313 10.45 26.455 10.7662 26.9225C12.0725 28.7925 14.2175 29.92 16.5 29.92C18.7825 29.92 20.9275 28.8062 22.2337 26.9225C22.5637 26.455 23.1962 26.345 23.6637 26.6613C24.145 26.9775 24.255 27.6238 23.925 28.0913Z" fill="#2995E2"/>
<path d="M44.008 28V17.072H46.216V21.632H50.456V17.072H52.664V28H50.456V23.488H46.216V28H44.008ZM57.7218 28.176C56.8364 28.176 56.1324 28.0267 55.6098 27.728C55.0978 27.4293 54.7298 26.976 54.5058 26.368C54.2818 25.76 54.1698 24.9973 54.1698 24.08C54.1698 23.088 54.3084 22.2773 54.5858 21.648C54.8738 21.0187 55.2898 20.5547 55.8338 20.256C56.3778 19.9467 57.0498 19.792 57.8498 19.792C59.0338 19.792 59.9244 20.0907 60.5218 20.688C61.1298 21.2853 61.4338 22.2293 61.4338 23.52L61.3378 24.704H56.3138C56.3244 25.3013 56.4471 25.7493 56.6818 26.048C56.9164 26.3467 57.3218 26.496 57.8978 26.496C58.2284 26.496 58.5911 26.4907 58.9858 26.48C59.3804 26.4587 59.7698 26.4373 60.1538 26.416C60.5484 26.3947 60.8844 26.3733 61.1618 26.352L61.2098 27.84C60.9431 27.8827 60.6071 27.9307 60.2018 27.984C59.7964 28.0373 59.3751 28.08 58.9378 28.112C58.5111 28.1547 58.1058 28.176 57.7218 28.176ZM56.3138 23.344H59.3058C59.3058 22.6187 59.1884 22.112 58.9538 21.824C58.7298 21.536 58.3618 21.392 57.8498 21.392C57.3484 21.392 56.9644 21.5413 56.6978 21.84C56.4418 22.1387 56.3138 22.64 56.3138 23.344ZM62.9128 28V16.688H65.0408V28H62.9128ZM66.8644 31.376V19.968H68.9764L68.9924 20.48C69.1417 20.384 69.3284 20.2827 69.5524 20.176C69.787 20.0693 70.0377 19.9787 70.3044 19.904C70.571 19.8293 70.8324 19.792 71.0884 19.792C72.1657 19.792 72.939 20.1387 73.4084 20.832C73.8777 21.5147 74.1124 22.5547 74.1124 23.952C74.1124 24.9547 73.995 25.7653 73.7604 26.384C73.5257 27.0027 73.147 27.456 72.6244 27.744C72.1124 28.032 71.435 28.176 70.5924 28.176C70.3257 28.176 70.0377 28.1547 69.7284 28.112C69.419 28.0693 69.1737 28.0267 68.9924 27.984V31.376H66.8644ZM70.2564 26.4C70.683 26.4 71.019 26.3093 71.2644 26.128C71.5097 25.9467 71.6804 25.6747 71.7764 25.312C71.883 24.9387 71.9364 24.4693 71.9364 23.904C71.9364 23.0293 71.8137 22.4267 71.5684 22.096C71.3337 21.7547 70.9924 21.584 70.5444 21.584C70.3737 21.584 70.1924 21.6053 70.0004 21.648C69.8084 21.6907 69.6217 21.744 69.4404 21.808C69.259 21.872 69.1097 21.936 68.9924 22V26.288C69.1204 26.2987 69.3017 26.32 69.5364 26.352C69.7817 26.384 70.0217 26.4 70.2564 26.4ZM78.8155 28.176C77.9302 28.176 77.2262 28.0267 76.7035 27.728C76.1915 27.4293 75.8235 26.976 75.5995 26.368C75.3755 25.76 75.2635 24.9973 75.2635 24.08C75.2635 23.088 75.4022 22.2773 75.6795 21.648C75.9675 21.0187 76.3835 20.5547 76.9275 20.256C77.4715 19.9467 78.1435 19.792 78.9435 19.792C80.1275 19.792 81.0182 20.0907 81.6155 20.688C82.2235 21.2853 82.5275 22.2293 82.5275 23.52L82.4315 24.704H77.4075C77.4182 25.3013 77.5408 25.7493 77.7755 26.048C78.0102 26.3467 78.4155 26.496 78.9915 26.496C79.3222 26.496 79.6848 26.4907 80.0795 26.48C80.4742 26.4587 80.8635 26.4373 81.2475 26.416C81.6422 26.3947 81.9782 26.3733 82.2555 26.352L82.3035 27.84C82.0368 27.8827 81.7008 27.9307 81.2955 27.984C80.8902 28.0373 80.4688 28.08 80.0315 28.112C79.6048 28.1547 79.1995 28.176 78.8155 28.176ZM77.4075 23.344H80.3995C80.3995 22.6187 80.2822 22.112 80.0475 21.824C79.8235 21.536 79.4555 21.392 78.9435 21.392C78.4422 21.392 78.0582 21.5413 77.7915 21.84C77.5355 22.1387 77.4075 22.64 77.4075 23.344ZM85.1128 28L83.2088 19.968H85.4968L86.8408 26.192H87.3048L88.6808 19.968H90.8408L88.9368 28H85.1128ZM95.0811 28.176C94.1958 28.176 93.4918 28.0267 92.9691 27.728C92.4571 27.4293 92.0891 26.976 91.8651 26.368C91.6411 25.76 91.5291 24.9973 91.5291 24.08C91.5291 23.088 91.6678 22.2773 91.9451 21.648C92.2331 21.0187 92.6491 20.5547 93.1931 20.256C93.7371 19.9467 94.4091 19.792 95.2091 19.792C96.3931 19.792 97.2838 20.0907 97.8811 20.688C98.4891 21.2853 98.7931 22.2293 98.7931 23.52L98.6971 24.704H93.6731C93.6838 25.3013 93.8065 25.7493 94.0411 26.048C94.2758 26.3467 94.6811 26.496 95.2571 26.496C95.5878 26.496 95.9505 26.4907 96.3451 26.48C96.7398 26.4587 97.1291 26.4373 97.5131 26.416C97.9078 26.3947 98.2438 26.3733 98.5211 26.352L98.5691 27.84C98.3025 27.8827 97.9665 27.9307 97.5611 27.984C97.1558 28.0373 96.7345 28.08 96.2971 28.112C95.8705 28.1547 95.4651 28.176 95.0811 28.176ZM93.6731 23.344H96.6651C96.6651 22.6187 96.5478 22.112 96.3131 21.824C96.0891 21.536 95.7211 21.392 95.2091 21.392C94.7078 21.392 94.3238 21.5413 94.0571 21.84C93.8011 22.1387 93.6731 22.64 93.6731 23.344ZM100.208 28V19.968H102.336V20.912C102.517 20.7733 102.741 20.6293 103.008 20.48C103.275 20.32 103.563 20.176 103.872 20.048C104.192 19.9093 104.496 19.8187 104.784 19.776V21.84C104.507 21.8827 104.213 21.9573 103.904 22.064C103.595 22.16 103.301 22.2667 103.024 22.384C102.757 22.5013 102.528 22.608 102.336 22.704V28H100.208ZM107.864 31.376L108.888 28H107.176L105.272 19.968H107.496L108.92 26.192H109.336L110.76 19.968H112.904L110.136 31.376H107.864ZM117.367 28.176C116.461 28.176 115.73 28.0267 115.175 27.728C114.631 27.4293 114.237 26.9707 113.991 26.352C113.746 25.7227 113.623 24.912 113.623 23.92C113.623 22.96 113.751 22.1813 114.007 21.584C114.263 20.976 114.669 20.528 115.223 20.24C115.778 19.9413 116.493 19.792 117.367 19.792C118.253 19.792 118.967 19.9413 119.511 20.24C120.066 20.528 120.471 20.976 120.727 21.584C120.994 22.1813 121.127 22.96 121.127 23.92C121.127 24.912 121.005 25.7227 120.759 26.352C120.514 26.9707 120.114 27.4293 119.559 27.728C119.015 28.0267 118.285 28.176 117.367 28.176ZM117.367 26.416C117.815 26.416 118.151 26.336 118.375 26.176C118.599 26.0053 118.749 25.7387 118.823 25.376C118.909 25.0027 118.951 24.5173 118.951 23.92C118.951 23.3333 118.903 22.8693 118.807 22.528C118.711 22.176 118.551 21.9253 118.327 21.776C118.103 21.6267 117.783 21.552 117.367 21.552C116.962 21.552 116.642 21.6267 116.407 21.776C116.183 21.9253 116.023 22.176 115.927 22.528C115.831 22.8693 115.783 23.3333 115.783 23.92C115.783 24.5173 115.821 25.0027 115.895 25.376C115.981 25.7387 116.135 26.0053 116.359 26.176C116.583 26.336 116.919 26.416 117.367 26.416ZM122.583 28V19.968H124.711V20.48C124.882 20.3733 125.09 20.272 125.335 20.176C125.58 20.0693 125.836 19.9787 126.103 19.904C126.38 19.8293 126.647 19.792 126.903 19.792C127.65 19.792 128.226 19.9253 128.631 20.192C129.047 20.448 129.34 20.8747 129.511 21.472C129.682 22.0587 129.767 22.848 129.767 23.84V28H127.623V23.952C127.623 23.3973 127.591 22.9547 127.527 22.624C127.463 22.2827 127.34 22.0373 127.159 21.888C126.978 21.7387 126.711 21.664 126.359 21.664C126.167 21.664 125.964 21.6853 125.751 21.728C125.548 21.76 125.351 21.808 125.159 21.872C124.978 21.936 124.828 22 124.711 22.064V28H122.583ZM134.675 28.176C133.79 28.176 133.086 28.0267 132.563 27.728C132.051 27.4293 131.683 26.976 131.459 26.368C131.235 25.76 131.123 24.9973 131.123 24.08C131.123 23.088 131.262 22.2773 131.539 21.648C131.827 21.0187 132.243 20.5547 132.787 20.256C133.331 19.9467 134.003 19.792 134.803 19.792C135.987 19.792 136.878 20.0907 137.475 20.688C138.083 21.2853 138.387 22.2293 138.387 23.52L138.291 24.704H133.267C133.278 25.3013 133.4 25.7493 133.635 26.048C133.87 26.3467 134.275 26.496 134.851 26.496C135.182 26.496 135.544 26.4907 135.939 26.48C136.334 26.4587 136.723 26.4373 137.107 26.416C137.502 26.3947 137.838 26.3733 138.115 26.352L138.163 27.84C137.896 27.8827 137.56 27.9307 137.155 27.984C136.75 28.0373 136.328 28.08 135.891 28.112C135.464 28.1547 135.059 28.176 134.675 28.176ZM133.267 23.344H136.259C136.259 22.6187 136.142 22.112 135.907 21.824C135.683 21.536 135.315 21.392 134.803 21.392C134.302 21.392 133.918 21.5413 133.651 21.84C133.395 22.1387 133.267 22.64 133.267 23.344Z" fill="#2995E2"/>
<path d="M285.26 27.165C284.88 27.165 284.465 27.14 284.015 27.09C283.565 27.05 283.125 27 282.695 26.94C282.275 26.87 281.915 26.81 281.615 26.76L281.75 25.125C282.06 25.165 282.42 25.21 282.83 25.26C283.24 25.3 283.645 25.335 284.045 25.365C284.455 25.395 284.81 25.41 285.11 25.41C285.68 25.41 286.095 25.3 286.355 25.08C286.615 24.85 286.745 24.495 286.745 24.015C286.745 23.755 286.69 23.55 286.58 23.4C286.48 23.24 286.295 23.115 286.025 23.025C285.755 22.925 285.38 22.83 284.9 22.74C284.1 22.59 283.45 22.405 282.95 22.185C282.46 21.965 282.1 21.655 281.87 21.255C281.65 20.855 281.54 20.32 281.54 19.65C281.54 18.87 281.685 18.26 281.975 17.82C282.265 17.37 282.68 17.05 283.22 16.86C283.76 16.67 284.395 16.575 285.125 16.575C285.455 16.575 285.83 16.595 286.25 16.635C286.68 16.665 287.1 16.705 287.51 16.755C287.93 16.805 288.285 16.86 288.575 16.92L288.485 18.57C288.185 18.53 287.835 18.495 287.435 18.465C287.045 18.425 286.655 18.39 286.265 18.36C285.885 18.33 285.56 18.315 285.29 18.315C284.72 18.315 284.3 18.405 284.03 18.585C283.76 18.765 283.625 19.055 283.625 19.455C283.625 19.755 283.685 19.985 283.805 20.145C283.925 20.305 284.125 20.435 284.405 20.535C284.695 20.635 285.09 20.74 285.59 20.85C286.18 20.98 286.68 21.12 287.09 21.27C287.51 21.42 287.845 21.6 288.095 21.81C288.355 22.02 288.545 22.29 288.665 22.62C288.785 22.95 288.845 23.365 288.845 23.865C288.845 24.665 288.7 25.31 288.41 25.8C288.13 26.28 287.72 26.63 287.18 26.85C286.65 27.06 286.01 27.165 285.26 27.165ZM293.205 27.165C292.375 27.165 291.715 27.025 291.225 26.745C290.745 26.465 290.4 26.04 290.19 25.47C289.98 24.9 289.875 24.185 289.875 23.325C289.875 22.395 290.005 21.635 290.265 21.045C290.535 20.455 290.925 20.02 291.435 19.74C291.945 19.45 292.575 19.305 293.325 19.305C294.435 19.305 295.27 19.585 295.83 20.145C296.4 20.705 296.685 21.59 296.685 22.8L296.595 23.91H291.885C291.895 24.47 292.01 24.89 292.23 25.17C292.45 25.45 292.83 25.59 293.37 25.59C293.68 25.59 294.02 25.585 294.39 25.575C294.76 25.555 295.125 25.535 295.485 25.515C295.855 25.495 296.17 25.475 296.43 25.455L296.475 26.85C296.225 26.89 295.91 26.935 295.53 26.985C295.15 27.035 294.755 27.075 294.345 27.105C293.945 27.145 293.565 27.165 293.205 27.165ZM291.885 22.635H294.69C294.69 21.955 294.58 21.48 294.36 21.21C294.15 20.94 293.805 20.805 293.325 20.805C292.855 20.805 292.495 20.945 292.245 21.225C292.005 21.505 291.885 21.975 291.885 22.635ZM298.012 27V19.47H300.007V20.355C300.177 20.225 300.387 20.09 300.637 19.95C300.887 19.8 301.157 19.665 301.447 19.545C301.747 19.415 302.032 19.33 302.302 19.29V21.225C302.042 21.265 301.767 21.335 301.477 21.435C301.187 21.525 300.912 21.625 300.652 21.735C300.402 21.845 300.187 21.945 300.007 22.035V27H298.012ZM304.529 27L302.744 19.47H304.889L306.149 25.305H306.584L307.874 19.47H309.899L308.114 27H304.529ZM310.946 27V19.47H312.941V27H310.946ZM310.946 18.27V16.56H312.956V18.27H310.946ZM317.683 27.165C316.823 27.165 316.148 27.035 315.658 26.775C315.178 26.505 314.838 26.075 314.638 25.485C314.448 24.895 314.353 24.12 314.353 23.16C314.353 22.21 314.463 21.455 314.683 20.895C314.903 20.325 315.258 19.92 315.748 19.68C316.248 19.43 316.898 19.305 317.698 19.305C317.908 19.305 318.153 19.32 318.433 19.35C318.713 19.38 318.993 19.42 319.273 19.47C319.563 19.51 319.808 19.55 320.008 19.59L319.933 21.195C319.743 21.175 319.528 21.16 319.288 21.15C319.048 21.13 318.813 21.115 318.583 21.105C318.363 21.085 318.183 21.075 318.043 21.075C317.613 21.075 317.273 21.145 317.023 21.285C316.783 21.415 316.613 21.635 316.513 21.945C316.423 22.245 316.378 22.65 316.378 23.16C316.378 23.71 316.423 24.15 316.513 24.48C316.603 24.81 316.763 25.045 316.993 25.185C317.233 25.325 317.583 25.395 318.043 25.395C318.183 25.395 318.368 25.39 318.598 25.38C318.828 25.36 319.063 25.34 319.303 25.32C319.553 25.3 319.773 25.285 319.963 25.275L320.023 26.88C319.823 26.92 319.583 26.96 319.303 27C319.023 27.05 318.738 27.09 318.448 27.12C318.168 27.15 317.913 27.165 317.683 27.165ZM324.289 27.165C323.459 27.165 322.799 27.025 322.309 26.745C321.829 26.465 321.484 26.04 321.274 25.47C321.064 24.9 320.959 24.185 320.959 23.325C320.959 22.395 321.089 21.635 321.349 21.045C321.619 20.455 322.009 20.02 322.519 19.74C323.029 19.45 323.659 19.305 324.409 19.305C325.519 19.305 326.354 19.585 326.914 20.145C327.484 20.705 327.769 21.59 327.769 22.8L327.679 23.91H322.969C322.979 24.47 323.094 24.89 323.314 25.17C323.534 25.45 323.914 25.59 324.454 25.59C324.764 25.59 325.104 25.585 325.474 25.575C325.844 25.555 326.209 25.535 326.569 25.515C326.939 25.495 327.254 25.475 327.514 25.455L327.559 26.85C327.309 26.89 326.994 26.935 326.614 26.985C326.234 27.035 325.839 27.075 325.429 27.105C325.029 27.145 324.649 27.165 324.289 27.165ZM322.969 22.635H325.774C325.774 21.955 325.664 21.48 325.444 21.21C325.234 20.94 324.889 20.805 324.409 20.805C323.939 20.805 323.579 20.945 323.329 21.225C323.089 21.505 322.969 21.975 322.969 22.635ZM331.811 27.165C331.481 27.165 331.126 27.145 330.746 27.105C330.376 27.075 330.026 27.035 329.696 26.985C329.376 26.935 329.101 26.885 328.871 26.835L328.931 25.35C329.191 25.38 329.481 25.415 329.801 25.455C330.131 25.495 330.451 25.53 330.761 25.56C331.081 25.58 331.341 25.59 331.541 25.59C331.841 25.59 332.086 25.565 332.276 25.515C332.476 25.465 332.626 25.385 332.726 25.275C332.826 25.155 332.876 24.985 332.876 24.765C332.876 24.595 332.831 24.465 332.741 24.375C332.661 24.285 332.501 24.21 332.261 24.15C332.031 24.08 331.691 24.01 331.241 23.94C330.681 23.86 330.216 23.745 329.846 23.595C329.486 23.445 329.221 23.225 329.051 22.935C328.881 22.635 328.796 22.23 328.796 21.72C328.796 21.1 328.931 20.615 329.201 20.265C329.471 19.915 329.831 19.67 330.281 19.53C330.731 19.38 331.221 19.305 331.751 19.305C332.101 19.305 332.461 19.325 332.831 19.365C333.201 19.395 333.551 19.435 333.881 19.485C334.211 19.535 334.486 19.585 334.706 19.635L334.646 21.15C334.396 21.11 334.106 21.075 333.776 21.045C333.446 21.005 333.116 20.975 332.786 20.955C332.466 20.935 332.196 20.925 331.976 20.925C331.746 20.925 331.541 20.95 331.361 21C331.181 21.04 331.041 21.11 330.941 21.21C330.851 21.31 330.806 21.46 330.806 21.66C330.806 21.8 330.846 21.915 330.926 22.005C331.006 22.095 331.156 22.175 331.376 22.245C331.606 22.305 331.936 22.365 332.366 22.425C332.986 22.515 333.481 22.64 333.851 22.8C334.221 22.96 334.486 23.19 334.646 23.49C334.816 23.79 334.901 24.195 334.901 24.705C334.901 25.615 334.631 26.255 334.091 26.625C333.561 26.985 332.801 27.165 331.811 27.165Z" fill="#242424"/>
<path d="M375.17 27V16.665H378.935C379.705 16.665 380.345 16.785 380.855 17.025C381.375 17.265 381.785 17.605 382.085 18.045C382.385 18.485 382.595 19.015 382.715 19.635C382.845 20.245 382.91 20.925 382.91 21.675C382.91 22.435 382.85 23.14 382.73 23.79C382.61 24.43 382.4 24.995 382.1 25.485C381.8 25.965 381.395 26.34 380.885 26.61C380.375 26.87 379.73 27 378.95 27H375.17ZM376.61 25.755H378.92C379.44 25.755 379.86 25.645 380.18 25.425C380.51 25.205 380.765 24.905 380.945 24.525C381.125 24.145 381.25 23.715 381.32 23.235C381.39 22.745 381.425 22.225 381.425 21.675C381.425 21.135 381.39 20.64 381.32 20.19C381.25 19.73 381.125 19.33 380.945 18.99C380.765 18.65 380.51 18.39 380.18 18.21C379.86 18.02 379.44 17.925 378.92 17.925H376.61V25.755ZM387.658 27.15C386.818 27.15 386.158 27.01 385.678 26.73C385.198 26.44 384.858 26 384.658 25.41C384.458 24.82 384.358 24.07 384.358 23.16C384.358 22.29 384.463 21.575 384.673 21.015C384.893 20.455 385.243 20.035 385.723 19.755C386.213 19.475 386.858 19.335 387.658 19.335C388.468 19.335 389.113 19.475 389.593 19.755C390.073 20.035 390.418 20.455 390.628 21.015C390.848 21.575 390.958 22.29 390.958 23.16C390.958 24.07 390.858 24.82 390.658 25.41C390.468 26 390.133 26.44 389.653 26.73C389.173 27.01 388.508 27.15 387.658 27.15ZM387.658 25.965C388.188 25.965 388.588 25.87 388.858 25.68C389.128 25.49 389.308 25.19 389.398 24.78C389.488 24.36 389.533 23.82 389.533 23.16C389.533 22.51 389.478 21.995 389.368 21.615C389.258 21.225 389.068 20.945 388.798 20.775C388.528 20.605 388.148 20.52 387.658 20.52C387.178 20.52 386.798 20.605 386.518 20.775C386.248 20.945 386.058 21.225 385.948 21.615C385.838 21.995 385.783 22.51 385.783 23.16C385.783 23.82 385.828 24.36 385.918 24.78C386.008 25.19 386.183 25.49 386.443 25.68C386.713 25.87 387.118 25.965 387.658 25.965ZM392.671 27V19.485H394.066V20.01C394.226 19.91 394.431 19.81 394.681 19.71C394.931 19.61 395.196 19.525 395.476 19.455C395.756 19.375 396.026 19.335 396.286 19.335C396.986 19.335 397.521 19.46 397.891 19.71C398.261 19.95 398.516 20.345 398.656 20.895C398.806 21.435 398.881 22.15 398.881 23.04V27H397.471V23.115C397.471 22.495 397.436 22 397.366 21.63C397.296 21.26 397.156 20.995 396.946 20.835C396.736 20.665 396.421 20.58 396.001 20.58C395.771 20.58 395.531 20.605 395.281 20.655C395.041 20.705 394.811 20.77 394.591 20.85C394.381 20.93 394.206 21.005 394.066 21.075V27H392.671ZM402.526 27.15C401.816 27.15 401.276 26.955 400.906 26.565C400.536 26.175 400.351 25.6 400.351 24.84C400.351 24.33 400.441 23.92 400.621 23.61C400.801 23.29 401.066 23.05 401.416 22.89C401.776 22.73 402.221 22.635 402.751 22.605L404.926 22.395V21.81C404.926 21.34 404.821 21.01 404.611 20.82C404.401 20.62 404.086 20.52 403.666 20.52C403.406 20.52 403.101 20.53 402.751 20.55C402.401 20.57 402.056 20.595 401.716 20.625C401.376 20.655 401.071 20.685 400.801 20.715L400.741 19.695C400.991 19.635 401.286 19.58 401.626 19.53C401.976 19.48 402.341 19.435 402.721 19.395C403.101 19.355 403.451 19.335 403.771 19.335C404.361 19.335 404.846 19.42 405.226 19.59C405.606 19.76 405.886 20.025 406.066 20.385C406.246 20.745 406.336 21.21 406.336 21.78V25.47C406.356 25.67 406.436 25.82 406.576 25.92C406.726 26.01 406.911 26.07 407.131 26.1L407.086 27.135C406.866 27.135 406.656 27.125 406.456 27.105C406.266 27.095 406.091 27.065 405.931 27.015C405.771 26.975 405.626 26.92 405.496 26.85C405.376 26.77 405.261 26.68 405.151 26.58C404.971 26.66 404.736 26.745 404.446 26.835C404.156 26.925 403.846 27 403.516 27.06C403.186 27.12 402.856 27.15 402.526 27.15ZM402.811 26.04C403.061 26.04 403.316 26.015 403.576 25.965C403.846 25.915 404.101 25.86 404.341 25.8C404.581 25.73 404.776 25.67 404.926 25.62V23.37L402.931 23.565C402.511 23.595 402.211 23.715 402.031 23.925C401.851 24.125 401.761 24.415 401.761 24.795C401.761 25.185 401.846 25.49 402.016 25.71C402.196 25.93 402.461 26.04 402.811 26.04ZM410.85 27.165C410.32 27.165 409.895 27.085 409.575 26.925C409.265 26.765 409.04 26.49 408.9 26.1C408.77 25.7 408.705 25.14 408.705 24.42V20.67H407.685V19.485H408.705V17.28H410.085V19.485H412.32V20.67H410.085V24.03C410.085 24.52 410.105 24.905 410.145 25.185C410.195 25.455 410.29 25.645 410.43 25.755C410.57 25.865 410.79 25.92 411.09 25.92C411.19 25.92 411.315 25.92 411.465 25.92C411.615 25.91 411.77 25.9 411.93 25.89C412.09 25.87 412.23 25.855 412.35 25.845L412.425 26.985C412.195 27.025 411.925 27.065 411.615 27.105C411.305 27.145 411.05 27.165 410.85 27.165ZM416.378 27.15C415.608 27.15 414.998 27.01 414.548 26.73C414.108 26.44 413.788 26.01 413.588 25.44C413.388 24.87 413.288 24.155 413.288 23.295C413.288 22.355 413.418 21.595 413.678 21.015C413.948 20.435 414.323 20.01 414.803 19.74C415.283 19.47 415.858 19.335 416.528 19.335C417.558 19.335 418.333 19.615 418.853 20.175C419.383 20.725 419.648 21.615 419.648 22.845L419.573 23.79H414.713C414.723 24.51 414.858 25.055 415.118 25.425C415.378 25.785 415.848 25.965 416.528 25.965C416.818 25.965 417.133 25.96 417.473 25.95C417.823 25.93 418.168 25.91 418.508 25.89C418.848 25.87 419.138 25.85 419.378 25.83L419.408 26.88C419.158 26.92 418.858 26.96 418.508 27C418.158 27.05 417.793 27.085 417.413 27.105C417.043 27.135 416.698 27.15 416.378 27.15ZM414.713 22.755H418.253C418.253 21.905 418.113 21.31 417.833 20.97C417.563 20.63 417.128 20.46 416.528 20.46C415.938 20.46 415.488 20.635 415.178 20.985C414.868 21.335 414.713 21.925 414.713 22.755Z" fill="#3F3F3F"/>
<path d="M461.4 27L459.405 16.665H460.89L462.495 25.695H462.9L464.85 16.755H466.515L468.465 25.695H468.87L470.46 16.665H471.945L469.95 27H467.475L465.585 18H465.765L463.875 27H461.4ZM473.364 27V16.29H474.759V19.86C475.019 19.75 475.359 19.635 475.779 19.515C476.199 19.395 476.599 19.335 476.979 19.335C477.669 19.335 478.199 19.46 478.569 19.71C478.949 19.95 479.209 20.345 479.349 20.895C479.489 21.435 479.559 22.145 479.559 23.025V27H478.149V23.115C478.149 22.495 478.114 22 478.044 21.63C477.974 21.26 477.834 20.995 477.624 20.835C477.424 20.665 477.114 20.58 476.694 20.58C476.344 20.58 475.984 20.625 475.614 20.715C475.254 20.805 474.969 20.895 474.759 20.985V27H473.364ZM484.479 27.15C483.639 27.15 482.979 27.01 482.499 26.73C482.019 26.44 481.679 26 481.479 25.41C481.279 24.82 481.179 24.07 481.179 23.16C481.179 22.29 481.284 21.575 481.494 21.015C481.714 20.455 482.064 20.035 482.544 19.755C483.034 19.475 483.679 19.335 484.479 19.335C485.289 19.335 485.934 19.475 486.414 19.755C486.894 20.035 487.239 20.455 487.449 21.015C487.669 21.575 487.779 22.29 487.779 23.16C487.779 24.07 487.679 24.82 487.479 25.41C487.289 26 486.954 26.44 486.474 26.73C485.994 27.01 485.329 27.15 484.479 27.15ZM484.479 25.965C485.009 25.965 485.409 25.87 485.679 25.68C485.949 25.49 486.129 25.19 486.219 24.78C486.309 24.36 486.354 23.82 486.354 23.16C486.354 22.51 486.299 21.995 486.189 21.615C486.079 21.225 485.889 20.945 485.619 20.775C485.349 20.605 484.969 20.52 484.479 20.52C483.999 20.52 483.619 20.605 483.339 20.775C483.069 20.945 482.879 21.225 482.769 21.615C482.659 21.995 482.604 22.51 482.604 23.16C482.604 23.82 482.649 24.36 482.739 24.78C482.829 25.19 483.004 25.49 483.264 25.68C483.534 25.87 483.939 25.965 484.479 25.965ZM493.884 27L492.204 19.485H493.644L494.964 25.8H495.219L496.824 19.65H498.234L499.854 25.8H500.094L501.429 19.485H502.824L501.159 27H498.924L497.499 21.465L496.089 27H493.884ZM506.945 27.15C506.175 27.15 505.565 27.01 505.115 26.73C504.675 26.44 504.355 26.01 504.155 25.44C503.955 24.87 503.855 24.155 503.855 23.295C503.855 22.355 503.985 21.595 504.245 21.015C504.515 20.435 504.89 20.01 505.37 19.74C505.85 19.47 506.425 19.335 507.095 19.335C508.125 19.335 508.9 19.615 509.42 20.175C509.95 20.725 510.215 21.615 510.215 22.845L510.14 23.79H505.28C505.29 24.51 505.425 25.055 505.685 25.425C505.945 25.785 506.415 25.965 507.095 25.965C507.385 25.965 507.7 25.96 508.04 25.95C508.39 25.93 508.735 25.91 509.075 25.89C509.415 25.87 509.705 25.85 509.945 25.83L509.975 26.88C509.725 26.92 509.425 26.96 509.075 27C508.725 27.05 508.36 27.085 507.98 27.105C507.61 27.135 507.265 27.15 506.945 27.15ZM505.28 22.755H508.82C508.82 21.905 508.68 21.31 508.4 20.97C508.13 20.63 507.695 20.46 507.095 20.46C506.505 20.46 506.055 20.635 505.745 20.985C505.435 21.335 505.28 21.925 505.28 22.755ZM516.837 27.15C516.127 27.15 515.587 26.955 515.217 26.565C514.847 26.175 514.662 25.6 514.662 24.84C514.662 24.33 514.752 23.92 514.932 23.61C515.112 23.29 515.377 23.05 515.727 22.89C516.087 22.73 516.532 22.635 517.062 22.605L519.237 22.395V21.81C519.237 21.34 519.132 21.01 518.922 20.82C518.712 20.62 518.397 20.52 517.977 20.52C517.717 20.52 517.412 20.53 517.062 20.55C516.712 20.57 516.367 20.595 516.027 20.625C515.687 20.655 515.382 20.685 515.112 20.715L515.052 19.695C515.302 19.635 515.597 19.58 515.937 19.53C516.287 19.48 516.652 19.435 517.032 19.395C517.412 19.355 517.762 19.335 518.082 19.335C518.672 19.335 519.157 19.42 519.537 19.59C519.917 19.76 520.197 20.025 520.377 20.385C520.557 20.745 520.647 21.21 520.647 21.78V25.47C520.667 25.67 520.747 25.82 520.887 25.92C521.037 26.01 521.222 26.07 521.442 26.1L521.397 27.135C521.177 27.135 520.967 27.125 520.767 27.105C520.577 27.095 520.402 27.065 520.242 27.015C520.082 26.975 519.937 26.92 519.807 26.85C519.687 26.77 519.572 26.68 519.462 26.58C519.282 26.66 519.047 26.745 518.757 26.835C518.467 26.925 518.157 27 517.827 27.06C517.497 27.12 517.167 27.15 516.837 27.15ZM517.122 26.04C517.372 26.04 517.627 26.015 517.887 25.965C518.157 25.915 518.412 25.86 518.652 25.8C518.892 25.73 519.087 25.67 519.237 25.62V23.37L517.242 23.565C516.822 23.595 516.522 23.715 516.342 23.925C516.162 24.125 516.072 24.415 516.072 24.795C516.072 25.185 516.157 25.49 516.327 25.71C516.507 25.93 516.772 26.04 517.122 26.04ZM522.73 27V19.485H524.125V20.46C524.305 20.33 524.535 20.19 524.815 20.04C525.095 19.89 525.4 19.75 525.73 19.62C526.07 19.48 526.405 19.38 526.735 19.32V20.715C526.415 20.775 526.085 20.86 525.745 20.97C525.415 21.08 525.105 21.2 524.815 21.33C524.535 21.45 524.305 21.56 524.125 21.66V27H522.73ZM530.587 27.15C529.817 27.15 529.207 27.01 528.757 26.73C528.317 26.44 527.997 26.01 527.797 25.44C527.597 24.87 527.497 24.155 527.497 23.295C527.497 22.355 527.627 21.595 527.887 21.015C528.157 20.435 528.532 20.01 529.012 19.74C529.492 19.47 530.067 19.335 530.737 19.335C531.767 19.335 532.542 19.615 533.062 20.175C533.592 20.725 533.857 21.615 533.857 22.845L533.782 23.79H528.922C528.932 24.51 529.067 25.055 529.327 25.425C529.587 25.785 530.057 25.965 530.737 25.965C531.027 25.965 531.342 25.96 531.682 25.95C532.032 25.93 532.377 25.91 532.717 25.89C533.057 25.87 533.347 25.85 533.587 25.83L533.617 26.88C533.367 26.92 533.067 26.96 532.717 27C532.367 27.05 532.002 27.085 531.622 27.105C531.252 27.135 530.907 27.15 530.587 27.15ZM528.922 22.755H532.462C532.462 21.905 532.322 21.31 532.042 20.97C531.772 20.63 531.337 20.46 530.737 20.46C530.147 20.46 529.697 20.635 529.387 20.985C529.077 21.335 528.922 21.925 528.922 22.755Z" fill="#3F3F3F"/>
<path d="M573.27 27.99V26.73C573.58 26.73 573.835 26.715 574.035 26.685C574.245 26.655 574.405 26.585 574.515 26.475C574.635 26.365 574.715 26.195 574.755 25.965C574.805 25.735 574.83 25.43 574.83 25.05V16.665H576.27V25.425C576.27 26.005 576.21 26.465 576.09 26.805C575.97 27.145 575.785 27.4 575.535 27.57C575.295 27.74 574.985 27.85 574.605 27.9C574.225 27.96 573.78 27.99 573.27 27.99ZM581.297 27.15C580.457 27.15 579.797 27.01 579.317 26.73C578.837 26.44 578.497 26 578.297 25.41C578.097 24.82 577.997 24.07 577.997 23.16C577.997 22.29 578.102 21.575 578.312 21.015C578.532 20.455 578.882 20.035 579.362 19.755C579.852 19.475 580.497 19.335 581.297 19.335C582.107 19.335 582.752 19.475 583.232 19.755C583.712 20.035 584.057 20.455 584.267 21.015C584.487 21.575 584.597 22.29 584.597 23.16C584.597 24.07 584.497 24.82 584.297 25.41C584.107 26 583.772 26.44 583.292 26.73C582.812 27.01 582.147 27.15 581.297 27.15ZM581.297 25.965C581.827 25.965 582.227 25.87 582.497 25.68C582.767 25.49 582.947 25.19 583.037 24.78C583.127 24.36 583.172 23.82 583.172 23.16C583.172 22.51 583.117 21.995 583.007 21.615C582.897 21.225 582.707 20.945 582.437 20.775C582.167 20.605 581.787 20.52 581.297 20.52C580.817 20.52 580.437 20.605 580.157 20.775C579.887 20.945 579.697 21.225 579.587 21.615C579.477 21.995 579.422 22.51 579.422 23.16C579.422 23.82 579.467 24.36 579.557 24.78C579.647 25.19 579.822 25.49 580.082 25.68C580.352 25.87 580.757 25.965 581.297 25.965ZM586.31 27V19.485H587.705V27H586.31ZM586.31 17.97V16.515H587.705V17.97H586.31ZM589.708 27V19.485H591.103V20.01C591.263 19.91 591.468 19.81 591.718 19.71C591.968 19.61 592.233 19.525 592.513 19.455C592.793 19.375 593.063 19.335 593.323 19.335C594.023 19.335 594.558 19.46 594.928 19.71C595.298 19.95 595.553 20.345 595.693 20.895C595.843 21.435 595.918 22.15 595.918 23.04V27H594.508V23.115C594.508 22.495 594.473 22 594.403 21.63C594.333 21.26 594.193 20.995 593.983 20.835C593.773 20.665 593.458 20.58 593.038 20.58C592.808 20.58 592.568 20.605 592.318 20.655C592.078 20.705 591.848 20.77 591.628 20.85C591.418 20.93 591.243 21.005 591.103 21.075V27H589.708ZM603.444 27.15C602.794 27.15 602.294 27.02 601.944 26.76C601.604 26.49 601.369 26.08 601.239 25.53C601.109 24.98 601.044 24.27 601.044 23.4V19.485H602.439V23.385C602.439 24.005 602.469 24.5 602.529 24.87C602.589 25.24 602.719 25.505 602.919 25.665C603.129 25.825 603.439 25.905 603.849 25.905C604.249 25.905 604.614 25.85 604.944 25.74C605.284 25.63 605.559 25.525 605.769 25.425V19.485H607.149V27H605.769V26.49C605.449 26.67 605.104 26.825 604.734 26.955C604.374 27.085 603.944 27.15 603.444 27.15ZM611.621 27.15C611.361 27.15 611.061 27.135 610.721 27.105C610.391 27.075 610.061 27.04 609.731 27C609.411 26.95 609.131 26.9 608.891 26.85L608.951 25.725C609.201 25.755 609.486 25.79 609.806 25.83C610.126 25.87 610.436 25.905 610.736 25.935C611.046 25.955 611.291 25.965 611.471 25.965C611.851 25.965 612.166 25.93 612.416 25.86C612.666 25.79 612.856 25.675 612.986 25.515C613.116 25.345 613.181 25.115 613.181 24.825C613.181 24.595 613.131 24.42 613.031 24.3C612.931 24.17 612.746 24.065 612.476 23.985C612.206 23.895 611.811 23.81 611.291 23.73C610.731 23.64 610.266 23.53 609.896 23.4C609.526 23.26 609.251 23.05 609.071 22.77C608.891 22.49 608.801 22.1 608.801 21.6C608.801 21.02 608.931 20.57 609.191 20.25C609.461 19.92 609.806 19.685 610.226 19.545C610.656 19.405 611.106 19.335 611.576 19.335C611.876 19.335 612.196 19.35 612.536 19.38C612.886 19.41 613.221 19.45 613.541 19.5C613.861 19.55 614.136 19.595 614.366 19.635L614.321 20.775C614.081 20.735 613.801 20.7 613.481 20.67C613.161 20.63 612.841 20.6 612.521 20.58C612.201 20.56 611.921 20.55 611.681 20.55C611.401 20.55 611.146 20.58 610.916 20.64C610.696 20.69 610.521 20.79 610.391 20.94C610.271 21.08 610.211 21.285 610.211 21.555C610.211 21.755 610.256 21.915 610.346 22.035C610.436 22.155 610.616 22.26 610.886 22.35C611.156 22.43 611.541 22.51 612.041 22.59C612.661 22.69 613.156 22.815 613.526 22.965C613.896 23.115 614.166 23.33 614.336 23.61C614.506 23.89 614.591 24.275 614.591 24.765C614.591 25.655 614.326 26.275 613.796 26.625C613.276 26.975 612.551 27.15 611.621 27.15Z" fill="#3F3F3F"/>
<path d="M658.665 27.15C657.885 27.15 657.24 27.04 656.73 26.82C656.23 26.6 655.84 26.27 655.56 25.83C655.28 25.38 655.085 24.825 654.975 24.165C654.865 23.495 654.81 22.725 654.81 21.855C654.81 20.965 654.865 20.185 654.975 19.515C655.085 18.845 655.28 18.29 655.56 17.85C655.85 17.4 656.245 17.065 656.745 16.845C657.245 16.615 657.89 16.5 658.68 16.5C659.03 16.5 659.385 16.52 659.745 16.56C660.105 16.59 660.44 16.635 660.75 16.695C661.07 16.745 661.345 16.795 661.575 16.845L661.515 18.03C661.305 17.99 661.04 17.955 660.72 17.925C660.41 17.885 660.09 17.85 659.76 17.82C659.44 17.79 659.145 17.775 658.875 17.775C658.335 17.775 657.895 17.855 657.555 18.015C657.215 18.175 656.95 18.42 656.76 18.75C656.58 19.08 656.455 19.5 656.385 20.01C656.325 20.52 656.295 21.135 656.295 21.855C656.295 22.555 656.325 23.16 656.385 23.67C656.455 24.18 656.58 24.6 656.76 24.93C656.94 25.25 657.2 25.49 657.54 25.65C657.89 25.8 658.34 25.875 658.89 25.875C659.31 25.875 659.765 25.85 660.255 25.8C660.755 25.75 661.18 25.695 661.53 25.635L661.575 26.835C661.335 26.885 661.05 26.935 660.72 26.985C660.4 27.035 660.06 27.075 659.7 27.105C659.35 27.135 659.005 27.15 658.665 27.15ZM665.988 27.15C665.148 27.15 664.488 27.01 664.008 26.73C663.528 26.44 663.188 26 662.988 25.41C662.788 24.82 662.688 24.07 662.688 23.16C662.688 22.29 662.793 21.575 663.003 21.015C663.223 20.455 663.573 20.035 664.053 19.755C664.543 19.475 665.188 19.335 665.988 19.335C666.798 19.335 667.443 19.475 667.923 19.755C668.403 20.035 668.748 20.455 668.958 21.015C669.178 21.575 669.288 22.29 669.288 23.16C669.288 24.07 669.188 24.82 668.988 25.41C668.798 26 668.463 26.44 667.983 26.73C667.503 27.01 666.838 27.15 665.988 27.15ZM665.988 25.965C666.518 25.965 666.918 25.87 667.188 25.68C667.458 25.49 667.638 25.19 667.728 24.78C667.818 24.36 667.863 23.82 667.863 23.16C667.863 22.51 667.808 21.995 667.698 21.615C667.588 21.225 667.398 20.945 667.128 20.775C666.858 20.605 666.478 20.52 665.988 20.52C665.508 20.52 665.128 20.605 664.848 20.775C664.578 20.945 664.388 21.225 664.278 21.615C664.168 21.995 664.113 22.51 664.113 23.16C664.113 23.82 664.158 24.36 664.248 24.78C664.338 25.19 664.513 25.49 664.773 25.68C665.043 25.87 665.448 25.965 665.988 25.965ZM671.001 27V19.485H672.396V20.01C672.556 19.91 672.761 19.81 673.011 19.71C673.261 19.61 673.526 19.525 673.806 19.455C674.086 19.375 674.356 19.335 674.616 19.335C675.316 19.335 675.851 19.46 676.221 19.71C676.591 19.95 676.846 20.345 676.986 20.895C677.136 21.435 677.211 22.15 677.211 23.04V27H675.801V23.115C675.801 22.495 675.766 22 675.696 21.63C675.626 21.26 675.486 20.995 675.276 20.835C675.066 20.665 674.751 20.58 674.331 20.58C674.101 20.58 673.861 20.605 673.611 20.655C673.371 20.705 673.141 20.77 672.921 20.85C672.711 20.93 672.536 21.005 672.396 21.075V27H671.001ZM681.607 27.165C681.077 27.165 680.652 27.085 680.332 26.925C680.022 26.765 679.797 26.49 679.657 26.1C679.527 25.7 679.462 25.14 679.462 24.42V20.67H678.442V19.485H679.462V17.28H680.842V19.485H683.077V20.67H680.842V24.03C680.842 24.52 680.862 24.905 680.902 25.185C680.952 25.455 681.047 25.645 681.187 25.755C681.327 25.865 681.547 25.92 681.847 25.92C681.947 25.92 682.072 25.92 682.222 25.92C682.372 25.91 682.527 25.9 682.687 25.89C682.847 25.87 682.987 25.855 683.107 25.845L683.182 26.985C682.952 27.025 682.682 27.065 682.372 27.105C682.062 27.145 681.807 27.165 681.607 27.165ZM686.1 27.15C685.39 27.15 684.85 26.955 684.48 26.565C684.11 26.175 683.925 25.6 683.925 24.84C683.925 24.33 684.015 23.92 684.195 23.61C684.375 23.29 684.64 23.05 684.99 22.89C685.35 22.73 685.795 22.635 686.325 22.605L688.5 22.395V21.81C688.5 21.34 688.395 21.01 688.185 20.82C687.975 20.62 687.66 20.52 687.24 20.52C686.98 20.52 686.675 20.53 686.325 20.55C685.975 20.57 685.63 20.595 685.29 20.625C684.95 20.655 684.645 20.685 684.375 20.715L684.315 19.695C684.565 19.635 684.86 19.58 685.2 19.53C685.55 19.48 685.915 19.435 686.295 19.395C686.675 19.355 687.025 19.335 687.345 19.335C687.935 19.335 688.42 19.42 688.8 19.59C689.18 19.76 689.46 20.025 689.64 20.385C689.82 20.745 689.91 21.21 689.91 21.78V25.47C689.93 25.67 690.01 25.82 690.15 25.92C690.3 26.01 690.485 26.07 690.705 26.1L690.66 27.135C690.44 27.135 690.23 27.125 690.03 27.105C689.84 27.095 689.665 27.065 689.505 27.015C689.345 26.975 689.2 26.92 689.07 26.85C688.95 26.77 688.835 26.68 688.725 26.58C688.545 26.66 688.31 26.745 688.02 26.835C687.73 26.925 687.42 27 687.09 27.06C686.76 27.12 686.43 27.15 686.1 27.15ZM686.385 26.04C686.635 26.04 686.89 26.015 687.15 25.965C687.42 25.915 687.675 25.86 687.915 25.8C688.155 25.73 688.35 25.67 688.5 25.62V23.37L686.505 23.565C686.085 23.595 685.785 23.715 685.605 23.925C685.425 24.125 685.335 24.415 685.335 24.795C685.335 25.185 685.42 25.49 685.59 25.71C685.77 25.93 686.035 26.04 686.385 26.04ZM694.857 27.15C694.047 27.15 693.412 27.02 692.952 26.76C692.492 26.49 692.167 26.06 691.977 25.47C691.787 24.88 691.692 24.105 691.692 23.145C691.692 22.215 691.797 21.475 692.007 20.925C692.217 20.365 692.557 19.96 693.027 19.71C693.497 19.46 694.112 19.335 694.872 19.335C695.052 19.335 695.267 19.35 695.517 19.38C695.777 19.4 696.037 19.43 696.297 19.47C696.567 19.51 696.797 19.545 696.987 19.575L696.942 20.715C696.772 20.695 696.572 20.675 696.342 20.655C696.112 20.635 695.892 20.62 695.682 20.61C695.472 20.59 695.297 20.58 695.157 20.58C694.617 20.58 694.197 20.665 693.897 20.835C693.607 21.005 693.402 21.275 693.282 21.645C693.172 22.015 693.117 22.515 693.117 23.145C693.117 23.825 693.167 24.37 693.267 24.78C693.377 25.18 693.577 25.47 693.867 25.65C694.157 25.82 694.587 25.905 695.157 25.905C695.297 25.905 695.472 25.9 695.682 25.89C695.902 25.87 696.127 25.85 696.357 25.83C696.597 25.81 696.802 25.795 696.972 25.785L697.017 26.925C696.817 26.955 696.582 26.985 696.312 27.015C696.052 27.055 695.792 27.085 695.532 27.105C695.272 27.135 695.047 27.15 694.857 27.15ZM701.104 27.165C700.574 27.165 700.149 27.085 699.829 26.925C699.519 26.765 699.294 26.49 699.154 26.1C699.024 25.7 698.959 25.14 698.959 24.42V20.67H697.939V19.485H698.959V17.28H700.339V19.485H702.574V20.67H700.339V24.03C700.339 24.52 700.359 24.905 700.399 25.185C700.449 25.455 700.544 25.645 700.684 25.755C700.824 25.865 701.044 25.92 701.344 25.92C701.444 25.92 701.569 25.92 701.719 25.92C701.869 25.91 702.024 25.9 702.184 25.89C702.344 25.87 702.484 25.855 702.604 25.845L702.679 26.985C702.449 27.025 702.179 27.065 701.869 27.105C701.559 27.145 701.304 27.165 701.104 27.165ZM709.478 27.15C708.828 27.15 708.328 27.02 707.978 26.76C707.638 26.49 707.403 26.08 707.273 25.53C707.143 24.98 707.078 24.27 707.078 23.4V19.485H708.473V23.385C708.473 24.005 708.503 24.5 708.563 24.87C708.623 25.24 708.753 25.505 708.953 25.665C709.163 25.825 709.473 25.905 709.883 25.905C710.283 25.905 710.648 25.85 710.978 25.74C711.318 25.63 711.593 25.525 711.803 25.425V19.485H713.183V27H711.803V26.49C711.483 26.67 711.138 26.825 710.768 26.955C710.408 27.085 709.978 27.15 709.478 27.15ZM717.655 27.15C717.395 27.15 717.095 27.135 716.755 27.105C716.425 27.075 716.095 27.04 715.765 27C715.445 26.95 715.165 26.9 714.925 26.85L714.985 25.725C715.235 25.755 715.52 25.79 715.84 25.83C716.16 25.87 716.47 25.905 716.77 25.935C717.08 25.955 717.325 25.965 717.505 25.965C717.885 25.965 718.2 25.93 718.45 25.86C718.7 25.79 718.89 25.675 719.02 25.515C719.15 25.345 719.215 25.115 719.215 24.825C719.215 24.595 719.165 24.42 719.065 24.3C718.965 24.17 718.78 24.065 718.51 23.985C718.24 23.895 717.845 23.81 717.325 23.73C716.765 23.64 716.3 23.53 715.93 23.4C715.56 23.26 715.285 23.05 715.105 22.77C714.925 22.49 714.835 22.1 714.835 21.6C714.835 21.02 714.965 20.57 715.225 20.25C715.495 19.92 715.84 19.685 716.26 19.545C716.69 19.405 717.14 19.335 717.61 19.335C717.91 19.335 718.23 19.35 718.57 19.38C718.92 19.41 719.255 19.45 719.575 19.5C719.895 19.55 720.17 19.595 720.4 19.635L720.355 20.775C720.115 20.735 719.835 20.7 719.515 20.67C719.195 20.63 718.875 20.6 718.555 20.58C718.235 20.56 717.955 20.55 717.715 20.55C717.435 20.55 717.18 20.58 716.95 20.64C716.73 20.69 716.555 20.79 716.425 20.94C716.305 21.08 716.245 21.285 716.245 21.555C716.245 21.755 716.29 21.915 716.38 22.035C716.47 22.155 716.65 22.26 716.92 22.35C717.19 22.43 717.575 22.51 718.075 22.59C718.695 22.69 719.19 22.815 719.56 22.965C719.93 23.115 720.2 23.33 720.37 23.61C720.54 23.89 720.625 24.275 720.625 24.765C720.625 25.655 720.36 26.275 719.83 26.625C719.31 26.975 718.585 27.15 717.655 27.15Z" fill="#3F3F3F"/>
<path d="M761.17 27V16.665H765.04C765.72 16.665 766.29 16.755 766.75 16.935C767.22 17.115 767.575 17.4 767.815 17.79C768.065 18.17 768.19 18.67 768.19 19.29C768.19 19.73 768.14 20.1 768.04 20.4C767.94 20.7 767.795 20.955 767.605 21.165C767.425 21.365 767.195 21.535 766.915 21.675C767.215 21.785 767.485 21.935 767.725 22.125C767.965 22.305 768.15 22.555 768.28 22.875C768.42 23.195 768.49 23.6 768.49 24.09C768.49 24.64 768.41 25.105 768.25 25.485C768.1 25.855 767.88 26.15 767.59 26.37C767.3 26.59 766.95 26.75 766.54 26.85C766.14 26.95 765.695 27 765.205 27H761.17ZM762.61 25.815H765.13C765.53 25.815 765.87 25.765 766.15 25.665C766.44 25.555 766.665 25.375 766.825 25.125C766.985 24.865 767.065 24.5 767.065 24.03C767.065 23.66 766.995 23.365 766.855 23.145C766.725 22.915 766.555 22.745 766.345 22.635C766.145 22.515 765.93 22.435 765.7 22.395C765.48 22.355 765.27 22.335 765.07 22.335H762.61V25.815ZM762.61 21.165H765.055C765.665 21.165 766.1 21.025 766.36 20.745C766.63 20.455 766.765 20.02 766.765 19.44C766.765 18.89 766.615 18.49 766.315 18.24C766.025 17.98 765.575 17.85 764.965 17.85H762.61V21.165ZM770.309 27V16.29H771.689V27H770.309ZM776.778 27.15C775.938 27.15 775.278 27.01 774.798 26.73C774.318 26.44 773.978 26 773.778 25.41C773.578 24.82 773.478 24.07 773.478 23.16C773.478 22.29 773.583 21.575 773.793 21.015C774.013 20.455 774.363 20.035 774.843 19.755C775.333 19.475 775.978 19.335 776.778 19.335C777.588 19.335 778.233 19.475 778.713 19.755C779.193 20.035 779.538 20.455 779.748 21.015C779.968 21.575 780.078 22.29 780.078 23.16C780.078 24.07 779.978 24.82 779.778 25.41C779.588 26 779.253 26.44 778.773 26.73C778.293 27.01 777.628 27.15 776.778 27.15ZM776.778 25.965C777.308 25.965 777.708 25.87 777.978 25.68C778.248 25.49 778.428 25.19 778.518 24.78C778.608 24.36 778.653 23.82 778.653 23.16C778.653 22.51 778.598 21.995 778.488 21.615C778.378 21.225 778.188 20.945 777.918 20.775C777.648 20.605 777.268 20.52 776.778 20.52C776.298 20.52 775.918 20.605 775.638 20.775C775.368 20.945 775.178 21.225 775.068 21.615C774.958 21.995 774.903 22.51 774.903 23.16C774.903 23.82 774.948 24.36 775.038 24.78C775.128 25.19 775.303 25.49 775.563 25.68C775.833 25.87 776.238 25.965 776.778 25.965ZM784.806 30.495C784.016 30.495 783.376 30.43 782.886 30.3C782.396 30.17 782.036 29.94 781.806 29.61C781.576 29.29 781.461 28.845 781.461 28.275C781.461 27.985 781.501 27.735 781.581 27.525C781.671 27.325 781.801 27.14 781.971 26.97C782.151 26.79 782.371 26.605 782.631 26.415C782.491 26.315 782.381 26.17 782.301 25.98C782.231 25.79 782.196 25.58 782.196 25.35C782.196 25.24 782.256 25.065 782.376 24.825C782.496 24.585 782.616 24.37 782.736 24.18C782.526 24.08 782.331 23.945 782.151 23.775C781.981 23.595 781.841 23.355 781.731 23.055C781.621 22.755 781.566 22.375 781.566 21.915C781.566 20.985 781.826 20.325 782.346 19.935C782.876 19.535 783.581 19.335 784.461 19.335C784.731 19.335 785.016 19.355 785.316 19.395C785.616 19.435 785.851 19.48 786.021 19.53L788.316 19.47V20.565L786.981 20.535C787.111 20.665 787.216 20.84 787.296 21.06C787.386 21.28 787.431 21.565 787.431 21.915C787.431 22.575 787.321 23.095 787.101 23.475C786.881 23.845 786.546 24.105 786.096 24.255C785.656 24.395 785.101 24.465 784.431 24.465C784.361 24.465 784.246 24.46 784.086 24.45C783.936 24.43 783.821 24.415 783.741 24.405C783.681 24.535 783.621 24.685 783.561 24.855C783.511 25.015 783.486 25.13 783.486 25.2C783.486 25.37 783.521 25.5 783.591 25.59C783.671 25.68 783.836 25.74 784.086 25.77C784.346 25.8 784.751 25.815 785.301 25.815C786.021 25.815 786.596 25.88 787.026 26.01C787.456 26.13 787.761 26.35 787.941 26.67C788.121 26.98 788.211 27.435 788.211 28.035C788.211 28.905 787.911 29.53 787.311 29.91C786.711 30.3 785.876 30.495 784.806 30.495ZM784.791 29.37C785.491 29.37 786.006 29.275 786.336 29.085C786.666 28.895 786.831 28.58 786.831 28.14C786.831 27.8 786.776 27.55 786.666 27.39C786.566 27.23 786.386 27.125 786.126 27.075C785.866 27.025 785.521 27 785.091 27C785.001 27 784.876 27 784.716 27C784.566 26.99 784.406 26.985 784.236 26.985C784.076 26.975 783.931 26.965 783.801 26.955C783.671 26.945 783.581 26.94 783.531 26.94C783.251 27.14 783.056 27.32 782.946 27.48C782.836 27.65 782.781 27.865 782.781 28.125C782.781 28.425 782.841 28.665 782.961 28.845C783.081 29.035 783.286 29.17 783.576 29.25C783.866 29.33 784.271 29.37 784.791 29.37ZM784.461 23.415C785.041 23.415 785.451 23.3 785.691 23.07C785.941 22.84 786.066 22.455 786.066 21.915C786.066 21.375 785.941 20.99 785.691 20.76C785.451 20.53 785.041 20.415 784.461 20.415C783.921 20.415 783.531 20.53 783.291 20.76C783.061 20.99 782.946 21.375 782.946 21.915C782.946 22.455 783.061 22.84 783.291 23.07C783.531 23.3 783.921 23.415 784.461 23.415Z" fill="#3F3F3F"/>
<rect x="1128.5" y="0.5" width="129" height="43" stroke="#8E8E8E"/>
<path d="M1172.42 28.16C1172.07 28.16 1171.68 28.1387 1171.23 28.096C1170.79 28.0533 1170.36 28 1169.94 27.936C1169.51 27.872 1169.14 27.8187 1168.82 27.776L1168.94 26.528C1169.25 26.56 1169.62 26.6027 1170.03 26.656C1170.46 26.6987 1170.87 26.736 1171.28 26.768C1171.69 26.8 1172.03 26.816 1172.32 26.816C1173.06 26.816 1173.6 26.656 1173.95 26.336C1174.31 26.016 1174.5 25.5147 1174.5 24.832C1174.5 24.4587 1174.42 24.1653 1174.27 23.952C1174.13 23.728 1173.89 23.552 1173.55 23.424C1173.21 23.2853 1172.75 23.1627 1172.18 23.056C1171.39 22.896 1170.74 22.704 1170.22 22.48C1169.71 22.256 1169.33 21.9413 1169.09 21.536C1168.84 21.12 1168.72 20.56 1168.72 19.856C1168.72 19.1093 1168.86 18.512 1169.15 18.064C1169.45 17.616 1169.87 17.2907 1170.42 17.088C1170.97 16.8853 1171.62 16.784 1172.35 16.784C1172.68 16.784 1173.06 16.8053 1173.47 16.848C1173.9 16.88 1174.31 16.9227 1174.72 16.976C1175.14 17.0293 1175.49 17.0827 1175.79 17.136L1175.68 18.4C1175.37 18.3573 1175.01 18.32 1174.59 18.288C1174.19 18.2453 1173.79 18.208 1173.41 18.176C1173.02 18.144 1172.71 18.128 1172.48 18.128C1171.74 18.128 1171.19 18.2613 1170.82 18.528C1170.45 18.784 1170.27 19.1893 1170.27 19.744C1170.27 20.1707 1170.35 20.496 1170.51 20.72C1170.67 20.944 1170.94 21.12 1171.31 21.248C1171.69 21.376 1172.18 21.5147 1172.78 21.664C1173.36 21.792 1173.85 21.9307 1174.26 22.08C1174.67 22.2293 1175.01 22.416 1175.28 22.64C1175.55 22.864 1175.74 23.1413 1175.86 23.472C1175.98 23.8027 1176.05 24.2187 1176.05 24.72C1176.05 25.5413 1175.9 26.2027 1175.6 26.704C1175.31 27.2053 1174.9 27.5733 1174.35 27.808C1173.81 28.0427 1173.16 28.16 1172.42 28.16ZM1177.81 28V19.984H1179.29V28H1177.81ZM1177.81 18.368V16.816H1179.29V18.368H1177.81ZM1184.65 31.728C1183.8 31.728 1183.12 31.6587 1182.6 31.52C1182.08 31.3813 1181.69 31.136 1181.45 30.784C1181.2 30.4427 1181.08 29.968 1181.08 29.36C1181.08 29.0507 1181.12 28.784 1181.21 28.56C1181.3 28.3467 1181.44 28.1493 1181.62 27.968C1181.82 27.776 1182.05 27.5787 1182.33 27.376C1182.18 27.2693 1182.06 27.1147 1181.98 26.912C1181.9 26.7093 1181.86 26.4853 1181.86 26.24C1181.86 26.1227 1181.93 25.936 1182.06 25.68C1182.18 25.424 1182.31 25.1947 1182.44 24.992C1182.22 24.8853 1182.01 24.7413 1181.82 24.56C1181.63 24.368 1181.48 24.112 1181.37 23.792C1181.25 23.472 1181.19 23.0667 1181.19 22.576C1181.19 21.584 1181.47 20.88 1182.02 20.464C1182.59 20.0373 1183.34 19.824 1184.28 19.824C1184.57 19.824 1184.87 19.8453 1185.19 19.888C1185.51 19.9307 1185.76 19.9787 1185.94 20.032L1188.39 19.968V21.136L1186.97 21.104C1187.11 21.2427 1187.22 21.4293 1187.3 21.664C1187.4 21.8987 1187.45 22.2027 1187.45 22.576C1187.45 23.28 1187.33 23.8347 1187.1 24.24C1186.86 24.6347 1186.5 24.912 1186.02 25.072C1185.55 25.2213 1184.96 25.296 1184.25 25.296C1184.17 25.296 1184.05 25.2907 1183.88 25.28C1183.72 25.2587 1183.6 25.2427 1183.51 25.232C1183.45 25.3707 1183.38 25.5307 1183.32 25.712C1183.27 25.8827 1183.24 26.0053 1183.24 26.08C1183.24 26.2613 1183.28 26.4 1183.35 26.496C1183.44 26.592 1183.61 26.656 1183.88 26.688C1184.16 26.72 1184.59 26.736 1185.18 26.736C1185.94 26.736 1186.56 26.8053 1187.02 26.944C1187.47 27.072 1187.8 27.3067 1187.99 27.648C1188.18 27.9787 1188.28 28.464 1188.28 29.104C1188.28 30.032 1187.96 30.6987 1187.32 31.104C1186.68 31.52 1185.79 31.728 1184.65 31.728ZM1184.63 30.528C1185.38 30.528 1185.93 30.4267 1186.28 30.224C1186.63 30.0213 1186.81 29.6853 1186.81 29.216C1186.81 28.8533 1186.75 28.5867 1186.63 28.416C1186.52 28.2453 1186.33 28.1333 1186.06 28.08C1185.78 28.0267 1185.41 28 1184.95 28C1184.86 28 1184.72 28 1184.55 28C1184.39 27.9893 1184.22 27.984 1184.04 27.984C1183.87 27.9733 1183.71 27.9627 1183.58 27.952C1183.44 27.9413 1183.34 27.936 1183.29 27.936C1182.99 28.1493 1182.78 28.3413 1182.66 28.512C1182.55 28.6933 1182.49 28.9227 1182.49 29.2C1182.49 29.52 1182.55 29.776 1182.68 29.968C1182.81 30.1707 1183.03 30.3147 1183.34 30.4C1183.64 30.4853 1184.08 30.528 1184.63 30.528ZM1184.28 24.176C1184.9 24.176 1185.34 24.0533 1185.59 23.808C1185.86 23.5627 1185.99 23.152 1185.99 22.576C1185.99 22 1185.86 21.5893 1185.59 21.344C1185.34 21.0987 1184.9 20.976 1184.28 20.976C1183.7 20.976 1183.29 21.0987 1183.03 21.344C1182.79 21.5893 1182.66 22 1182.66 22.576C1182.66 23.152 1182.79 23.5627 1183.03 23.808C1183.29 24.0533 1183.7 24.176 1184.28 24.176ZM1189.74 28V19.984H1191.23V20.544C1191.4 20.4373 1191.62 20.3307 1191.89 20.224C1192.15 20.1173 1192.44 20.0267 1192.74 19.952C1193.03 19.8667 1193.32 19.824 1193.6 19.824C1194.35 19.824 1194.92 19.9573 1195.31 20.224C1195.71 20.48 1195.98 20.9013 1196.13 21.488C1196.29 22.064 1196.37 22.8267 1196.37 23.776V28H1194.86V23.856C1194.86 23.1947 1194.83 22.6667 1194.75 22.272C1194.68 21.8773 1194.53 21.5947 1194.3 21.424C1194.08 21.2427 1193.74 21.152 1193.3 21.152C1193.05 21.152 1192.79 21.1787 1192.53 21.232C1192.27 21.2853 1192.03 21.3547 1191.79 21.44C1191.57 21.5253 1191.38 21.6053 1191.23 21.68V28H1189.74ZM1204.4 28.16C1203.7 28.16 1203.17 28.0213 1202.8 27.744C1202.43 27.456 1202.18 27.0187 1202.04 26.432C1201.91 25.8453 1201.84 25.088 1201.84 24.16V19.984H1203.32V24.144C1203.32 24.8053 1203.36 25.3333 1203.42 25.728C1203.48 26.1227 1203.62 26.4053 1203.84 26.576C1204.06 26.7467 1204.39 26.832 1204.83 26.832C1205.25 26.832 1205.64 26.7733 1206 26.656C1206.36 26.5387 1206.65 26.4267 1206.88 26.32V19.984H1208.35V28H1206.88V27.456C1206.53 27.648 1206.17 27.8133 1205.77 27.952C1205.39 28.0907 1204.93 28.16 1204.4 28.16ZM1210.51 31.488V19.984H1212V20.544C1212.16 20.448 1212.37 20.3467 1212.62 20.24C1212.88 20.1227 1213.15 20.0267 1213.44 19.952C1213.73 19.8667 1214 19.824 1214.27 19.824C1215.3 19.824 1216.06 20.1547 1216.53 20.816C1216.99 21.4667 1217.23 22.5013 1217.23 23.92C1217.23 24.9547 1217.11 25.7867 1216.86 26.416C1216.63 27.0347 1216.25 27.4827 1215.73 27.76C1215.21 28.0267 1214.55 28.16 1213.73 28.16C1213.41 28.16 1213.08 28.1387 1212.75 28.096C1212.43 28.0533 1212.18 28.016 1212 27.984V31.488H1210.51ZM1213.58 26.88C1214.11 26.88 1214.54 26.7787 1214.85 26.576C1215.17 26.3733 1215.39 26.0533 1215.52 25.616C1215.65 25.1787 1215.71 24.608 1215.71 23.904C1215.71 22.88 1215.56 22.1653 1215.26 21.76C1214.96 21.344 1214.54 21.136 1214 21.136C1213.76 21.136 1213.52 21.168 1213.26 21.232C1213.02 21.2853 1212.78 21.3547 1212.56 21.44C1212.33 21.5147 1212.15 21.6 1212 21.696V26.736C1212.16 26.7573 1212.39 26.7893 1212.69 26.832C1212.99 26.864 1213.29 26.88 1213.58 26.88Z" fill="#3F3F3F"/>
</svg>
