<svg width="194" height="133" viewBox="0 0 194 133" fill="none" xmlns="http://www.w3.org/2000/svg">
<path d="M22.9425 3.83325C12.3625 3.83325 3.77582 12.4199 3.77582 22.9999C3.77582 33.5799 12.3625 42.1666 22.9425 42.1666C33.5225 42.1666 42.1091 33.5799 42.1091 22.9999C42.1091 12.4199 33.5417 3.83325 22.9425 3.83325ZM33.35 31.4908C30.9925 34.8833 27.1208 36.8958 23 36.8958C18.8792 36.8958 15.0075 34.8833 12.65 31.4908C12.19 30.8391 12.3625 29.9383 13.0142 29.4974C13.6658 29.0374 14.5667 29.2099 15.0075 29.8616C16.8283 32.4683 19.8183 34.0399 23 34.0399C26.1817 34.0399 29.1716 32.4874 30.9925 29.8616C31.4525 29.2099 32.3341 29.0566 32.9858 29.4974C33.6566 29.9383 33.81 30.8391 33.35 31.4908Z" fill="#2995E2"/>
<path d="M61.3445 31V15.767H64.4223V22.1234H70.3326V15.767H73.4104V31H70.3326V24.7105H64.4223V31H61.3445ZM80.4606 31.2453C79.2265 31.2453 78.2452 31.0372 77.5166 30.6208C76.8029 30.2045 76.29 29.5726 75.9777 28.7251C75.6655 27.8776 75.5093 26.8145 75.5093 25.5358C75.5093 24.153 75.7026 23.0229 76.0892 22.1457C76.4907 21.2684 77.0706 20.6217 77.8289 20.2053C78.5872 19.7741 79.5239 19.5585 80.639 19.5585C82.2895 19.5585 83.531 19.9749 84.3636 20.8075C85.2112 21.6402 85.6349 22.956 85.6349 24.7552L85.5011 26.4056H78.498C78.5128 27.2382 78.6838 27.8627 79.0109 28.279C79.338 28.6954 79.903 28.9035 80.706 28.9035C81.1669 28.9035 81.6724 28.8961 82.2226 28.8812C82.7727 28.8515 83.3154 28.8217 83.8507 28.792C84.4008 28.7623 84.8692 28.7325 85.2558 28.7028L85.3227 30.777C84.951 30.8364 84.4826 30.9034 83.9176 30.9777C83.3526 31.052 82.7653 31.1115 82.1556 31.1561C81.5609 31.2156 80.9959 31.2453 80.4606 31.2453ZM78.498 24.5098H82.6686C82.6686 23.4987 82.5051 22.7925 82.178 22.391C81.8657 21.9896 81.3527 21.7888 80.639 21.7888C79.9402 21.7888 79.4049 21.997 79.0332 22.4133C78.6764 22.8297 78.498 23.5285 78.498 24.5098ZM87.6966 31V15.2318H90.6629V31H87.6966ZM93.2049 35.7059V19.8039H96.1489L96.1712 20.5176C96.3793 20.3838 96.6396 20.2425 96.9518 20.0938C97.2789 19.9451 97.6283 19.8187 98 19.7147C98.3718 19.6106 98.736 19.5585 99.0929 19.5585C100.595 19.5585 101.673 20.0418 102.327 21.0082C102.981 21.9598 103.308 23.4095 103.308 25.3573C103.308 26.755 103.145 27.885 102.817 28.7474C102.49 29.6098 101.963 30.2417 101.234 30.6432C100.52 31.0446 99.5761 31.2453 98.4015 31.2453C98.0298 31.2453 97.6283 31.2156 97.1971 31.1561C96.7659 31.0966 96.424 31.0372 96.1712 30.9777V35.7059H93.2049ZM97.9331 28.7697C98.5279 28.7697 98.9962 28.6433 99.3382 28.3905C99.6802 28.1378 99.9181 27.7586 100.052 27.2531C100.201 26.7327 100.275 26.0785 100.275 25.2904C100.275 24.0712 100.104 23.2311 99.762 22.7702C99.4349 22.2944 98.9591 22.0565 98.3346 22.0565C98.0967 22.0565 97.8439 22.0862 97.5763 22.1457C97.3086 22.2052 97.0484 22.2795 96.7957 22.3687C96.5429 22.4579 96.3347 22.5472 96.1712 22.6364V28.6136C96.3496 28.6284 96.6024 28.6582 96.9295 28.7028C97.2715 28.7474 97.606 28.7697 97.9331 28.7697ZM109.864 31.2453C108.63 31.2453 107.649 31.0372 106.92 30.6208C106.206 30.2045 105.693 29.5726 105.381 28.7251C105.069 27.8776 104.913 26.8145 104.913 25.5358C104.913 24.153 105.106 23.0229 105.493 22.1457C105.894 21.2684 106.474 20.6217 107.232 20.2053C107.991 19.7741 108.927 19.5585 110.042 19.5585C111.693 19.5585 112.934 19.9749 113.767 20.8075C114.615 21.6402 115.038 22.956 115.038 24.7552L114.905 26.4056H107.901C107.916 27.2382 108.087 27.8627 108.414 28.279C108.741 28.6954 109.306 28.9035 110.109 28.9035C110.57 28.9035 111.076 28.8961 111.626 28.8812C112.176 28.8515 112.719 28.8217 113.254 28.792C113.804 28.7623 114.273 28.7325 114.659 28.7028L114.726 30.777C114.354 30.8364 113.886 30.9034 113.321 30.9777C112.756 31.052 112.169 31.1115 111.559 31.1561C110.964 31.2156 110.399 31.2453 109.864 31.2453ZM107.901 24.5098H112.072C112.072 23.4987 111.908 22.7925 111.581 22.391C111.269 21.9896 110.756 21.7888 110.042 21.7888C109.344 21.7888 108.808 21.997 108.437 22.4133C108.08 22.8297 107.901 23.5285 107.901 24.5098ZM118.642 31L115.988 19.8039H119.177L121.051 28.4798H121.698L123.616 19.8039H126.626L123.972 31H118.642ZM132.537 31.2453C131.303 31.2453 130.322 31.0372 129.593 30.6208C128.88 30.2045 128.367 29.5726 128.054 28.7251C127.742 27.8776 127.586 26.8145 127.586 25.5358C127.586 24.153 127.779 23.0229 128.166 22.1457C128.567 21.2684 129.147 20.6217 129.906 20.2053C130.664 19.7741 131.601 19.5585 132.716 19.5585C134.366 19.5585 135.608 19.9749 136.44 20.8075C137.288 21.6402 137.712 22.956 137.712 24.7552L137.578 26.4056H130.575C130.59 27.2382 130.761 27.8627 131.088 28.279C131.415 28.6954 131.98 28.9035 132.783 28.9035C133.244 28.9035 133.749 28.8961 134.299 28.8812C134.849 28.8515 135.392 28.8217 135.927 28.792C136.478 28.7623 136.946 28.7325 137.332 28.7028L137.399 30.777C137.028 30.8364 136.559 30.9034 135.994 30.9777C135.429 31.052 134.842 31.1115 134.232 31.1561C133.638 31.2156 133.073 31.2453 132.537 31.2453ZM130.575 24.5098H134.745C134.745 23.4987 134.582 22.7925 134.255 22.391C133.942 21.9896 133.429 21.7888 132.716 21.7888C132.017 21.7888 131.482 21.997 131.11 22.4133C130.753 22.8297 130.575 23.5285 130.575 24.5098ZM139.684 31V19.8039H142.65V21.1198C142.903 20.9265 143.215 20.7257 143.587 20.5176C143.959 20.2945 144.36 20.0938 144.791 19.9154C145.238 19.7221 145.661 19.5957 146.063 19.5362V22.4133C145.676 22.4728 145.267 22.5769 144.836 22.7256C144.405 22.8594 143.996 23.0081 143.609 23.1716C143.238 23.3352 142.918 23.4839 142.65 23.6177V31H139.684ZM150.355 35.7059L151.783 31H149.396L146.742 19.8039H149.842L151.827 28.4798H152.407L154.392 19.8039H157.381L153.522 35.7059H150.355ZM163.603 31.2453C162.339 31.2453 161.32 31.0372 160.547 30.6208C159.789 30.2045 159.239 29.5652 158.897 28.7028C158.555 27.8255 158.384 26.6955 158.384 25.3127C158.384 23.9745 158.562 22.8891 158.919 22.0565C159.276 21.209 159.841 20.5845 160.614 20.183C161.387 19.7667 162.384 19.5585 163.603 19.5585C164.837 19.5585 165.833 19.7667 166.591 20.183C167.365 20.5845 167.93 21.209 168.286 22.0565C168.658 22.8891 168.844 23.9745 168.844 25.3127C168.844 26.6955 168.673 27.8255 168.331 28.7028C167.989 29.5652 167.432 30.2045 166.658 30.6208C165.9 31.0372 164.882 31.2453 163.603 31.2453ZM163.603 28.792C164.227 28.792 164.696 28.6805 165.008 28.4575C165.32 28.2196 165.528 27.8478 165.632 27.3423C165.751 26.8219 165.811 26.1454 165.811 25.3127C165.811 24.4949 165.744 23.8482 165.61 23.3724C165.476 22.8817 165.253 22.5323 164.941 22.3241C164.629 22.116 164.183 22.0119 163.603 22.0119C163.038 22.0119 162.592 22.116 162.265 22.3241C161.952 22.5323 161.729 22.8817 161.596 23.3724C161.462 23.8482 161.395 24.4949 161.395 25.3127C161.395 26.1454 161.447 26.8219 161.551 27.3423C161.67 27.8478 161.885 28.2196 162.198 28.4575C162.51 28.6805 162.978 28.792 163.603 28.792ZM170.873 31V19.8039H173.84V20.5176C174.078 20.3689 174.368 20.2276 174.71 20.0938C175.052 19.9451 175.408 19.8187 175.78 19.7147C176.167 19.6106 176.538 19.5585 176.895 19.5585C177.936 19.5585 178.739 19.7444 179.304 20.1161C179.884 20.473 180.293 21.0677 180.531 21.9004C180.769 22.7181 180.888 23.8184 180.888 25.2012V31H177.899V25.3573C177.899 24.5842 177.854 23.9671 177.765 23.5062C177.676 23.0304 177.505 22.6884 177.252 22.4802C176.999 22.2721 176.628 22.168 176.137 22.168C175.869 22.168 175.587 22.1977 175.289 22.2572C175.007 22.3018 174.732 22.3687 174.464 22.4579C174.211 22.5472 174.003 22.6364 173.84 22.7256V31H170.873ZM187.729 31.2453C186.495 31.2453 185.513 31.0372 184.785 30.6208C184.071 30.2045 183.558 29.5726 183.246 28.7251C182.933 27.8776 182.777 26.8145 182.777 25.5358C182.777 24.153 182.971 23.0229 183.357 22.1457C183.759 21.2684 184.339 20.6217 185.097 20.2053C185.855 19.7741 186.792 19.5585 187.907 19.5585C189.557 19.5585 190.799 19.9749 191.632 20.8075C192.479 21.6402 192.903 22.956 192.903 24.7552L192.769 26.4056H185.766C185.781 27.2382 185.952 27.8627 186.279 28.279C186.606 28.6954 187.171 28.9035 187.974 28.9035C188.435 28.9035 188.94 28.8961 189.491 28.8812C190.041 28.8515 190.583 28.8217 191.119 28.792C191.669 28.7623 192.137 28.7325 192.524 28.7028L192.591 30.777C192.219 30.8364 191.751 30.9034 191.186 30.9777C190.621 31.052 190.033 31.1115 189.424 31.1561C188.829 31.2156 188.264 31.2453 187.729 31.2453ZM185.766 24.5098H189.937C189.937 23.4987 189.773 22.7925 189.446 22.391C189.134 21.9896 188.621 21.7888 187.907 21.7888C187.208 21.7888 186.673 21.997 186.301 22.4133C185.944 22.8297 185.766 23.5285 185.766 24.5098Z" fill="#2995E2"/>
<path d="M2.603 86L0.399 73.023H3.04L4.636 83.473H5.092L7.068 73.156H10.013L12.027 83.473H12.483L13.984 73.023H16.644L14.478 86H10.317L8.474 75.702H8.569L6.707 86H2.603ZM21.3971 86.209C20.3458 86.209 19.5098 86.0317 18.8891 85.677C18.2811 85.3223 17.8441 84.784 17.5781 84.062C17.3121 83.34 17.1791 82.4343 17.1791 81.345C17.1791 80.167 17.3438 79.2043 17.6731 78.457C18.0151 77.7097 18.5091 77.1587 19.1551 76.804C19.8011 76.4367 20.5991 76.253 21.5491 76.253C22.9551 76.253 24.0128 76.6077 24.7221 77.317C25.4441 78.0263 25.8051 79.1473 25.8051 80.68L25.6911 82.086H19.7251C19.7378 82.7953 19.8835 83.3273 20.1621 83.682C20.4408 84.0367 20.9221 84.214 21.6061 84.214C21.9988 84.214 22.4295 84.2077 22.8981 84.195C23.3668 84.1697 23.8291 84.1443 24.2851 84.119C24.7538 84.0937 25.1528 84.0683 25.4821 84.043L25.5391 85.81C25.2225 85.8607 24.8235 85.9177 24.3421 85.981C23.8608 86.0443 23.3605 86.095 22.8411 86.133C22.3345 86.1837 21.8531 86.209 21.3971 86.209ZM19.7251 80.471H23.2781C23.2781 79.6097 23.1388 79.008 22.8601 78.666C22.5941 78.324 22.1571 78.153 21.5491 78.153C20.9538 78.153 20.4978 78.3303 20.1811 78.685C19.8771 79.0397 19.7251 79.635 19.7251 80.471ZM73.5417 86V73.023H82.1677V75.208H76.1637V78.362H81.0277V80.509H76.1637V83.815H82.1677V86H73.5417ZM85.2257 86L82.9647 76.462H85.6817L87.2777 83.853H87.8287L89.4627 76.462H92.0277L89.7667 86H85.2257ZM97.0631 86.209C96.0118 86.209 95.1758 86.0317 94.5551 85.677C93.9471 85.3223 93.5101 84.784 93.2441 84.062C92.9781 83.34 92.8451 82.4343 92.8451 81.345C92.8451 80.167 93.0098 79.2043 93.3391 78.457C93.6811 77.7097 94.1751 77.1587 94.8211 76.804C95.4671 76.4367 96.2651 76.253 97.2151 76.253C98.6211 76.253 99.6788 76.6077 100.388 77.317C101.11 78.0263 101.471 79.1473 101.471 80.68L101.357 82.086H95.3911C95.4038 82.7953 95.5495 83.3273 95.8281 83.682C96.1068 84.0367 96.5881 84.214 97.2721 84.214C97.6648 84.214 98.0955 84.2077 98.5641 84.195C99.0328 84.1697 99.4951 84.1443 99.9511 84.119C100.42 84.0937 100.819 84.0683 101.148 84.043L101.205 85.81C100.888 85.8607 100.489 85.9177 100.008 85.981C99.5268 86.0443 99.0265 86.095 98.5071 86.133C98.0005 86.1837 97.5191 86.209 97.0631 86.209ZM95.3911 80.471H98.9441C98.9441 79.6097 98.8048 79.008 98.5261 78.666C98.2601 78.324 97.8231 78.153 97.2151 78.153C96.6198 78.153 96.1638 78.3303 95.8471 78.685C95.5431 79.0397 95.3911 79.635 95.3911 80.471ZM103.151 86V76.462H105.678V77.583C105.894 77.4183 106.16 77.2473 106.476 77.07C106.793 76.88 107.135 76.709 107.502 76.557C107.882 76.3923 108.243 76.2847 108.585 76.234V78.685C108.256 78.7357 107.908 78.8243 107.54 78.951C107.173 79.065 106.825 79.1917 106.495 79.331C106.179 79.4703 105.906 79.597 105.678 79.711V86H103.151ZM112.242 90.009L113.458 86H111.425L109.164 76.462H111.805L113.496 83.853H113.99L115.681 76.462H118.227L114.94 90.009H112.242ZM123.528 86.209C122.451 86.209 121.584 86.0317 120.925 85.677C120.279 85.3223 119.81 84.7777 119.519 84.043C119.228 83.2957 119.082 82.333 119.082 81.155C119.082 80.015 119.234 79.0903 119.538 78.381C119.842 77.659 120.323 77.127 120.982 76.785C121.641 76.4303 122.489 76.253 123.528 76.253C124.579 76.253 125.428 76.4303 126.074 76.785C126.733 77.127 127.214 77.659 127.518 78.381C127.835 79.0903 127.993 80.015 127.993 81.155C127.993 82.333 127.847 83.2957 127.556 84.043C127.265 84.7777 126.79 85.3223 126.131 85.677C125.485 86.0317 124.617 86.209 123.528 86.209ZM123.528 84.119C124.06 84.119 124.459 84.024 124.725 83.834C124.991 83.6313 125.168 83.3147 125.257 82.884C125.358 82.4407 125.409 81.8643 125.409 81.155C125.409 80.4583 125.352 79.9073 125.238 79.502C125.124 79.084 124.934 78.7863 124.668 78.609C124.402 78.4317 124.022 78.343 123.528 78.343C123.047 78.343 122.667 78.4317 122.388 78.609C122.122 78.7863 121.932 79.084 121.818 79.502C121.704 79.9073 121.647 80.4583 121.647 81.155C121.647 81.8643 121.691 82.4407 121.78 82.884C121.881 83.3147 122.065 83.6313 122.331 83.834C122.597 84.024 122.996 84.119 123.528 84.119ZM129.722 86V76.462H132.249V77.07C132.451 76.9433 132.698 76.823 132.99 76.709C133.281 76.5823 133.585 76.4747 133.902 76.386C134.231 76.2973 134.548 76.253 134.852 76.253C135.738 76.253 136.422 76.4113 136.904 76.728C137.398 77.032 137.746 77.5387 137.949 78.248C138.151 78.9447 138.253 79.882 138.253 81.06V86H135.707V81.193C135.707 80.5343 135.669 80.0087 135.593 79.616C135.517 79.2107 135.371 78.9193 135.156 78.742C134.94 78.5647 134.624 78.476 134.206 78.476C133.978 78.476 133.737 78.5013 133.484 78.552C133.243 78.59 133.009 78.647 132.781 78.723C132.565 78.799 132.388 78.875 132.249 78.951V86H129.722ZM144.081 86.209C143.029 86.209 142.193 86.0317 141.573 85.677C140.965 85.3223 140.528 84.784 140.262 84.062C139.996 83.34 139.863 82.4343 139.863 81.345C139.863 80.167 140.027 79.2043 140.357 78.457C140.699 77.7097 141.193 77.1587 141.839 76.804C142.485 76.4367 143.283 76.253 144.233 76.253C145.639 76.253 146.696 76.6077 147.406 77.317C148.128 78.0263 148.489 79.1473 148.489 80.68L148.375 82.086H142.409C142.421 82.7953 142.567 83.3273 142.846 83.682C143.124 84.0367 143.606 84.214 144.29 84.214C144.682 84.214 145.113 84.2077 145.582 84.195C146.05 84.1697 146.513 84.1443 146.969 84.119C147.437 84.0937 147.836 84.0683 148.166 84.043L148.223 85.81C147.906 85.8607 147.507 85.9177 147.026 85.981C146.544 86.0443 146.044 86.095 145.525 86.133C145.018 86.1837 144.537 86.209 144.081 86.209ZM142.409 80.471H145.962C145.962 79.6097 145.822 79.008 145.544 78.666C145.278 78.324 144.841 78.153 144.233 78.153C143.637 78.153 143.181 78.3303 142.865 78.685C142.561 79.0397 142.409 79.635 142.409 80.471ZM1.197 122V109.023H3.819V114.438H8.854V109.023H11.476V122H8.854V116.642H3.819V122H1.197ZM17.4821 122.209C16.4307 122.209 15.5947 122.032 14.9741 121.677C14.3661 121.322 13.9291 120.784 13.6631 120.062C13.3971 119.34 13.2641 118.434 13.2641 117.345C13.2641 116.167 13.4287 115.204 13.7581 114.457C14.1001 113.71 14.5941 113.159 15.2401 112.804C15.8861 112.437 16.6841 112.253 17.6341 112.253C19.0401 112.253 20.0977 112.608 20.8071 113.317C21.5291 114.026 21.8901 115.147 21.8901 116.68L21.7761 118.086H15.8101C15.8227 118.795 15.9684 119.327 16.2471 119.682C16.5257 120.037 17.0071 120.214 17.6911 120.214C18.0837 120.214 18.5144 120.208 18.9831 120.195C19.4517 120.17 19.9141 120.144 20.3701 120.119C20.8387 120.094 21.2377 120.068 21.5671 120.043L21.6241 121.81C21.3074 121.861 20.9084 121.918 20.4271 121.981C19.9457 122.044 19.4454 122.095 18.9261 122.133C18.4194 122.184 17.9381 122.209 17.4821 122.209ZM15.8101 116.471H19.3631C19.3631 115.61 19.2237 115.008 18.9451 114.666C18.6791 114.324 18.2421 114.153 17.6341 114.153C17.0387 114.153 16.5827 114.33 16.2661 114.685C15.9621 115.04 15.8101 115.635 15.8101 116.471ZM23.5704 122V112.462H26.0974V113.583C26.3127 113.418 26.5787 113.247 26.8954 113.07C27.2121 112.88 27.5541 112.709 27.9214 112.557C28.3014 112.392 28.6624 112.285 29.0044 112.234V114.685C28.6751 114.736 28.3267 114.824 27.9594 114.951C27.5921 115.065 27.2437 115.192 26.9144 115.331C26.5977 115.47 26.3254 115.597 26.0974 115.711V122H23.5704ZM34.07 122.209C33.0186 122.209 32.1826 122.032 31.562 121.677C30.954 121.322 30.517 120.784 30.251 120.062C29.985 119.34 29.852 118.434 29.852 117.345C29.852 116.167 30.0166 115.204 30.346 114.457C30.688 113.71 31.182 113.159 31.828 112.804C32.474 112.437 33.272 112.253 34.222 112.253C35.628 112.253 36.6856 112.608 37.395 113.317C38.117 114.026 38.478 115.147 38.478 116.68L38.364 118.086H32.398C32.4106 118.795 32.5563 119.327 32.835 119.682C33.1136 120.037 33.595 120.214 34.279 120.214C34.6716 120.214 35.1023 120.208 35.571 120.195C36.0396 120.17 36.502 120.144 36.958 120.119C37.4266 120.094 37.8256 120.068 38.155 120.043L38.212 121.81C37.8953 121.861 37.4963 121.918 37.015 121.981C36.5336 122.044 36.0333 122.095 35.514 122.133C35.0073 122.184 34.526 122.209 34.07 122.209ZM32.398 116.471H35.951C35.951 115.61 35.8116 115.008 35.533 114.666C35.267 114.324 34.83 114.153 34.222 114.153C33.6266 114.153 33.1706 114.33 32.854 114.685C32.55 115.04 32.398 115.635 32.398 116.471ZM44.448 122V109.023H52.827V111.227H47.07V115.141H51.782V117.345H47.07V122H44.448ZM57.8258 122.209C56.7491 122.209 55.8814 122.032 55.2228 121.677C54.5768 121.322 54.1081 120.778 53.8168 120.043C53.5254 119.296 53.3798 118.333 53.3798 117.155C53.3798 116.015 53.5318 115.09 53.8358 114.381C54.1398 113.659 54.6211 113.127 55.2798 112.785C55.9384 112.43 56.7871 112.253 57.8258 112.253C58.8771 112.253 59.7258 112.43 60.3718 112.785C61.0304 113.127 61.5118 113.659 61.8158 114.381C62.1324 115.09 62.2908 116.015 62.2908 117.155C62.2908 118.333 62.1451 119.296 61.8538 120.043C61.5624 120.778 61.0874 121.322 60.4288 121.677C59.7828 122.032 58.9151 122.209 57.8258 122.209ZM57.8258 120.119C58.3578 120.119 58.7568 120.024 59.0228 119.834C59.2888 119.631 59.4661 119.315 59.5548 118.884C59.6561 118.441 59.7068 117.864 59.7068 117.155C59.7068 116.458 59.6498 115.907 59.5358 115.502C59.4218 115.084 59.2318 114.786 58.9658 114.609C58.6998 114.432 58.3198 114.343 57.8258 114.343C57.3444 114.343 56.9644 114.432 56.6858 114.609C56.4198 114.786 56.2298 115.084 56.1158 115.502C56.0018 115.907 55.9448 116.458 55.9448 117.155C55.9448 117.864 55.9891 118.441 56.0778 118.884C56.1791 119.315 56.3628 119.631 56.6288 119.834C56.8948 120.024 57.2938 120.119 57.8258 120.119ZM64.0196 122V112.462H66.5466V113.583C66.7619 113.418 67.0279 113.247 67.3446 113.07C67.6613 112.88 68.0033 112.709 68.3706 112.557C68.7506 112.392 69.1116 112.285 69.4536 112.234V114.685C69.1243 114.736 68.7759 114.824 68.4086 114.951C68.0413 115.065 67.6929 115.192 67.3636 115.331C67.0469 115.47 66.7746 115.597 66.5466 115.711V122H64.0196ZM74.0942 122L77.4002 109.023H81.9792L85.2662 122H82.6442L81.9222 119.378H77.3812L76.6972 122H74.0942ZM77.7992 117.269H81.5422L80.0792 111.151H79.2812L77.7992 117.269Z" fill="#242424"/>
<path d="M31.7751 86V73.023H34.3971V78.438H39.4321V73.023H42.0541V86H39.4321V80.642H34.3971V86H31.7751ZM48.0602 86.209C47.0089 86.209 46.1729 86.0317 45.5522 85.677C44.9442 85.3223 44.5072 84.784 44.2412 84.062C43.9752 83.34 43.8422 82.4343 43.8422 81.345C43.8422 80.167 44.0069 79.2043 44.3362 78.457C44.6782 77.7097 45.1722 77.1587 45.8182 76.804C46.4642 76.4367 47.2622 76.253 48.2122 76.253C49.6182 76.253 50.6759 76.6077 51.3852 77.317C52.1072 78.0263 52.4682 79.1473 52.4682 80.68L52.3542 82.086H46.3882C46.4009 82.7953 46.5465 83.3273 46.8252 83.682C47.1039 84.0367 47.5852 84.214 48.2692 84.214C48.6619 84.214 49.0925 84.2077 49.5612 84.195C50.0299 84.1697 50.4922 84.1443 50.9482 84.119C51.4169 84.0937 51.8159 84.0683 52.1452 84.043L52.2022 85.81C51.8855 85.8607 51.4865 85.9177 51.0052 85.981C50.5239 86.0443 50.0235 86.095 49.5042 86.133C48.9975 86.1837 48.5162 86.209 48.0602 86.209ZM46.3882 80.471H49.9412C49.9412 79.6097 49.8019 79.008 49.5232 78.666C49.2572 78.324 48.8202 78.153 48.2122 78.153C47.6169 78.153 47.1609 78.3303 46.8442 78.685C46.5402 79.0397 46.3882 79.635 46.3882 80.471ZM54.2245 86V72.567H56.7515V86H54.2245ZM58.9171 90.009V76.462H61.4251L61.4441 77.07C61.6214 76.956 61.8431 76.8357 62.1091 76.709C62.3877 76.5823 62.6854 76.4747 63.0021 76.386C63.3187 76.2973 63.6291 76.253 63.9331 76.253C65.2124 76.253 66.1307 76.6647 66.6881 77.488C67.2454 78.2987 67.5241 79.5337 67.5241 81.193C67.5241 82.3837 67.3847 83.3463 67.1061 84.081C66.8274 84.8157 66.3777 85.354 65.7571 85.696C65.1491 86.038 64.3447 86.209 63.3441 86.209C63.0274 86.209 62.6854 86.1837 62.3181 86.133C61.9507 86.0823 61.6594 86.0317 61.4441 85.981V90.009H58.9171ZM62.9451 84.1C63.4517 84.1 63.8507 83.9923 64.1421 83.777C64.4334 83.5617 64.6361 83.2387 64.7501 82.808C64.8767 82.3647 64.9401 81.8073 64.9401 81.136C64.9401 80.0973 64.7944 79.3817 64.5031 78.989C64.2244 78.5837 63.8191 78.381 63.2871 78.381C63.0844 78.381 62.8691 78.4063 62.6411 78.457C62.4131 78.5077 62.1914 78.571 61.9761 78.647C61.7607 78.723 61.5834 78.799 61.4441 78.875V83.967C61.5961 83.9797 61.8114 84.005 62.0901 84.043C62.3814 84.081 62.6664 84.1 62.9451 84.1ZM90.8347 122V109.023H96.0027C96.864 109.023 97.605 109.131 98.2257 109.346C98.8464 109.561 99.3277 109.91 99.6697 110.391C100.024 110.86 100.202 111.493 100.202 112.291C100.202 112.836 100.145 113.298 100.031 113.678C99.9294 114.045 99.7647 114.362 99.5367 114.628C99.3214 114.881 99.0364 115.116 98.6817 115.331C99.0617 115.47 99.391 115.66 99.6697 115.901C99.961 116.129 100.183 116.439 100.335 116.832C100.487 117.212 100.563 117.719 100.563 118.352C100.563 119.049 100.455 119.631 100.24 120.1C100.024 120.569 99.714 120.942 99.3087 121.221C98.916 121.5 98.4537 121.702 97.9217 121.829C97.3897 121.943 96.807 122 96.1737 122H90.8347ZM93.4567 120.062H95.9837C96.427 120.062 96.7944 120.011 97.0857 119.91C97.3897 119.796 97.6177 119.6 97.7697 119.321C97.9344 119.042 98.0167 118.656 98.0167 118.162C98.0167 117.782 97.9534 117.472 97.8267 117.231C97.7 116.99 97.5354 116.813 97.3327 116.699C97.13 116.572 96.902 116.484 96.6487 116.433C96.408 116.382 96.1674 116.357 95.9267 116.357H93.4567V120.062ZM93.4567 114.495H95.9077C96.5537 114.495 97.016 114.343 97.2947 114.039C97.586 113.735 97.7317 113.273 97.7317 112.652C97.7317 112.057 97.5734 111.626 97.2567 111.36C96.9527 111.094 96.4714 110.961 95.8127 110.961H93.4567V114.495ZM106.173 122.209C105.122 122.209 104.286 122.032 103.665 121.677C103.057 121.322 102.62 120.784 102.354 120.062C102.088 119.34 101.955 118.434 101.955 117.345C101.955 116.167 102.12 115.204 102.449 114.457C102.791 113.71 103.285 113.159 103.931 112.804C104.577 112.437 105.375 112.253 106.325 112.253C107.731 112.253 108.789 112.608 109.498 113.317C110.22 114.026 110.581 115.147 110.581 116.68L110.467 118.086H104.501C104.514 118.795 104.66 119.327 104.938 119.682C105.217 120.037 105.698 120.214 106.382 120.214C106.775 120.214 107.206 120.208 107.674 120.195C108.143 120.17 108.605 120.144 109.061 120.119C109.53 120.094 109.929 120.068 110.258 120.043L110.315 121.81C109.999 121.861 109.6 121.918 109.118 121.981C108.637 122.044 108.137 122.095 107.617 122.133C107.111 122.184 106.629 122.209 106.173 122.209ZM104.501 116.471H108.054C108.054 115.61 107.915 115.008 107.636 114.666C107.37 114.324 106.933 114.153 106.325 114.153C105.73 114.153 105.274 114.33 104.957 114.685C104.653 115.04 104.501 115.635 104.501 116.471ZM115.569 122.228C114.872 122.228 114.308 122.127 113.878 121.924C113.447 121.721 113.137 121.373 112.947 120.879C112.769 120.372 112.681 119.669 112.681 118.77V114.571H111.56V112.462H112.681V109.935H115.208V112.462H117.64V114.571H115.208V118.105C115.208 118.599 115.227 118.985 115.265 119.264C115.315 119.543 115.417 119.739 115.569 119.853C115.721 119.967 115.955 120.024 116.272 120.024C116.36 120.024 116.493 120.018 116.671 120.005C116.848 119.992 117.025 119.98 117.203 119.967C117.38 119.954 117.526 119.942 117.64 119.929L117.716 121.962C117.412 122.013 117.044 122.07 116.614 122.133C116.196 122.196 115.847 122.228 115.569 122.228ZM122.397 122.228C121.7 122.228 121.136 122.127 120.706 121.924C120.275 121.721 119.965 121.373 119.775 120.879C119.597 120.372 119.509 119.669 119.509 118.77V114.571H118.388V112.462H119.509V109.935H122.036V112.462H124.468V114.571H122.036V118.105C122.036 118.599 122.055 118.985 122.093 119.264C122.143 119.543 122.245 119.739 122.397 119.853C122.549 119.967 122.783 120.024 123.1 120.024C123.188 120.024 123.321 120.018 123.499 120.005C123.676 119.992 123.853 119.98 124.031 119.967C124.208 119.954 124.354 119.942 124.468 119.929L124.544 121.962C124.24 122.013 123.872 122.07 123.442 122.133C123.024 122.196 122.675 122.228 122.397 122.228ZM129.738 122.209C128.687 122.209 127.851 122.032 127.23 121.677C126.622 121.322 126.185 120.784 125.919 120.062C125.653 119.34 125.52 118.434 125.52 117.345C125.52 116.167 125.685 115.204 126.014 114.457C126.356 113.71 126.85 113.159 127.496 112.804C128.142 112.437 128.94 112.253 129.89 112.253C131.296 112.253 132.354 112.608 133.063 113.317C133.785 114.026 134.146 115.147 134.146 116.68L134.032 118.086H128.066C128.079 118.795 128.224 119.327 128.503 119.682C128.782 120.037 129.263 120.214 129.947 120.214C130.34 120.214 130.77 120.208 131.239 120.195C131.708 120.17 132.17 120.144 132.626 120.119C133.095 120.094 133.494 120.068 133.823 120.043L133.88 121.81C133.563 121.861 133.164 121.918 132.683 121.981C132.202 122.044 131.701 122.095 131.182 122.133C130.675 122.184 130.194 122.209 129.738 122.209ZM128.066 116.471H131.619C131.619 115.61 131.48 115.008 131.201 114.666C130.935 114.324 130.498 114.153 129.89 114.153C129.295 114.153 128.839 114.33 128.522 114.685C128.218 115.04 128.066 115.635 128.066 116.471ZM135.826 122V112.462H138.353V113.583C138.569 113.418 138.835 113.247 139.151 113.07C139.468 112.88 139.81 112.709 140.177 112.557C140.557 112.392 140.918 112.285 141.26 112.234V114.685C140.931 114.736 140.583 114.824 140.215 114.951C139.848 115.065 139.5 115.192 139.17 115.331C138.854 115.47 138.581 115.597 138.353 115.711V122H135.826ZM146.87 122V109.023H149.492V119.777H154.622V122H146.87ZM155.884 122V112.462H158.411V122H155.884ZM155.884 110.942V108.776H158.43V110.942H155.884ZM160.903 122V114.571H159.953V112.462H160.903V111.911C160.903 111.012 160.985 110.302 161.15 109.783C161.327 109.264 161.625 108.896 162.043 108.681C162.461 108.466 163.024 108.358 163.734 108.358C163.936 108.358 164.177 108.371 164.456 108.396C164.747 108.409 165.026 108.428 165.292 108.453C165.558 108.478 165.76 108.504 165.9 108.529L165.881 110.467C165.678 110.467 165.45 110.467 165.197 110.467C164.956 110.454 164.747 110.448 164.57 110.448C164.291 110.448 164.063 110.492 163.886 110.581C163.721 110.67 163.601 110.815 163.525 111.018C163.461 111.221 163.43 111.512 163.43 111.892V112.462H165.71V114.571H163.43V122H160.903ZM170.799 122.209C169.748 122.209 168.912 122.032 168.291 121.677C167.683 121.322 167.246 120.784 166.98 120.062C166.714 119.34 166.581 118.434 166.581 117.345C166.581 116.167 166.746 115.204 167.075 114.457C167.417 113.71 167.911 113.159 168.557 112.804C169.203 112.437 170.001 112.253 170.951 112.253C172.357 112.253 173.415 112.608 174.124 113.317C174.846 114.026 175.207 115.147 175.207 116.68L175.093 118.086H169.127C169.14 118.795 169.286 119.327 169.564 119.682C169.843 120.037 170.324 120.214 171.008 120.214C171.401 120.214 171.832 120.208 172.3 120.195C172.769 120.17 173.231 120.144 173.687 120.119C174.156 120.094 174.555 120.068 174.884 120.043L174.941 121.81C174.625 121.861 174.226 121.918 173.744 121.981C173.263 122.044 172.763 122.095 172.243 122.133C171.737 122.184 171.255 122.209 170.799 122.209ZM169.127 116.471H172.68C172.68 115.61 172.541 115.008 172.262 114.666C171.996 114.324 171.559 114.153 170.951 114.153C170.356 114.153 169.9 114.33 169.583 114.685C169.279 115.04 169.127 115.635 169.127 116.471Z" fill="#2995E2"/>
</svg>
