<svg width="1179" height="30" viewBox="0 0 1179 30" fill="none" xmlns="http://www.w3.org/2000/svg">
<path d="M4.992 21.16C4.14933 21.16 3.46133 21.0427 2.928 20.808C2.40533 20.5627 1.98933 20.2 1.68 19.72C1.38133 19.24 1.17333 18.648 1.056 17.944C0.949333 17.24 0.896 16.424 0.896 15.496C0.896 14.5573 0.949333 13.7307 1.056 13.016C1.17333 12.3013 1.38133 11.704 1.68 11.224C1.98933 10.744 2.41067 10.3867 2.944 10.152C3.47733 9.90667 4.16 9.784 4.992 9.784C5.376 9.784 5.75467 9.80533 6.128 9.848C6.512 9.88 6.86933 9.928 7.2 9.992C7.54133 10.0453 7.82933 10.0987 8.064 10.152L8.016 11.32C7.78133 11.2773 7.49333 11.2347 7.152 11.192C6.82133 11.1493 6.48 11.1173 6.128 11.096C5.776 11.064 5.456 11.048 5.168 11.048C4.57067 11.048 4.08533 11.1333 3.712 11.304C3.34933 11.4747 3.06667 11.7467 2.864 12.12C2.672 12.4827 2.53867 12.9467 2.464 13.512C2.38933 14.0667 2.352 14.728 2.352 15.496C2.352 16.2533 2.38933 16.9147 2.464 17.48C2.53867 18.0347 2.672 18.4933 2.864 18.856C3.056 19.208 3.33867 19.4747 3.712 19.656C4.08533 19.8267 4.576 19.912 5.184 19.912C5.632 19.912 6.12267 19.8853 6.656 19.832C7.18933 19.768 7.64267 19.704 8.016 19.64L8.064 20.824C7.808 20.8773 7.50933 20.9307 7.168 20.984C6.82667 21.0373 6.464 21.08 6.08 21.112C5.70667 21.144 5.344 21.16 4.992 21.16ZM12.7713 21.16C11.8753 21.16 11.1713 21.0053 10.6593 20.696C10.1579 20.3867 9.80592 19.9227 9.60325 19.304C9.40058 18.6747 9.29925 17.8747 9.29925 16.904C9.29925 15.9867 9.41125 15.2293 9.63525 14.632C9.85925 14.024 10.2273 13.576 10.7393 13.288C11.2513 12.9893 11.9286 12.84 12.7713 12.84C13.6246 12.84 14.3073 12.9893 14.8193 13.288C15.3313 13.576 15.6993 14.024 15.9233 14.632C16.1473 15.2293 16.2593 15.9867 16.2593 16.904C16.2593 17.8747 16.1526 18.6747 15.9393 19.304C15.7366 19.9227 15.3846 20.3867 14.8833 20.696C14.3819 21.0053 13.6779 21.16 12.7713 21.16ZM12.7713 19.992C13.3686 19.992 13.8166 19.8907 14.1153 19.688C14.4139 19.4747 14.6113 19.1387 14.7073 18.68C14.8033 18.2213 14.8513 17.6293 14.8513 16.904C14.8513 16.1893 14.7873 15.6187 14.6593 15.192C14.5419 14.7653 14.3339 14.4613 14.0353 14.28C13.7366 14.0987 13.3153 14.008 12.7713 14.008C12.2379 14.008 11.8166 14.0987 11.5073 14.28C11.2086 14.4613 10.9953 14.7653 10.8673 15.192C10.7499 15.6187 10.6913 16.1893 10.6913 16.904C10.6913 17.6293 10.7393 18.2213 10.8353 18.68C10.9313 19.1387 11.1286 19.4747 11.4273 19.688C11.7259 19.8907 12.1739 19.992 12.7713 19.992ZM18.1513 24.52V13H19.4953V13.56C19.6659 13.4533 19.8793 13.3467 20.1353 13.24C20.3913 13.1227 20.6633 13.0267 20.9513 12.952C21.2499 12.8773 21.5379 12.84 21.8153 12.84C22.8393 12.84 23.5859 13.1653 24.0553 13.816C24.5246 14.4667 24.7593 15.496 24.7593 16.904C24.7593 17.9493 24.6366 18.7867 24.3913 19.416C24.1566 20.0347 23.7779 20.4827 23.2553 20.76C22.7433 21.0267 22.0766 21.16 21.2552 21.16C20.9353 21.16 20.6046 21.1387 20.2633 21.096C19.9326 21.0533 19.6766 21.016 19.4953 20.984V24.52H18.1513ZM21.1432 19.976C21.7086 19.976 22.1513 19.8747 22.4713 19.672C22.7913 19.4587 23.0153 19.128 23.1433 18.68C23.2819 18.2213 23.3513 17.6293 23.3513 16.904C23.3513 15.8587 23.1966 15.1227 22.8873 14.696C22.5779 14.2587 22.1459 14.04 21.5913 14.04C21.3459 14.04 21.0899 14.072 20.8233 14.136C20.5673 14.2 20.3219 14.2747 20.0873 14.36C19.8526 14.4453 19.6553 14.536 19.4953 14.632V19.832C19.6659 19.8533 19.9059 19.8853 20.2153 19.928C20.5353 19.96 20.8446 19.976 21.1432 19.976ZM28.2223 24.52L29.2623 21H27.9983L25.7903 13H27.1663L29.0543 19.832H29.5823L31.4703 13H32.8463L29.6143 24.52H28.2223ZM34.3231 21V13H35.6671V14.056C35.8698 13.9173 36.1205 13.768 36.4191 13.608C36.7285 13.4373 37.0645 13.2773 37.4271 13.128C37.7898 12.9787 38.1525 12.8773 38.5151 12.824V14.184C38.1631 14.2587 37.8058 14.3547 37.4431 14.472C37.0805 14.5893 36.7445 14.7173 36.4351 14.856C36.1258 14.9947 35.8698 15.1173 35.6671 15.224V21H34.3231ZM39.8856 21V13H41.2296V21H39.8856ZM39.8856 11.304V9.816H41.2296V11.304H39.8856ZM46.5998 24.744C45.7678 24.744 45.0958 24.6747 44.5838 24.536C44.0718 24.3973 43.6931 24.152 43.4478 23.8C43.2131 23.448 43.0958 22.968 43.0958 22.36C43.0958 22.0507 43.1438 21.784 43.2398 21.56C43.3358 21.3467 43.4744 21.1493 43.6558 20.968C43.8371 20.776 44.0664 20.5787 44.3438 20.376C44.2051 20.2693 44.0931 20.12 44.0078 19.928C43.9331 19.7253 43.8958 19.5013 43.8958 19.256C43.8958 19.1387 43.9598 18.952 44.0878 18.696C44.2158 18.4293 44.3384 18.1947 44.4557 17.992C44.2318 17.8853 44.0238 17.7413 43.8318 17.56C43.6504 17.368 43.5011 17.112 43.3838 16.792C43.2664 16.472 43.2078 16.0667 43.2078 15.576C43.2078 14.5947 43.4851 13.896 44.0398 13.48C44.6051 13.0533 45.3411 12.84 46.2478 12.84C46.5358 12.84 46.8398 12.8613 47.1598 12.904C47.4798 12.9467 47.7304 12.9893 47.9118 13.032L50.3278 12.984V14.088L48.8558 14.056C49.0051 14.2053 49.1278 14.4027 49.2238 14.648C49.3198 14.8827 49.3678 15.192 49.3678 15.576C49.3678 16.28 49.2504 16.8293 49.0158 17.224C48.7811 17.6187 48.4291 17.896 47.9598 18.056C47.5011 18.216 46.9198 18.296 46.2158 18.296C46.1411 18.296 46.0131 18.2907 45.8318 18.28C45.6611 18.2587 45.5331 18.2427 45.4478 18.232C45.3944 18.3707 45.3358 18.536 45.2718 18.728C45.2078 18.9093 45.1758 19.032 45.1758 19.096C45.1758 19.2987 45.2131 19.4533 45.2878 19.56C45.3624 19.656 45.5384 19.72 45.8158 19.752C46.0931 19.784 46.5251 19.8 47.1118 19.8C47.8691 19.8 48.4771 19.864 48.9358 19.992C49.3944 20.12 49.7198 20.3547 49.9118 20.696C50.1144 21.0267 50.2158 21.512 50.2158 22.152C50.2158 23.0693 49.8958 23.7307 49.2558 24.136C48.6264 24.5413 47.7411 24.744 46.5998 24.744ZM46.5998 23.624C47.3784 23.624 47.9491 23.512 48.3118 23.288C48.6744 23.0747 48.8558 22.7227 48.8558 22.232C48.8558 21.8587 48.7918 21.5813 48.6638 21.4C48.5464 21.2293 48.3491 21.112 48.0718 21.048C47.7944 20.9947 47.4211 20.968 46.9518 20.968C46.8451 20.968 46.7064 20.968 46.5358 20.968C46.3758 20.9573 46.2051 20.952 46.0238 20.952C45.8531 20.9413 45.6931 20.9307 45.5438 20.92C45.4051 20.9093 45.3091 20.904 45.2558 20.904C44.9358 21.128 44.7171 21.3307 44.5998 21.512C44.4824 21.6933 44.4238 21.9333 44.4238 22.232C44.4238 22.5627 44.4824 22.8293 44.5998 23.032C44.7278 23.2347 44.9518 23.384 45.2718 23.48C45.5918 23.576 46.0344 23.624 46.5998 23.624ZM46.2478 17.224C46.8878 17.224 47.3411 17.1013 47.6078 16.856C47.8744 16.6 48.0078 16.1733 48.0078 15.576C48.0078 14.9787 47.8744 14.552 47.6078 14.296C47.3411 14.04 46.8878 13.912 46.2478 13.912C45.6504 13.912 45.2184 14.04 44.9518 14.296C44.6958 14.552 44.5678 14.9787 44.5678 15.576C44.5678 16.1733 44.6958 16.6 44.9518 16.856C45.2184 17.1013 45.6504 17.224 46.2478 17.224ZM51.7294 21V9.544H53.0734V13.416C53.3507 13.288 53.7187 13.16 54.1774 13.032C54.636 12.904 55.0734 12.84 55.4894 12.84C56.2254 12.84 56.7907 12.9733 57.1854 13.24C57.58 13.496 57.8467 13.912 57.9854 14.488C58.1347 15.064 58.2094 15.8213 58.2094 16.76V21H56.8494V16.824C56.8494 16.152 56.8067 15.6133 56.7214 15.208C56.6467 14.8027 56.4974 14.5093 56.2734 14.328C56.0494 14.1467 55.6974 14.056 55.2174 14.056C54.8334 14.056 54.4387 14.1093 54.0334 14.216C53.6387 14.312 53.3187 14.408 53.0734 14.504V21H51.7294ZM62.9631 21.176C62.4085 21.176 61.9658 21.0907 61.6351 20.92C61.3045 20.7493 61.0645 20.456 60.9151 20.04C60.7765 19.6133 60.7071 19.016 60.7071 18.248V14.168H59.6031V13H60.7071V10.6H62.0671V13H64.5151V14.168H62.0671V17.864C62.0671 18.408 62.0885 18.8347 62.1311 19.144C62.1845 19.4427 62.2858 19.656 62.4351 19.784C62.5951 19.9013 62.8405 19.96 63.1711 19.96C63.2778 19.96 63.4111 19.9547 63.5711 19.944C63.7418 19.9333 63.9125 19.9227 64.0831 19.912C64.2645 19.8907 64.4191 19.8747 64.5471 19.864L64.6271 21C64.3925 21.032 64.1098 21.0693 63.7791 21.112C63.4591 21.1547 63.1871 21.176 62.9631 21.176ZM76.4237 24.264C75.2184 24.264 74.1624 24.1413 73.2558 23.896C72.3491 23.6613 71.5864 23.2613 70.9678 22.696C70.3598 22.1413 69.9011 21.384 69.5918 20.424C69.2931 19.464 69.1438 18.264 69.1438 16.824C69.1438 15.5013 69.3038 14.3707 69.6238 13.432C69.9438 12.4933 70.4184 11.7307 71.0478 11.144C71.6771 10.5467 72.4398 10.1147 73.3358 9.848C74.2424 9.57067 75.2718 9.432 76.4237 9.432C78.0344 9.432 79.3464 9.67733 80.3598 10.168C81.3838 10.648 82.1358 11.384 82.6158 12.376C83.0958 13.368 83.3358 14.6107 83.3358 16.104V16.328C83.3358 17.128 83.2931 17.8107 83.2078 18.376C83.1224 18.9413 82.9998 19.4 82.8398 19.752C82.6798 20.104 82.4824 20.376 82.2478 20.568C82.0131 20.76 81.7464 20.8987 81.4478 20.984C81.1491 21.0587 80.8238 21.096 80.4718 21.096C79.8958 21.096 79.4478 20.9893 79.1278 20.776C78.8078 20.552 78.6104 20.3387 78.5358 20.136C78.3224 20.264 78.0558 20.4027 77.7358 20.552C77.4264 20.7013 77.1011 20.8293 76.7598 20.936C76.4184 21.032 76.0984 21.08 75.7998 21.08C75.4371 21.08 75.0851 21.032 74.7438 20.936C74.4024 20.8293 74.0931 20.6373 73.8158 20.36C73.5491 20.0827 73.3358 19.6773 73.1758 19.144C73.0158 18.6107 72.9358 17.9173 72.9358 17.064C72.9358 16.168 73.0318 15.4107 73.2238 14.792C73.4264 14.1733 73.7571 13.7093 74.2158 13.4C74.6851 13.08 75.3304 12.92 76.1518 12.92C76.4398 12.92 76.7598 12.968 77.1118 13.064C77.4744 13.1493 77.7678 13.2453 77.9918 13.352V13.08H79.3518V16.136C79.3518 17 79.3624 17.688 79.3838 18.2C79.4051 18.712 79.4531 19.096 79.5278 19.352C79.6024 19.5973 79.7198 19.7573 79.8798 19.832C80.0398 19.9067 80.2531 19.944 80.5198 19.944C80.7544 19.944 80.9624 19.912 81.1438 19.848C81.3251 19.7733 81.4798 19.6187 81.6078 19.384C81.7358 19.1387 81.8318 18.776 81.8958 18.296C81.9598 17.8053 81.9918 17.1493 81.9918 16.328V16.088C81.9918 15.128 81.8904 14.3067 81.6878 13.624C81.4851 12.9307 81.1598 12.36 80.7118 11.912C80.2638 11.464 79.6878 11.1333 78.9838 10.92C78.2798 10.7067 77.4264 10.6 76.4237 10.6C75.4318 10.6 74.5571 10.7173 73.7998 10.952C73.0531 11.1867 72.4291 11.5547 71.9278 12.056C71.4371 12.5573 71.0691 13.2027 70.8238 13.992C70.5784 14.7707 70.4557 15.7147 70.4557 16.824C70.4557 17.9973 70.5678 18.984 70.7918 19.784C71.0264 20.584 71.3838 21.224 71.8638 21.704C72.3438 22.1947 72.9624 22.5467 73.7198 22.76C74.4771 22.9733 75.3784 23.08 76.4237 23.08C76.5944 23.08 76.8131 23.0693 77.0798 23.048C77.3571 23.0373 77.6398 23.0213 77.9278 23C78.2264 22.9787 78.4878 22.9573 78.7118 22.936L78.7598 24.12C78.5464 24.1413 78.2958 24.1627 78.0078 24.184C77.7198 24.2053 77.4318 24.2213 77.1438 24.232C76.8664 24.2533 76.6264 24.264 76.4237 24.264ZM75.9118 19.88C76.1251 19.88 76.3651 19.848 76.6318 19.784C76.9091 19.7093 77.1758 19.6187 77.4318 19.512C77.6984 19.3947 77.9278 19.288 78.1198 19.192C78.0984 18.968 78.0771 18.712 78.0558 18.424C78.0344 18.136 78.0184 17.832 78.0078 17.512C77.9971 17.1813 77.9918 16.8613 77.9918 16.552V14.424C77.7891 14.3493 77.5384 14.28 77.2398 14.216C76.9411 14.152 76.6691 14.12 76.4237 14.12C75.8478 14.12 75.4051 14.232 75.0958 14.456C74.7971 14.6693 74.5891 14.9947 74.4718 15.432C74.3651 15.8693 74.3118 16.4187 74.3118 17.08C74.3118 17.6667 74.3544 18.1467 74.4398 18.52C74.5358 18.8827 74.6584 19.1653 74.8078 19.368C74.9678 19.56 75.1384 19.6933 75.3198 19.768C75.5118 19.8427 75.7091 19.88 75.9118 19.88ZM88.6036 21V19.832L91.5476 16.744C91.9956 16.2747 92.3796 15.8587 92.6996 15.496C93.0196 15.1333 93.265 14.776 93.4356 14.424C93.6063 14.072 93.6916 13.6933 93.6916 13.288C93.6916 12.616 93.505 12.1573 93.1316 11.912C92.769 11.656 92.2143 11.528 91.4676 11.528C91.1903 11.528 90.881 11.5493 90.5396 11.592C90.209 11.624 89.8836 11.6667 89.5636 11.72C89.2543 11.7627 88.993 11.8107 88.7796 11.864L88.6676 10.712C88.9023 10.648 89.185 10.584 89.5156 10.52C89.8463 10.456 90.209 10.4027 90.6036 10.36C90.9983 10.3067 91.3823 10.28 91.7556 10.28C92.8756 10.28 93.7183 10.5093 94.2836 10.968C94.8596 11.416 95.1476 12.136 95.1476 13.128C95.1476 13.6507 95.0623 14.1253 94.8916 14.552C94.7316 14.968 94.4863 15.3733 94.1556 15.768C93.8356 16.1627 93.4196 16.6053 92.9076 17.096L90.2356 19.784H95.3876V21H88.6036ZM100.933 21.16C100.314 21.16 99.7651 21.0747 99.2851 20.904C98.8051 20.7333 98.3945 20.4453 98.0531 20.04C97.7225 19.6347 97.4718 19.0907 97.3011 18.408C97.1305 17.7253 97.0451 16.8773 97.0451 15.864C97.0451 14.7973 97.1251 13.9013 97.2851 13.176C97.4558 12.4507 97.7065 11.8747 98.0371 11.448C98.3785 11.0213 98.7891 10.7173 99.2691 10.536C99.7491 10.3547 100.298 10.264 100.917 10.264C101.557 10.264 102.117 10.3547 102.597 10.536C103.077 10.7173 103.477 11.0213 103.797 11.448C104.128 11.8747 104.378 12.4507 104.549 13.176C104.72 13.8907 104.805 14.7867 104.805 15.864C104.805 17.208 104.65 18.264 104.341 19.032C104.032 19.8 103.589 20.3493 103.013 20.68C102.448 21 101.754 21.16 100.933 21.16ZM100.933 19.928C101.328 19.928 101.674 19.8693 101.973 19.752C102.282 19.624 102.538 19.4107 102.741 19.112C102.944 18.8027 103.093 18.3867 103.189 17.864C103.296 17.3307 103.349 16.664 103.349 15.864C103.349 15 103.301 14.2907 103.205 13.736C103.109 13.1707 102.96 12.7227 102.757 12.392C102.565 12.0613 102.314 11.832 102.005 11.704C101.706 11.5653 101.349 11.496 100.933 11.496C100.517 11.496 100.154 11.5653 99.8451 11.704C99.5465 11.832 99.2958 12.0613 99.0931 12.392C98.8905 12.712 98.7358 13.1547 98.6291 13.72C98.5331 14.2853 98.4851 15.0053 98.4851 15.88C98.4851 16.68 98.5385 17.3467 98.6451 17.88C98.7518 18.4027 98.9118 18.8133 99.1251 19.112C99.3385 19.4107 99.5945 19.624 99.8931 19.752C100.192 19.8693 100.538 19.928 100.933 19.928ZM106.479 21V19.832L109.423 16.744C109.871 16.2747 110.255 15.8587 110.575 15.496C110.895 15.1333 111.14 14.776 111.311 14.424C111.481 14.072 111.567 13.6933 111.567 13.288C111.567 12.616 111.38 12.1573 111.007 11.912C110.644 11.656 110.089 11.528 109.343 11.528C109.065 11.528 108.756 11.5493 108.415 11.592C108.084 11.624 107.759 11.6667 107.439 11.72C107.129 11.7627 106.868 11.8107 106.655 11.864L106.543 10.712C106.777 10.648 107.06 10.584 107.391 10.52C107.721 10.456 108.084 10.4027 108.479 10.36C108.873 10.3067 109.257 10.28 109.631 10.28C110.751 10.28 111.593 10.5093 112.159 10.968C112.735 11.416 113.023 12.136 113.023 13.128C113.023 13.6507 112.937 14.1253 112.767 14.552C112.607 14.968 112.361 15.3733 112.031 15.768C111.711 16.1627 111.295 16.6053 110.783 17.096L108.111 19.784H113.263V21H106.479ZM119.224 21V11.992L116.568 13.736L115.96 12.68L119.336 10.44H120.632V21H119.224ZM128.077 21V9.96H129.485V14.84H134.861V9.96H136.269V21H134.861V16.072H129.485V21H128.077ZM141.484 21.16C140.674 21.16 140.034 21.0053 139.564 20.696C139.095 20.3867 138.754 19.928 138.54 19.32C138.338 18.712 138.236 17.9547 138.236 17.048C138.236 16.0453 138.375 15.2347 138.652 14.616C138.93 13.9973 139.319 13.5493 139.82 13.272C140.332 12.984 140.94 12.84 141.644 12.84C142.732 12.84 143.548 13.1387 144.092 13.736C144.647 14.3227 144.924 15.2667 144.924 16.568L144.86 17.56H139.628C139.639 18.3493 139.788 18.952 140.076 19.368C140.364 19.7733 140.887 19.976 141.644 19.976C141.943 19.976 142.274 19.9707 142.636 19.96C142.999 19.9387 143.356 19.9173 143.708 19.896C144.071 19.8747 144.375 19.8533 144.62 19.832L144.652 20.888C144.396 20.9307 144.082 20.9733 143.708 21.016C143.335 21.0587 142.951 21.0907 142.556 21.112C142.172 21.144 141.815 21.16 141.484 21.16ZM139.628 16.488H143.548C143.548 15.5493 143.399 14.8933 143.1 14.52C142.802 14.136 142.316 13.944 141.644 13.944C140.994 13.944 140.492 14.1413 140.14 14.536C139.799 14.9307 139.628 15.5813 139.628 16.488ZM146.794 21V9.544H148.154V21H146.794ZM150.479 24.52V13H151.823V13.56C151.994 13.4533 152.207 13.3467 152.463 13.24C152.719 13.1227 152.991 13.0267 153.279 12.952C153.578 12.8773 153.866 12.84 154.143 12.84C155.167 12.84 155.914 13.1653 156.383 13.816C156.853 14.4667 157.087 15.496 157.087 16.904C157.087 17.9493 156.965 18.7867 156.719 19.416C156.485 20.0347 156.106 20.4827 155.583 20.76C155.071 21.0267 154.405 21.16 153.583 21.16C153.263 21.16 152.933 21.1387 152.591 21.096C152.261 21.0533 152.005 21.016 151.823 20.984V24.52H150.479ZM153.471 19.976C154.037 19.976 154.479 19.8747 154.799 19.672C155.119 19.4587 155.343 19.128 155.471 18.68C155.61 18.2213 155.679 17.6293 155.679 16.904C155.679 15.8587 155.525 15.1227 155.215 14.696C154.906 14.2587 154.474 14.04 153.919 14.04C153.674 14.04 153.418 14.072 153.151 14.136C152.895 14.2 152.65 14.2747 152.415 14.36C152.181 14.4453 151.983 14.536 151.823 14.632V19.832C151.994 19.8533 152.234 19.8853 152.543 19.928C152.863 19.96 153.173 19.976 153.471 19.976ZM161.844 21.16C161.033 21.16 160.393 21.0053 159.924 20.696C159.454 20.3867 159.113 19.928 158.9 19.32C158.697 18.712 158.596 17.9547 158.596 17.048C158.596 16.0453 158.734 15.2347 159.012 14.616C159.289 13.9973 159.678 13.5493 160.18 13.272C160.692 12.984 161.3 12.84 162.004 12.84C163.092 12.84 163.908 13.1387 164.452 13.736C165.006 14.3227 165.284 15.2667 165.284 16.568L165.22 17.56H159.988C159.998 18.3493 160.148 18.952 160.436 19.368C160.724 19.7733 161.246 19.976 162.004 19.976C162.302 19.976 162.633 19.9707 162.996 19.96C163.358 19.9387 163.716 19.9173 164.068 19.896C164.43 19.8747 164.734 19.8533 164.98 19.832L165.012 20.888C164.756 20.9307 164.441 20.9733 164.068 21.016C163.694 21.0587 163.31 21.0907 162.916 21.112C162.532 21.144 162.174 21.16 161.844 21.16ZM159.988 16.488H163.908C163.908 15.5493 163.758 14.8933 163.46 14.52C163.161 14.136 162.676 13.944 162.004 13.944C161.353 13.944 160.852 14.1413 160.5 14.536C160.158 14.9307 159.988 15.5813 159.988 16.488ZM168.419 21L166.227 13H167.699L169.459 19.832H170.035L171.859 13H173.267L171.075 21H168.419ZM177.5 21.16C176.689 21.16 176.049 21.0053 175.58 20.696C175.111 20.3867 174.769 19.928 174.556 19.32C174.353 18.712 174.252 17.9547 174.252 17.048C174.252 16.0453 174.391 15.2347 174.668 14.616C174.945 13.9973 175.335 13.5493 175.836 13.272C176.348 12.984 176.956 12.84 177.66 12.84C178.748 12.84 179.564 13.1387 180.108 13.736C180.663 14.3227 180.94 15.2667 180.94 16.568L180.876 17.56H175.644C175.655 18.3493 175.804 18.952 176.092 19.368C176.38 19.7733 176.903 19.976 177.66 19.976C177.959 19.976 178.289 19.9707 178.652 19.96C179.015 19.9387 179.372 19.9173 179.724 19.896C180.087 19.8747 180.391 19.8533 180.636 19.832L180.668 20.888C180.412 20.9307 180.097 20.9733 179.724 21.016C179.351 21.0587 178.967 21.0907 178.572 21.112C178.188 21.144 177.831 21.16 177.5 21.16ZM175.644 16.488H179.564C179.564 15.5493 179.415 14.8933 179.116 14.52C178.817 14.136 178.332 13.944 177.66 13.944C177.009 13.944 176.508 14.1413 176.156 14.536C175.815 14.9307 175.644 15.5813 175.644 16.488ZM182.729 21V13H184.073V14.056C184.276 13.9173 184.527 13.768 184.825 13.608C185.135 13.4373 185.471 13.2773 185.833 13.128C186.196 12.9787 186.559 12.8773 186.921 12.824V14.184C186.569 14.2587 186.212 14.3547 185.849 14.472C185.487 14.5893 185.151 14.7173 184.841 14.856C184.532 14.9947 184.276 15.1173 184.073 15.224V21H182.729ZM189.988 24.52L191.028 21H189.764L187.556 13H188.932L190.82 19.832H191.348L193.236 13H194.612L191.38 24.52H189.988ZM199.099 21.16C198.203 21.16 197.499 21.0053 196.987 20.696C196.486 20.3867 196.134 19.9227 195.931 19.304C195.729 18.6747 195.627 17.8747 195.627 16.904C195.627 15.9867 195.739 15.2293 195.963 14.632C196.187 14.024 196.555 13.576 197.067 13.288C197.579 12.9893 198.257 12.84 199.099 12.84C199.953 12.84 200.635 12.9893 201.147 13.288C201.659 13.576 202.027 14.024 202.251 14.632C202.475 15.2293 202.587 15.9867 202.587 16.904C202.587 17.8747 202.481 18.6747 202.267 19.304C202.065 19.9227 201.713 20.3867 201.211 20.696C200.71 21.0053 200.006 21.16 199.099 21.16ZM199.099 19.992C199.697 19.992 200.145 19.8907 200.443 19.688C200.742 19.4747 200.939 19.1387 201.035 18.68C201.131 18.2213 201.179 17.6293 201.179 16.904C201.179 16.1893 201.115 15.6187 200.987 15.192C200.87 14.7653 200.662 14.4613 200.363 14.28C200.065 14.0987 199.643 14.008 199.099 14.008C198.566 14.008 198.145 14.0987 197.835 14.28C197.537 14.4613 197.323 14.7653 197.195 15.192C197.078 15.6187 197.019 16.1893 197.019 16.904C197.019 17.6293 197.067 18.2213 197.163 18.68C197.259 19.1387 197.457 19.4747 197.755 19.688C198.054 19.8907 198.502 19.992 199.099 19.992ZM204.479 21V13H205.823V13.544C206.005 13.4373 206.229 13.3307 206.495 13.224C206.773 13.1173 207.061 13.0267 207.359 12.952C207.669 12.8773 207.962 12.84 208.239 12.84C208.975 12.84 209.541 12.9733 209.935 13.24C210.33 13.496 210.602 13.912 210.751 14.488C210.901 15.064 210.975 15.8267 210.975 16.776V21H209.615V16.824C209.615 16.152 209.573 15.6133 209.487 15.208C209.413 14.8027 209.258 14.5093 209.023 14.328C208.799 14.1467 208.447 14.056 207.967 14.056C207.711 14.056 207.445 14.088 207.167 14.152C206.901 14.2053 206.65 14.2747 206.415 14.36C206.181 14.4453 205.983 14.5307 205.823 14.616V21H204.479ZM216 21.16C215.189 21.16 214.549 21.0053 214.08 20.696C213.611 20.3867 213.269 19.928 213.056 19.32C212.853 18.712 212.752 17.9547 212.752 17.048C212.752 16.0453 212.891 15.2347 213.168 14.616C213.445 13.9973 213.835 13.5493 214.336 13.272C214.848 12.984 215.456 12.84 216.16 12.84C217.248 12.84 218.064 13.1387 218.608 13.736C219.163 14.3227 219.44 15.2667 219.44 16.568L219.376 17.56H214.144C214.155 18.3493 214.304 18.952 214.592 19.368C214.88 19.7733 215.403 19.976 216.16 19.976C216.459 19.976 216.789 19.9707 217.152 19.96C217.515 19.9387 217.872 19.9173 218.224 19.896C218.587 19.8747 218.891 19.8533 219.136 19.832L219.168 20.888C218.912 20.9307 218.597 20.9733 218.224 21.016C217.851 21.0587 217.467 21.0907 217.072 21.112C216.688 21.144 216.331 21.16 216 21.16ZM214.144 16.488H218.064C218.064 15.5493 217.915 14.8933 217.616 14.52C217.317 14.136 216.832 13.944 216.16 13.944C215.509 13.944 215.008 14.1413 214.656 14.536C214.315 14.9307 214.144 15.5813 214.144 16.488ZM224.921 21V9.96H226.329V19.752H231.097V21H224.921ZM232.577 21V9.96H233.985V19.752H238.753V21H232.577ZM243.805 21.16C242.962 21.16 242.274 21.0427 241.741 20.808C241.218 20.5627 240.802 20.2 240.493 19.72C240.194 19.24 239.986 18.648 239.868 17.944C239.762 17.24 239.709 16.424 239.709 15.496C239.709 14.5573 239.762 13.7307 239.868 13.016C239.986 12.3013 240.194 11.704 240.493 11.224C240.802 10.744 241.223 10.3867 241.757 10.152C242.29 9.90667 242.973 9.784 243.805 9.784C244.189 9.784 244.567 9.80533 244.941 9.848C245.325 9.88 245.682 9.928 246.013 9.992C246.354 10.0453 246.642 10.0987 246.877 10.152L246.829 11.32C246.594 11.2773 246.306 11.2347 245.965 11.192C245.634 11.1493 245.293 11.1173 244.941 11.096C244.589 11.064 244.269 11.048 243.981 11.048C243.383 11.048 242.898 11.1333 242.525 11.304C242.162 11.4747 241.879 11.7467 241.677 12.12C241.485 12.4827 241.351 12.9467 241.277 13.512C241.202 14.0667 241.164 14.728 241.164 15.496C241.164 16.2533 241.202 16.9147 241.277 17.48C241.351 18.0347 241.485 18.4933 241.677 18.856C241.869 19.208 242.151 19.4747 242.525 19.656C242.898 19.8267 243.389 19.912 243.997 19.912C244.445 19.912 244.935 19.8853 245.469 19.832C246.002 19.768 246.455 19.704 246.829 19.64L246.877 20.824C246.621 20.8773 246.322 20.9307 245.981 20.984C245.639 21.0373 245.277 21.08 244.893 21.112C244.519 21.144 244.157 21.16 243.805 21.16ZM251.368 21L254.344 9.96H257.272L260.248 21H258.84L258.072 18.28H253.528L252.76 21H251.368ZM253.8 17.064H257.8L256.2 11.144H255.4L253.8 17.064ZM261.778 21V9.544H263.138V21H261.778ZM265.544 21V9.544H266.904V21H265.544ZM272.921 21V9.96H277.049C277.849 9.96 278.516 10.0773 279.049 10.312C279.582 10.5467 279.982 10.9147 280.249 11.416C280.526 11.9173 280.665 12.5627 280.665 13.352C280.665 14.1627 280.505 14.8453 280.185 15.4C279.865 15.944 279.369 16.3333 278.697 16.568L280.745 21H279.209L277.321 16.872H274.329V21H272.921ZM274.329 15.656H277.081C277.604 15.656 278.02 15.56 278.329 15.368C278.649 15.1653 278.873 14.8933 279.001 14.552C279.14 14.2 279.209 13.8053 279.209 13.368C279.209 12.632 279.033 12.0827 278.681 11.72C278.329 11.3573 277.785 11.176 277.049 11.176H274.329V15.656ZM282.604 21V13H283.948V21H282.604ZM282.604 11.304V9.816H283.948V11.304H282.604ZM289.319 24.744C288.487 24.744 287.815 24.6747 287.303 24.536C286.791 24.3973 286.412 24.152 286.167 23.8C285.932 23.448 285.815 22.968 285.815 22.36C285.815 22.0507 285.863 21.784 285.959 21.56C286.055 21.3467 286.193 21.1493 286.375 20.968C286.556 20.776 286.785 20.5787 287.062 20.376C286.924 20.2693 286.812 20.12 286.727 19.928C286.652 19.7253 286.615 19.5013 286.615 19.256C286.615 19.1387 286.679 18.952 286.807 18.696C286.935 18.4293 287.057 18.1947 287.174 17.992C286.951 17.8853 286.743 17.7413 286.551 17.56C286.369 17.368 286.22 17.112 286.103 16.792C285.985 16.472 285.927 16.0667 285.927 15.576C285.927 14.5947 286.204 13.896 286.759 13.48C287.324 13.0533 288.06 12.84 288.967 12.84C289.255 12.84 289.559 12.8613 289.879 12.904C290.199 12.9467 290.449 12.9893 290.631 13.032L293.047 12.984V14.088L291.575 14.056C291.724 14.2053 291.847 14.4027 291.943 14.648C292.039 14.8827 292.087 15.192 292.087 15.576C292.087 16.28 291.969 16.8293 291.735 17.224C291.5 17.6187 291.148 17.896 290.679 18.056C290.22 18.216 289.639 18.296 288.935 18.296C288.86 18.296 288.732 18.2907 288.551 18.28C288.38 18.2587 288.252 18.2427 288.167 18.232C288.113 18.3707 288.055 18.536 287.991 18.728C287.927 18.9093 287.895 19.032 287.895 19.096C287.895 19.2987 287.932 19.4533 288.007 19.56C288.081 19.656 288.257 19.72 288.535 19.752C288.812 19.784 289.244 19.8 289.831 19.8C290.588 19.8 291.196 19.864 291.655 19.992C292.113 20.12 292.439 20.3547 292.631 20.696C292.833 21.0267 292.935 21.512 292.935 22.152C292.935 23.0693 292.615 23.7307 291.975 24.136C291.345 24.5413 290.46 24.744 289.319 24.744ZM289.319 23.624C290.097 23.624 290.668 23.512 291.031 23.288C291.393 23.0747 291.575 22.7227 291.575 22.232C291.575 21.8587 291.511 21.5813 291.383 21.4C291.265 21.2293 291.068 21.112 290.791 21.048C290.513 20.9947 290.14 20.968 289.671 20.968C289.564 20.968 289.425 20.968 289.255 20.968C289.095 20.9573 288.924 20.952 288.743 20.952C288.572 20.9413 288.412 20.9307 288.263 20.92C288.124 20.9093 288.028 20.904 287.975 20.904C287.655 21.128 287.436 21.3307 287.319 21.512C287.201 21.6933 287.143 21.9333 287.143 22.232C287.143 22.5627 287.201 22.8293 287.319 23.032C287.447 23.2347 287.671 23.384 287.991 23.48C288.311 23.576 288.753 23.624 289.319 23.624ZM288.967 17.224C289.607 17.224 290.06 17.1013 290.327 16.856C290.593 16.6 290.727 16.1733 290.727 15.576C290.727 14.9787 290.593 14.552 290.327 14.296C290.06 14.04 289.607 13.912 288.967 13.912C288.369 13.912 287.937 14.04 287.671 14.296C287.415 14.552 287.287 14.9787 287.287 15.576C287.287 16.1733 287.415 16.6 287.671 16.856C287.937 17.1013 288.369 17.224 288.967 17.224ZM294.448 21V9.544H295.792V13.416C296.069 13.288 296.437 13.16 296.896 13.032C297.355 12.904 297.792 12.84 298.208 12.84C298.944 12.84 299.509 12.9733 299.904 13.24C300.299 13.496 300.565 13.912 300.704 14.488C300.853 15.064 300.928 15.8213 300.928 16.76V21H299.568V16.824C299.568 16.152 299.525 15.6133 299.44 15.208C299.365 14.8027 299.216 14.5093 298.992 14.328C298.768 14.1467 298.416 14.056 297.936 14.056C297.552 14.056 297.157 14.1093 296.752 14.216C296.357 14.312 296.037 14.408 295.792 14.504V21H294.448ZM305.682 21.176C305.127 21.176 304.685 21.0907 304.354 20.92C304.023 20.7493 303.783 20.456 303.634 20.04C303.495 19.6133 303.426 19.016 303.426 18.248V14.168H302.322V13H303.426V10.6H304.786V13H307.234V14.168H304.786V17.864C304.786 18.408 304.807 18.8347 304.85 19.144C304.903 19.4427 305.005 19.656 305.154 19.784C305.314 19.9013 305.559 19.96 305.89 19.96C305.997 19.96 306.13 19.9547 306.29 19.944C306.461 19.9333 306.631 19.9227 306.802 19.912C306.983 19.8907 307.138 19.8747 307.266 19.864L307.346 21C307.111 21.032 306.829 21.0693 306.498 21.112C306.178 21.1547 305.906 21.176 305.682 21.176ZM311.211 21.16C310.955 21.16 310.646 21.144 310.283 21.112C309.931 21.08 309.584 21.0427 309.243 21C308.902 20.9467 308.598 20.8987 308.331 20.856L308.411 19.704C308.678 19.736 308.976 19.7733 309.307 19.816C309.648 19.8587 309.979 19.896 310.299 19.928C310.619 19.9493 310.88 19.96 311.083 19.96C311.499 19.96 311.846 19.9227 312.123 19.848C312.4 19.7733 312.608 19.6453 312.747 19.464C312.896 19.2827 312.971 19.0213 312.971 18.68C312.971 18.424 312.912 18.2267 312.795 18.088C312.688 17.9493 312.486 17.832 312.187 17.736C311.899 17.64 311.472 17.5547 310.907 17.48C310.31 17.384 309.808 17.2613 309.403 17.112C309.008 16.9627 308.715 16.744 308.523 16.456C308.342 16.168 308.251 15.7573 308.251 15.224C308.251 14.616 308.39 14.1413 308.667 13.8C308.944 13.448 309.307 13.2027 309.755 13.064C310.203 12.9147 310.672 12.84 311.163 12.84C311.472 12.84 311.808 12.856 312.171 12.888C312.534 12.92 312.886 12.9627 313.227 13.016C313.568 13.0587 313.862 13.1013 314.107 13.144L314.075 14.296C313.819 14.2533 313.515 14.216 313.163 14.184C312.822 14.1413 312.48 14.1093 312.139 14.088C311.798 14.056 311.499 14.04 311.243 14.04C310.934 14.04 310.656 14.072 310.411 14.136C310.166 14.2 309.968 14.3173 309.819 14.488C309.68 14.648 309.611 14.872 309.611 15.16C309.611 15.384 309.664 15.5653 309.771 15.704C309.878 15.8427 310.075 15.96 310.363 16.056C310.651 16.1413 311.072 16.232 311.627 16.328C312.288 16.4347 312.816 16.568 313.211 16.728C313.616 16.888 313.91 17.1173 314.091 17.416C314.272 17.704 314.363 18.1093 314.363 18.632C314.363 19.5813 314.08 20.2427 313.515 20.616C312.96 20.9787 312.192 21.16 311.211 21.16ZM319.827 21V9.96H323.955C324.755 9.96 325.422 10.0773 325.955 10.312C326.489 10.5467 326.889 10.9147 327.155 11.416C327.433 11.9173 327.571 12.5627 327.571 13.352C327.571 14.1627 327.411 14.8453 327.091 15.4C326.771 15.944 326.275 16.3333 325.603 16.568L327.651 21H326.115L324.227 16.872H321.235V21H319.827ZM321.235 15.656H323.987C324.51 15.656 324.926 15.56 325.235 15.368C325.555 15.1653 325.779 14.8933 325.907 14.552C326.046 14.2 326.115 13.8053 326.115 13.368C326.115 12.632 325.939 12.0827 325.587 11.72C325.235 11.3573 324.691 11.176 323.955 11.176H321.235V15.656ZM332.312 21.16C331.502 21.16 330.862 21.0053 330.393 20.696C329.923 20.3867 329.582 19.928 329.368 19.32C329.166 18.712 329.065 17.9547 329.065 17.048C329.065 16.0453 329.203 15.2347 329.481 14.616C329.758 13.9973 330.147 13.5493 330.649 13.272C331.161 12.984 331.769 12.84 332.473 12.84C333.561 12.84 334.377 13.1387 334.921 13.736C335.475 14.3227 335.753 15.2667 335.753 16.568L335.689 17.56H330.457C330.467 18.3493 330.617 18.952 330.905 19.368C331.193 19.7733 331.715 19.976 332.473 19.976C332.771 19.976 333.102 19.9707 333.465 19.96C333.827 19.9387 334.185 19.9173 334.537 19.896C334.899 19.8747 335.203 19.8533 335.449 19.832L335.481 20.888C335.225 20.9307 334.91 20.9733 334.537 21.016C334.163 21.0587 333.779 21.0907 333.385 21.112C333.001 21.144 332.643 21.16 332.312 21.16ZM330.457 16.488H334.377C334.377 15.5493 334.227 14.8933 333.929 14.52C333.63 14.136 333.145 13.944 332.473 13.944C331.822 13.944 331.321 14.1413 330.969 14.536C330.627 14.9307 330.457 15.5813 330.457 16.488ZM340.086 21.16C339.83 21.16 339.521 21.144 339.158 21.112C338.806 21.08 338.459 21.0427 338.118 21C337.777 20.9467 337.473 20.8987 337.206 20.856L337.286 19.704C337.553 19.736 337.851 19.7733 338.182 19.816C338.523 19.8587 338.854 19.896 339.174 19.928C339.494 19.9493 339.755 19.96 339.958 19.96C340.374 19.96 340.721 19.9227 340.998 19.848C341.275 19.7733 341.483 19.6453 341.622 19.464C341.771 19.2827 341.846 19.0213 341.846 18.68C341.846 18.424 341.787 18.2267 341.67 18.088C341.563 17.9493 341.361 17.832 341.062 17.736C340.774 17.64 340.347 17.5547 339.782 17.48C339.185 17.384 338.683 17.2613 338.278 17.112C337.883 16.9627 337.59 16.744 337.398 16.456C337.217 16.168 337.126 15.7573 337.126 15.224C337.126 14.616 337.265 14.1413 337.542 13.8C337.819 13.448 338.182 13.2027 338.63 13.064C339.078 12.9147 339.547 12.84 340.038 12.84C340.347 12.84 340.683 12.856 341.046 12.888C341.409 12.92 341.761 12.9627 342.102 13.016C342.443 13.0587 342.737 13.1013 342.982 13.144L342.95 14.296C342.694 14.2533 342.39 14.216 342.038 14.184C341.697 14.1413 341.355 14.1093 341.014 14.088C340.673 14.056 340.374 14.04 340.118 14.04C339.809 14.04 339.531 14.072 339.286 14.136C339.041 14.2 338.843 14.3173 338.694 14.488C338.555 14.648 338.486 14.872 338.486 15.16C338.486 15.384 338.539 15.5653 338.646 15.704C338.753 15.8427 338.95 15.96 339.238 16.056C339.526 16.1413 339.947 16.232 340.502 16.328C341.163 16.4347 341.691 16.568 342.086 16.728C342.491 16.888 342.785 17.1173 342.966 17.416C343.147 17.704 343.238 18.1093 343.238 18.632C343.238 19.5813 342.955 20.2427 342.39 20.616C341.835 20.9787 341.067 21.16 340.086 21.16ZM347.891 21.16C347.08 21.16 346.44 21.0053 345.971 20.696C345.501 20.3867 345.16 19.928 344.947 19.32C344.744 18.712 344.643 17.9547 344.643 17.048C344.643 16.0453 344.781 15.2347 345.059 14.616C345.336 13.9973 345.725 13.5493 346.227 13.272C346.739 12.984 347.347 12.84 348.051 12.84C349.139 12.84 349.955 13.1387 350.499 13.736C351.053 14.3227 351.331 15.2667 351.331 16.568L351.267 17.56H346.035C346.045 18.3493 346.195 18.952 346.483 19.368C346.771 19.7733 347.293 19.976 348.051 19.976C348.349 19.976 348.68 19.9707 349.043 19.96C349.405 19.9387 349.763 19.9173 350.115 19.896C350.477 19.8747 350.781 19.8533 351.027 19.832L351.059 20.888C350.803 20.9307 350.488 20.9733 350.115 21.016C349.741 21.0587 349.357 21.0907 348.963 21.112C348.579 21.144 348.221 21.16 347.891 21.16ZM346.035 16.488H349.955C349.955 15.5493 349.805 14.8933 349.507 14.52C349.208 14.136 348.723 13.944 348.051 13.944C347.4 13.944 346.899 14.1413 346.547 14.536C346.205 14.9307 346.035 15.5813 346.035 16.488ZM353.12 21V13H354.464V14.056C354.667 13.9173 354.917 13.768 355.216 13.608C355.525 13.4373 355.861 13.2773 356.224 13.128C356.587 12.9787 356.949 12.8773 357.312 12.824V14.184C356.96 14.2587 356.603 14.3547 356.24 14.472C355.877 14.5893 355.541 14.7173 355.232 14.856C354.923 14.9947 354.667 15.1173 354.464 15.224V21H353.12ZM360.123 21L357.931 13H359.403L361.163 19.832H361.739L363.563 13H364.971L362.779 21H360.123ZM369.203 21.16C368.392 21.16 367.752 21.0053 367.283 20.696C366.814 20.3867 366.472 19.928 366.259 19.32C366.056 18.712 365.955 17.9547 365.955 17.048C365.955 16.0453 366.094 15.2347 366.371 14.616C366.648 13.9973 367.038 13.5493 367.539 13.272C368.051 12.984 368.659 12.84 369.363 12.84C370.451 12.84 371.267 13.1387 371.811 13.736C372.366 14.3227 372.643 15.2667 372.643 16.568L372.579 17.56H367.347C367.358 18.3493 367.507 18.952 367.795 19.368C368.083 19.7733 368.606 19.976 369.363 19.976C369.662 19.976 369.992 19.9707 370.355 19.96C370.718 19.9387 371.075 19.9173 371.427 19.896C371.79 19.8747 372.094 19.8533 372.339 19.832L372.371 20.888C372.115 20.9307 371.8 20.9733 371.427 21.016C371.054 21.0587 370.67 21.0907 370.275 21.112C369.891 21.144 369.534 21.16 369.203 21.16ZM367.347 16.488H371.267C371.267 15.5493 371.118 14.8933 370.819 14.52C370.52 14.136 370.035 13.944 369.363 13.944C368.712 13.944 368.211 14.1413 367.859 14.536C367.518 14.9307 367.347 15.5813 367.347 16.488ZM376.977 21.16C376.646 21.16 376.337 21.1227 376.049 21.048C375.761 20.984 375.494 20.8667 375.249 20.696C375.014 20.5147 374.806 20.2693 374.625 19.96C374.443 19.6507 374.305 19.2613 374.209 18.792C374.113 18.312 374.065 17.736 374.065 17.064C374.065 16.1147 374.177 15.3307 374.401 14.712C374.625 14.0827 374.982 13.6133 375.473 13.304C375.974 12.9947 376.63 12.84 377.441 12.84C377.739 12.84 378.075 12.8613 378.449 12.904C378.833 12.9467 379.131 12.9893 379.345 13.032V9.544H380.705V21H379.361V20.488C379.19 20.5733 378.971 20.6693 378.705 20.776C378.438 20.8827 378.155 20.9733 377.857 21.048C377.558 21.1227 377.265 21.16 376.977 21.16ZM377.185 19.944C377.451 19.944 377.718 19.9173 377.985 19.864C378.262 19.8 378.518 19.7253 378.753 19.64C378.987 19.5547 379.185 19.4747 379.345 19.4V14.184C379.217 14.1627 379.046 14.1413 378.833 14.12C378.619 14.088 378.395 14.0667 378.161 14.056C377.937 14.0347 377.729 14.024 377.536 14.024C377.014 14.024 376.603 14.136 376.305 14.36C376.006 14.584 375.793 14.9253 375.664 15.384C375.537 15.832 375.473 16.392 375.473 17.064C375.473 17.672 375.515 18.168 375.601 18.552C375.697 18.9253 375.825 19.2133 375.985 19.416C376.145 19.6187 376.326 19.7573 376.529 19.832C376.742 19.9067 376.961 19.944 377.185 19.944Z" fill="#878787"/>
<path d="M881.64 21L879.464 9.96H880.92L882.696 19.736H883.144L885.304 10.04H886.936L889.096 19.736H889.544L891.32 9.96H892.776L890.584 21H888.12L886.008 11.224H886.216L884.104 21H881.64ZM896.734 21.16C895.924 21.16 895.284 21.0053 894.814 20.696C894.345 20.3867 894.004 19.928 893.79 19.32C893.588 18.712 893.486 17.9547 893.486 17.048C893.486 16.0453 893.625 15.2347 893.902 14.616C894.18 13.9973 894.569 13.5493 895.07 13.272C895.582 12.984 896.19 12.84 896.894 12.84C897.982 12.84 898.798 13.1387 899.342 13.736C899.897 14.3227 900.174 15.2667 900.174 16.568L900.11 17.56H894.878C894.889 18.3493 895.038 18.952 895.326 19.368C895.614 19.7733 896.137 19.976 896.894 19.976C897.193 19.976 897.524 19.9707 897.886 19.96C898.249 19.9387 898.606 19.9173 898.958 19.896C899.321 19.8747 899.625 19.8533 899.87 19.832L899.902 20.888C899.646 20.9307 899.332 20.9733 898.958 21.016C898.585 21.0587 898.201 21.0907 897.806 21.112C897.422 21.144 897.065 21.16 896.734 21.16ZM894.878 16.488H898.798C898.798 15.5493 898.649 14.8933 898.35 14.52C898.052 14.136 897.566 13.944 896.894 13.944C896.244 13.944 895.742 14.1413 895.39 14.536C895.049 14.9307 894.878 15.5813 894.878 16.488ZM909.479 21.16C908.658 21.16 907.954 21.0427 907.367 20.808C906.791 20.5733 906.349 20.1947 906.039 19.672C905.73 19.1493 905.575 18.456 905.575 17.592V9.96H906.983V17.64C906.983 18.4507 907.202 19.0373 907.639 19.4C908.077 19.752 908.69 19.928 909.479 19.928C910.311 19.928 910.946 19.752 911.383 19.4C911.831 19.0373 912.055 18.4507 912.055 17.64V9.96H913.463V17.592C913.463 18.4453 913.309 19.1387 912.999 19.672C912.69 20.1947 912.237 20.5733 911.639 20.808C911.053 21.0427 910.333 21.16 909.479 21.16ZM918.258 21.16C918.002 21.16 917.692 21.144 917.33 21.112C916.978 21.08 916.631 21.0427 916.29 21C915.948 20.9467 915.644 20.8987 915.378 20.856L915.458 19.704C915.724 19.736 916.023 19.7733 916.354 19.816C916.695 19.8587 917.026 19.896 917.346 19.928C917.666 19.9493 917.927 19.96 918.13 19.96C918.546 19.96 918.892 19.9227 919.17 19.848C919.447 19.7733 919.655 19.6453 919.794 19.464C919.943 19.2827 920.018 19.0213 920.018 18.68C920.018 18.424 919.959 18.2267 919.842 18.088C919.735 17.9493 919.532 17.832 919.234 17.736C918.946 17.64 918.519 17.5547 917.954 17.48C917.356 17.384 916.855 17.2613 916.45 17.112C916.055 16.9627 915.762 16.744 915.57 16.456C915.388 16.168 915.298 15.7573 915.298 15.224C915.298 14.616 915.436 14.1413 915.714 13.8C915.991 13.448 916.354 13.2027 916.802 13.064C917.25 12.9147 917.719 12.84 918.21 12.84C918.519 12.84 918.855 12.856 919.218 12.888C919.58 12.92 919.932 12.9627 920.274 13.016C920.615 13.0587 920.908 13.1013 921.154 13.144L921.122 14.296C920.866 14.2533 920.562 14.216 920.21 14.184C919.868 14.1413 919.527 14.1093 919.186 14.088C918.844 14.056 918.546 14.04 918.29 14.04C917.98 14.04 917.703 14.072 917.458 14.136C917.212 14.2 917.015 14.3173 916.866 14.488C916.727 14.648 916.658 14.872 916.658 15.16C916.658 15.384 916.711 15.5653 916.818 15.704C916.924 15.8427 917.122 15.96 917.41 16.056C917.698 16.1413 918.119 16.232 918.674 16.328C919.335 16.4347 919.863 16.568 920.258 16.728C920.663 16.888 920.956 17.1173 921.138 17.416C921.319 17.704 921.41 18.1093 921.41 18.632C921.41 19.5813 921.127 20.2427 920.562 20.616C920.007 20.9787 919.239 21.16 918.258 21.16ZM926.062 21.16C925.252 21.16 924.612 21.0053 924.143 20.696C923.673 20.3867 923.332 19.928 923.118 19.32C922.916 18.712 922.815 17.9547 922.815 17.048C922.815 16.0453 922.953 15.2347 923.231 14.616C923.508 13.9973 923.897 13.5493 924.399 13.272C924.911 12.984 925.519 12.84 926.223 12.84C927.311 12.84 928.127 13.1387 928.671 13.736C929.225 14.3227 929.503 15.2667 929.503 16.568L929.439 17.56H924.207C924.217 18.3493 924.367 18.952 924.655 19.368C924.943 19.7733 925.465 19.976 926.223 19.976C926.521 19.976 926.852 19.9707 927.215 19.96C927.577 19.9387 927.935 19.9173 928.287 19.896C928.649 19.8747 928.953 19.8533 929.199 19.832L929.231 20.888C928.975 20.9307 928.66 20.9733 928.287 21.016C927.913 21.0587 927.529 21.0907 927.135 21.112C926.751 21.144 926.393 21.16 926.062 21.16ZM924.207 16.488H928.127C928.127 15.5493 927.977 14.8933 927.679 14.52C927.38 14.136 926.895 13.944 926.223 13.944C925.572 13.944 925.071 14.1413 924.719 14.536C924.377 14.9307 924.207 15.5813 924.207 16.488ZM938.68 21.16C937.837 21.16 937.149 21.0427 936.616 20.808C936.093 20.5627 935.677 20.2 935.368 19.72C935.069 19.24 934.861 18.648 934.743 17.944C934.637 17.24 934.584 16.424 934.584 15.496C934.584 14.5573 934.637 13.7307 934.743 13.016C934.861 12.3013 935.069 11.704 935.368 11.224C935.677 10.744 936.098 10.3867 936.632 10.152C937.165 9.90667 937.848 9.784 938.68 9.784C939.064 9.784 939.442 9.80533 939.816 9.848C940.2 9.88 940.557 9.928 940.888 9.992C941.229 10.0453 941.517 10.0987 941.752 10.152L941.704 11.32C941.469 11.2773 941.181 11.2347 940.84 11.192C940.509 11.1493 940.168 11.1173 939.816 11.096C939.464 11.064 939.144 11.048 938.856 11.048C938.258 11.048 937.773 11.1333 937.4 11.304C937.037 11.4747 936.754 11.7467 936.552 12.12C936.36 12.4827 936.226 12.9467 936.152 13.512C936.077 14.0667 936.039 14.728 936.039 15.496C936.039 16.2533 936.077 16.9147 936.152 17.48C936.226 18.0347 936.36 18.4933 936.552 18.856C936.744 19.208 937.026 19.4747 937.4 19.656C937.773 19.8267 938.264 19.912 938.872 19.912C939.32 19.912 939.81 19.8853 940.344 19.832C940.877 19.768 941.33 19.704 941.704 19.64L941.752 20.824C941.496 20.8773 941.197 20.9307 940.856 20.984C940.514 21.0373 940.152 21.08 939.768 21.112C939.394 21.144 939.032 21.16 938.68 21.16ZM946.459 21.16C945.563 21.16 944.859 21.0053 944.347 20.696C943.845 20.3867 943.493 19.9227 943.291 19.304C943.088 18.6747 942.987 17.8747 942.987 16.904C942.987 15.9867 943.099 15.2293 943.323 14.632C943.547 14.024 943.915 13.576 944.427 13.288C944.939 12.9893 945.616 12.84 946.459 12.84C947.312 12.84 947.995 12.9893 948.507 13.288C949.019 13.576 949.387 14.024 949.611 14.632C949.835 15.2293 949.947 15.9867 949.947 16.904C949.947 17.8747 949.84 18.6747 949.627 19.304C949.424 19.9227 949.072 20.3867 948.571 20.696C948.069 21.0053 947.365 21.16 946.459 21.16ZM946.459 19.992C947.056 19.992 947.504 19.8907 947.803 19.688C948.101 19.4747 948.299 19.1387 948.395 18.68C948.491 18.2213 948.539 17.6293 948.539 16.904C948.539 16.1893 948.475 15.6187 948.347 15.192C948.229 14.7653 948.021 14.4613 947.723 14.28C947.424 14.0987 947.003 14.008 946.459 14.008C945.925 14.008 945.504 14.0987 945.195 14.28C944.896 14.4613 944.683 14.7653 944.555 15.192C944.437 15.6187 944.379 16.1893 944.379 16.904C944.379 17.6293 944.427 18.2213 944.523 18.68C944.619 19.1387 944.816 19.4747 945.115 19.688C945.413 19.8907 945.861 19.992 946.459 19.992ZM954.959 21.16C954.063 21.16 953.359 21.0053 952.847 20.696C952.345 20.3867 951.993 19.9227 951.791 19.304C951.588 18.6747 951.487 17.8747 951.487 16.904C951.487 15.9867 951.599 15.2293 951.823 14.632C952.047 14.024 952.415 13.576 952.927 13.288C953.439 12.9893 954.116 12.84 954.959 12.84C955.812 12.84 956.495 12.9893 957.007 13.288C957.519 13.576 957.887 14.024 958.111 14.632C958.335 15.2293 958.447 15.9867 958.447 16.904C958.447 17.8747 958.34 18.6747 958.127 19.304C957.924 19.9227 957.572 20.3867 957.071 20.696C956.569 21.0053 955.865 21.16 954.959 21.16ZM954.959 19.992C955.556 19.992 956.004 19.8907 956.303 19.688C956.601 19.4747 956.799 19.1387 956.895 18.68C956.991 18.2213 957.039 17.6293 957.039 16.904C957.039 16.1893 956.975 15.6187 956.847 15.192C956.729 14.7653 956.521 14.4613 956.223 14.28C955.924 14.0987 955.503 14.008 954.959 14.008C954.425 14.008 954.004 14.0987 953.695 14.28C953.396 14.4613 953.183 14.7653 953.055 15.192C952.937 15.6187 952.879 16.1893 952.879 16.904C952.879 17.6293 952.927 18.2213 953.023 18.68C953.119 19.1387 953.316 19.4747 953.615 19.688C953.913 19.8907 954.361 19.992 954.959 19.992ZM960.339 21V9.544H961.683V16.232L962.883 16.2L965.043 13H966.579L964.083 16.696L966.707 21H965.171L962.915 17.384L961.683 17.448V21H960.339ZM968.104 21V13H969.448V21H968.104ZM968.104 11.304V9.816H969.448V11.304H968.104ZM974.562 21.16C973.752 21.16 973.112 21.0053 972.643 20.696C972.173 20.3867 971.832 19.928 971.618 19.32C971.416 18.712 971.315 17.9547 971.315 17.048C971.315 16.0453 971.453 15.2347 971.731 14.616C972.008 13.9973 972.397 13.5493 972.899 13.272C973.411 12.984 974.019 12.84 974.723 12.84C975.811 12.84 976.627 13.1387 977.171 13.736C977.725 14.3227 978.003 15.2667 978.003 16.568L977.939 17.56H972.707C972.717 18.3493 972.867 18.952 973.155 19.368C973.443 19.7733 973.965 19.976 974.723 19.976C975.021 19.976 975.352 19.9707 975.715 19.96C976.077 19.9387 976.435 19.9173 976.787 19.896C977.149 19.8747 977.453 19.8533 977.699 19.832L977.731 20.888C977.475 20.9307 977.16 20.9733 976.787 21.016C976.413 21.0587 976.029 21.0907 975.635 21.112C975.251 21.144 974.893 21.16 974.562 21.16ZM972.707 16.488H976.627C976.627 15.5493 976.477 14.8933 976.179 14.52C975.88 14.136 975.395 13.944 974.723 13.944C974.072 13.944 973.571 14.1413 973.219 14.536C972.877 14.9307 972.707 15.5813 972.707 16.488ZM982.336 21.16C982.08 21.16 981.771 21.144 981.408 21.112C981.056 21.08 980.709 21.0427 980.368 21C980.027 20.9467 979.723 20.8987 979.456 20.856L979.536 19.704C979.803 19.736 980.101 19.7733 980.432 19.816C980.773 19.8587 981.104 19.896 981.424 19.928C981.744 19.9493 982.005 19.96 982.208 19.96C982.624 19.96 982.971 19.9227 983.248 19.848C983.525 19.7733 983.733 19.6453 983.872 19.464C984.021 19.2827 984.096 19.0213 984.096 18.68C984.096 18.424 984.037 18.2267 983.92 18.088C983.813 17.9493 983.611 17.832 983.312 17.736C983.024 17.64 982.597 17.5547 982.032 17.48C981.435 17.384 980.933 17.2613 980.528 17.112C980.133 16.9627 979.84 16.744 979.648 16.456C979.467 16.168 979.376 15.7573 979.376 15.224C979.376 14.616 979.515 14.1413 979.792 13.8C980.069 13.448 980.432 13.2027 980.88 13.064C981.328 12.9147 981.797 12.84 982.288 12.84C982.597 12.84 982.933 12.856 983.296 12.888C983.659 12.92 984.011 12.9627 984.352 13.016C984.693 13.0587 984.987 13.1013 985.232 13.144L985.2 14.296C984.944 14.2533 984.64 14.216 984.288 14.184C983.947 14.1413 983.605 14.1093 983.264 14.088C982.923 14.056 982.624 14.04 982.368 14.04C982.059 14.04 981.781 14.072 981.536 14.136C981.291 14.2 981.093 14.3173 980.944 14.488C980.805 14.648 980.736 14.872 980.736 15.16C980.736 15.384 980.789 15.5653 980.896 15.704C981.003 15.8427 981.2 15.96 981.488 16.056C981.776 16.1413 982.197 16.232 982.752 16.328C983.413 16.4347 983.941 16.568 984.336 16.728C984.741 16.888 985.035 17.1173 985.216 17.416C985.397 17.704 985.488 18.1093 985.488 18.632C985.488 19.5813 985.205 20.2427 984.64 20.616C984.085 20.9787 983.317 21.16 982.336 21.16ZM990.952 21V9.96H997.656V11.192H992.36V15.32H996.808V16.552H992.36V21H990.952ZM1001.87 21.16C1000.97 21.16 1000.27 21.0053 999.753 20.696C999.252 20.3867 998.9 19.9227 998.697 19.304C998.494 18.6747 998.393 17.8747 998.393 16.904C998.393 15.9867 998.505 15.2293 998.729 14.632C998.953 14.024 999.321 13.576 999.833 13.288C1000.35 12.9893 1001.02 12.84 1001.87 12.84C1002.72 12.84 1003.4 12.9893 1003.91 13.288C1004.43 13.576 1004.79 14.024 1005.02 14.632C1005.24 15.2293 1005.35 15.9867 1005.35 16.904C1005.35 17.8747 1005.25 18.6747 1005.03 19.304C1004.83 19.9227 1004.48 20.3867 1003.98 20.696C1003.48 21.0053 1002.77 21.16 1001.87 21.16ZM1001.87 19.992C1002.46 19.992 1002.91 19.8907 1003.21 19.688C1003.51 19.4747 1003.71 19.1387 1003.8 18.68C1003.9 18.2213 1003.95 17.6293 1003.95 16.904C1003.95 16.1893 1003.88 15.6187 1003.75 15.192C1003.64 14.7653 1003.43 14.4613 1003.13 14.28C1002.83 14.0987 1002.41 14.008 1001.87 14.008C1001.33 14.008 1000.91 14.0987 1000.6 14.28C1000.3 14.4613 1000.09 14.7653 999.961 15.192C999.844 15.6187 999.785 16.1893 999.785 16.904C999.785 17.6293 999.833 18.2213 999.929 18.68C1000.03 19.1387 1000.22 19.4747 1000.52 19.688C1000.82 19.8907 1001.27 19.992 1001.87 19.992ZM1007.25 21V13H1008.59V14.056C1008.79 13.9173 1009.04 13.768 1009.34 13.608C1009.65 13.4373 1009.99 13.2773 1010.35 13.128C1010.71 12.9787 1011.07 12.8773 1011.44 12.824V14.184C1011.09 14.2587 1010.73 14.3547 1010.37 14.472C1010 14.5893 1009.67 14.7173 1009.36 14.856C1009.05 14.9947 1008.79 15.1173 1008.59 15.224V21H1007.25ZM1016.5 21V9.96H1020.58C1021.3 9.96 1021.91 10.056 1022.4 10.248C1022.89 10.44 1023.27 10.744 1023.52 11.16C1023.78 11.5653 1023.91 12.104 1023.91 12.776C1023.91 13.2347 1023.85 13.6293 1023.73 13.96C1023.62 14.28 1023.47 14.5467 1023.27 14.76C1023.08 14.9733 1022.83 15.16 1022.53 15.32C1022.85 15.4267 1023.14 15.5813 1023.4 15.784C1023.65 15.9867 1023.85 16.2587 1024 16.6C1024.16 16.9307 1024.24 17.3627 1024.24 17.896C1024.24 18.472 1024.16 18.9627 1023.99 19.368C1023.83 19.7627 1023.59 20.0827 1023.28 20.328C1022.97 20.5627 1022.61 20.7333 1022.18 20.84C1021.76 20.9467 1021.29 21 1020.76 21H1016.5ZM1017.91 19.816H1020.69C1021.13 19.816 1021.51 19.7573 1021.83 19.64C1022.15 19.5227 1022.39 19.3253 1022.56 19.048C1022.73 18.76 1022.82 18.3547 1022.82 17.832C1022.82 17.4373 1022.74 17.1173 1022.6 16.872C1022.46 16.616 1022.27 16.4293 1022.04 16.312C1021.81 16.184 1021.58 16.0987 1021.33 16.056C1021.09 16.0133 1020.86 15.992 1020.64 15.992H1017.91V19.816ZM1017.91 14.808H1020.63C1021.29 14.808 1021.76 14.6533 1022.05 14.344C1022.35 14.024 1022.5 13.544 1022.5 12.904C1022.5 12.296 1022.33 11.8533 1022 11.576C1021.68 11.288 1021.19 11.144 1020.52 11.144H1017.91V14.808ZM1029.05 21.16C1028.24 21.16 1027.6 21.0053 1027.13 20.696C1026.66 20.3867 1026.32 19.928 1026.1 19.32C1025.9 18.712 1025.8 17.9547 1025.8 17.048C1025.8 16.0453 1025.94 15.2347 1026.21 14.616C1026.49 13.9973 1026.88 13.5493 1027.38 13.272C1027.89 12.984 1028.5 12.84 1029.21 12.84C1030.29 12.84 1031.11 13.1387 1031.65 13.736C1032.21 14.3227 1032.49 15.2667 1032.49 16.568L1032.42 17.56H1027.19C1027.2 18.3493 1027.35 18.952 1027.64 19.368C1027.93 19.7733 1028.45 19.976 1029.21 19.976C1029.51 19.976 1029.84 19.9707 1030.2 19.96C1030.56 19.9387 1030.92 19.9173 1031.27 19.896C1031.63 19.8747 1031.94 19.8533 1032.18 19.832L1032.21 20.888C1031.96 20.9307 1031.64 20.9733 1031.27 21.016C1030.9 21.0587 1030.51 21.0907 1030.12 21.112C1029.73 21.144 1029.38 21.16 1029.05 21.16ZM1027.19 16.488H1031.11C1031.11 15.5493 1030.96 14.8933 1030.66 14.52C1030.36 14.136 1029.88 13.944 1029.21 13.944C1028.56 13.944 1028.05 14.1413 1027.7 14.536C1027.36 14.9307 1027.19 15.5813 1027.19 16.488ZM1036.87 21.176C1036.31 21.176 1035.87 21.0907 1035.54 20.92C1035.21 20.7493 1034.97 20.456 1034.82 20.04C1034.68 19.6133 1034.61 19.016 1034.61 18.248V14.168H1033.51V13H1034.61V10.6H1035.97V13H1038.42V14.168H1035.97V17.864C1035.97 18.408 1035.99 18.8347 1036.04 19.144C1036.09 19.4427 1036.19 19.656 1036.34 19.784C1036.5 19.9013 1036.75 19.96 1037.08 19.96C1037.18 19.96 1037.32 19.9547 1037.48 19.944C1037.65 19.9333 1037.82 19.9227 1037.99 19.912C1038.17 19.8907 1038.33 19.8747 1038.45 19.864L1038.53 21C1038.3 21.032 1038.02 21.0693 1037.69 21.112C1037.37 21.1547 1037.09 21.176 1036.87 21.176ZM1042.49 21.176C1041.94 21.176 1041.5 21.0907 1041.17 20.92C1040.84 20.7493 1040.6 20.456 1040.45 20.04C1040.31 19.6133 1040.24 19.016 1040.24 18.248V14.168H1039.13V13H1040.24V10.6H1041.6V13H1044.05V14.168H1041.6V17.864C1041.6 18.408 1041.62 18.8347 1041.66 19.144C1041.72 19.4427 1041.82 19.656 1041.97 19.784C1042.13 19.9013 1042.37 19.96 1042.7 19.96C1042.81 19.96 1042.94 19.9547 1043.1 19.944C1043.27 19.9333 1043.44 19.9227 1043.61 19.912C1043.8 19.8907 1043.95 19.8747 1044.08 19.864L1044.16 21C1043.92 21.032 1043.64 21.0693 1043.31 21.112C1042.99 21.1547 1042.72 21.176 1042.49 21.176ZM1048.36 21.16C1047.55 21.16 1046.91 21.0053 1046.44 20.696C1045.97 20.3867 1045.63 19.928 1045.42 19.32C1045.21 18.712 1045.11 17.9547 1045.11 17.048C1045.11 16.0453 1045.25 15.2347 1045.53 14.616C1045.8 13.9973 1046.19 13.5493 1046.7 13.272C1047.21 12.984 1047.82 12.84 1048.52 12.84C1049.61 12.84 1050.42 13.1387 1050.97 13.736C1051.52 14.3227 1051.8 15.2667 1051.8 16.568L1051.74 17.56H1046.5C1046.51 18.3493 1046.66 18.952 1046.95 19.368C1047.24 19.7733 1047.76 19.976 1048.52 19.976C1048.82 19.976 1049.15 19.9707 1049.51 19.96C1049.87 19.9387 1050.23 19.9173 1050.58 19.896C1050.95 19.8747 1051.25 19.8533 1051.5 19.832L1051.53 20.888C1051.27 20.9307 1050.96 20.9733 1050.58 21.016C1050.21 21.0587 1049.83 21.0907 1049.43 21.112C1049.05 21.144 1048.69 21.16 1048.36 21.16ZM1046.5 16.488H1050.42C1050.42 15.5493 1050.27 14.8933 1049.98 14.52C1049.68 14.136 1049.19 13.944 1048.52 13.944C1047.87 13.944 1047.37 14.1413 1047.02 14.536C1046.67 14.9307 1046.5 15.5813 1046.5 16.488ZM1053.59 21V13H1054.93V14.056C1055.14 13.9173 1055.39 13.768 1055.68 13.608C1055.99 13.4373 1056.33 13.2773 1056.69 13.128C1057.06 12.9787 1057.42 12.8773 1057.78 12.824V14.184C1057.43 14.2587 1057.07 14.3547 1056.71 14.472C1056.35 14.5893 1056.01 14.7173 1055.7 14.856C1055.39 14.9947 1055.14 15.1173 1054.93 15.224V21H1053.59ZM1065.95 21.144C1065.61 21.144 1065.22 21.1227 1064.78 21.08C1064.35 21.048 1063.93 21.0053 1063.5 20.952C1063.07 20.888 1062.7 20.8347 1062.38 20.792L1062.51 19.64C1062.83 19.672 1063.19 19.7093 1063.59 19.752C1064.01 19.7947 1064.42 19.832 1064.83 19.864C1065.23 19.896 1065.58 19.912 1065.87 19.912C1066.61 19.912 1067.17 19.7467 1067.55 19.416C1067.92 19.0747 1068.11 18.5467 1068.11 17.832C1068.11 17.448 1068.03 17.1387 1067.88 16.904C1067.73 16.6693 1067.48 16.488 1067.13 16.36C1066.79 16.2213 1066.33 16.0933 1065.74 15.976C1064.96 15.816 1064.31 15.624 1063.8 15.4C1063.29 15.176 1062.91 14.8613 1062.65 14.456C1062.41 14.0507 1062.28 13.5013 1062.28 12.808C1062.28 12.072 1062.43 11.4853 1062.73 11.048C1063.03 10.6 1063.45 10.2747 1063.99 10.072C1064.54 9.86933 1065.17 9.768 1065.9 9.768C1066.22 9.768 1066.59 9.78933 1067 9.832C1067.42 9.864 1067.83 9.90667 1068.23 9.96C1068.64 10.0027 1068.99 10.0507 1069.27 10.104L1069.18 11.272C1068.86 11.2293 1068.5 11.192 1068.09 11.16C1067.69 11.1173 1067.29 11.08 1066.91 11.048C1066.53 11.016 1066.23 11 1065.99 11C1065.24 11 1064.67 11.1387 1064.28 11.416C1063.9 11.6933 1063.71 12.12 1063.71 12.696C1063.71 13.1547 1063.79 13.5013 1063.96 13.736C1064.13 13.9707 1064.41 14.1573 1064.79 14.296C1065.18 14.424 1065.68 14.5573 1066.3 14.696C1066.86 14.8347 1067.35 14.9787 1067.75 15.128C1068.16 15.2773 1068.5 15.464 1068.76 15.688C1069.03 15.9013 1069.22 16.1733 1069.34 16.504C1069.47 16.8347 1069.53 17.24 1069.53 17.72C1069.53 18.5413 1069.38 19.2027 1069.08 19.704C1068.79 20.2053 1068.38 20.5733 1067.85 20.808C1067.32 21.032 1066.68 21.144 1065.95 21.144ZM1074.25 21.16C1073.44 21.16 1072.8 21.0053 1072.33 20.696C1071.86 20.3867 1071.52 19.928 1071.31 19.32C1071.1 18.712 1071 17.9547 1071 17.048C1071 16.0453 1071.14 15.2347 1071.42 14.616C1071.7 13.9973 1072.08 13.5493 1072.59 13.272C1073.1 12.984 1073.71 12.84 1074.41 12.84C1075.5 12.84 1076.31 13.1387 1076.86 13.736C1077.41 14.3227 1077.69 15.2667 1077.69 16.568L1077.63 17.56H1072.39C1072.4 18.3493 1072.55 18.952 1072.84 19.368C1073.13 19.7733 1073.65 19.976 1074.41 19.976C1074.71 19.976 1075.04 19.9707 1075.4 19.96C1075.76 19.9387 1076.12 19.9173 1076.47 19.896C1076.84 19.8747 1077.14 19.8533 1077.39 19.832L1077.42 20.888C1077.16 20.9307 1076.85 20.9733 1076.47 21.016C1076.1 21.0587 1075.72 21.0907 1075.32 21.112C1074.94 21.144 1074.58 21.16 1074.25 21.16ZM1072.39 16.488H1076.31C1076.31 15.5493 1076.16 14.8933 1075.87 14.52C1075.57 14.136 1075.08 13.944 1074.41 13.944C1073.76 13.944 1073.26 14.1413 1072.91 14.536C1072.56 14.9307 1072.39 15.5813 1072.39 16.488ZM1079.48 21V13H1080.82V14.056C1081.03 13.9173 1081.28 13.768 1081.58 13.608C1081.88 13.4373 1082.22 13.2773 1082.58 13.128C1082.95 12.9787 1083.31 12.8773 1083.67 12.824V14.184C1083.32 14.2587 1082.96 14.3547 1082.6 14.472C1082.24 14.5893 1081.9 14.7173 1081.59 14.856C1081.28 14.9947 1081.03 15.1173 1080.82 15.224V21H1079.48ZM1086.48 21L1084.29 13H1085.76L1087.52 19.832H1088.1L1089.92 13H1091.33L1089.14 21H1086.48ZM1092.81 21V13H1094.15V21H1092.81ZM1092.81 11.304V9.816H1094.15V11.304H1092.81ZM1099.38 21.16C1098.52 21.16 1097.85 21.0213 1097.36 20.744C1096.88 20.456 1096.54 19.9973 1096.34 19.368C1096.15 18.7387 1096.05 17.9067 1096.05 16.872C1096.05 15.9013 1096.16 15.1173 1096.39 14.52C1096.61 13.9227 1096.97 13.496 1097.46 13.24C1097.96 12.9733 1098.6 12.84 1099.39 12.84C1099.59 12.84 1099.81 12.856 1100.08 12.888C1100.35 12.9093 1100.62 12.9413 1100.9 12.984C1101.19 13.016 1101.43 13.048 1101.63 13.08L1101.59 14.2C1101.39 14.1787 1101.18 14.1573 1100.95 14.136C1100.71 14.1147 1100.48 14.0987 1100.24 14.088C1100.02 14.0667 1099.83 14.056 1099.68 14.056C1099.09 14.056 1098.64 14.152 1098.31 14.344C1097.99 14.5253 1097.76 14.8187 1097.63 15.224C1097.51 15.6293 1097.44 16.1787 1097.44 16.872C1097.44 17.6293 1097.49 18.232 1097.6 18.68C1097.72 19.128 1097.94 19.4533 1098.26 19.656C1098.58 19.848 1099.05 19.944 1099.68 19.944C1099.83 19.944 1100.02 19.9387 1100.26 19.928C1100.49 19.9067 1100.73 19.8853 1100.96 19.864C1101.21 19.8427 1101.43 19.8267 1101.62 19.816L1101.65 20.92C1101.44 20.9627 1101.19 21 1100.9 21.032C1100.62 21.064 1100.34 21.0907 1100.07 21.112C1099.8 21.144 1099.57 21.16 1099.38 21.16ZM1106.19 21.16C1105.38 21.16 1104.74 21.0053 1104.27 20.696C1103.8 20.3867 1103.46 19.928 1103.24 19.32C1103.04 18.712 1102.94 17.9547 1102.94 17.048C1102.94 16.0453 1103.08 15.2347 1103.36 14.616C1103.63 13.9973 1104.02 13.5493 1104.52 13.272C1105.04 12.984 1105.64 12.84 1106.35 12.84C1107.44 12.84 1108.25 13.1387 1108.8 13.736C1109.35 14.3227 1109.63 15.2667 1109.63 16.568L1109.56 17.56H1104.33C1104.34 18.3493 1104.49 18.952 1104.78 19.368C1105.07 19.7733 1105.59 19.976 1106.35 19.976C1106.65 19.976 1106.98 19.9707 1107.34 19.96C1107.7 19.9387 1108.06 19.9173 1108.41 19.896C1108.77 19.8747 1109.08 19.8533 1109.32 19.832L1109.36 20.888C1109.1 20.9307 1108.78 20.9733 1108.41 21.016C1108.04 21.0587 1107.65 21.0907 1107.26 21.112C1106.88 21.144 1106.52 21.16 1106.19 21.16ZM1104.33 16.488H1108.25C1108.25 15.5493 1108.1 14.8933 1107.8 14.52C1107.5 14.136 1107.02 13.944 1106.35 13.944C1105.7 13.944 1105.2 14.1413 1104.84 14.536C1104.5 14.9307 1104.33 15.5813 1104.33 16.488ZM1111.34 21V19.064H1112.81V21H1111.34Z" fill="#878787"/>
<path d="M1131.6 21L1134.38 10.072H1138.24L1141.01 21H1138.8L1138.19 18.792H1134.37L1133.79 21H1131.6ZM1134.72 17.016H1137.87L1136.64 11.864H1135.97L1134.72 17.016ZM1145.25 21.176C1144.34 21.176 1143.62 21.0373 1143.09 20.76C1142.58 20.472 1142.22 20.0133 1142.01 19.384C1141.8 18.7547 1141.7 17.928 1141.7 16.904C1141.7 15.8907 1141.82 15.0853 1142.05 14.488C1142.29 13.88 1142.67 13.448 1143.19 13.192C1143.72 12.9253 1144.42 12.792 1145.27 12.792C1145.49 12.792 1145.76 12.808 1146.05 12.84C1146.35 12.872 1146.65 12.9147 1146.95 12.968C1147.26 13.0107 1147.52 13.0533 1147.73 13.096L1147.65 14.808C1147.45 14.7867 1147.22 14.7707 1146.97 14.76C1146.71 14.7387 1146.46 14.7227 1146.21 14.712C1145.98 14.6907 1145.79 14.68 1145.64 14.68C1145.18 14.68 1144.82 14.7547 1144.55 14.904C1144.29 15.0427 1144.11 15.2773 1144.01 15.608C1143.91 15.928 1143.86 16.36 1143.86 16.904C1143.86 17.4907 1143.91 17.96 1144.01 18.312C1144.1 18.664 1144.27 18.9147 1144.52 19.064C1144.77 19.2133 1145.15 19.288 1145.64 19.288C1145.79 19.288 1145.98 19.2827 1146.23 19.272C1146.48 19.2507 1146.73 19.2293 1146.98 19.208C1147.25 19.1867 1147.48 19.1707 1147.69 19.16L1147.75 20.872C1147.54 20.9147 1147.28 20.9573 1146.98 21C1146.68 21.0533 1146.38 21.096 1146.07 21.128C1145.77 21.16 1145.5 21.176 1145.25 21.176ZM1152.33 21.176C1151.41 21.176 1150.69 21.0373 1150.17 20.76C1149.66 20.472 1149.3 20.0133 1149.08 19.384C1148.88 18.7547 1148.78 17.928 1148.78 16.904C1148.78 15.8907 1148.9 15.0853 1149.13 14.488C1149.37 13.88 1149.75 13.448 1150.27 13.192C1150.8 12.9253 1151.49 12.792 1152.35 12.792C1152.57 12.792 1152.83 12.808 1153.13 12.84C1153.43 12.872 1153.73 12.9147 1154.03 12.968C1154.34 13.0107 1154.6 13.0533 1154.81 13.096L1154.73 14.808C1154.53 14.7867 1154.3 14.7707 1154.04 14.76C1153.79 14.7387 1153.54 14.7227 1153.29 14.712C1153.06 14.6907 1152.87 14.68 1152.72 14.68C1152.26 14.68 1151.89 14.7547 1151.63 14.904C1151.37 15.0427 1151.19 15.2773 1151.08 15.608C1150.99 15.928 1150.94 16.36 1150.94 16.904C1150.94 17.4907 1150.99 17.96 1151.08 18.312C1151.18 18.664 1151.35 18.9147 1151.6 19.064C1151.85 19.2133 1152.23 19.288 1152.72 19.288C1152.87 19.288 1153.06 19.2827 1153.31 19.272C1153.55 19.2507 1153.8 19.2293 1154.06 19.208C1154.33 19.1867 1154.56 19.1707 1154.76 19.16L1154.83 20.872C1154.61 20.9147 1154.36 20.9573 1154.06 21C1153.76 21.0533 1153.46 21.096 1153.15 21.128C1152.85 21.16 1152.58 21.176 1152.33 21.176ZM1159.38 21.176C1158.49 21.176 1157.79 21.0267 1157.27 20.728C1156.75 20.4293 1156.39 19.976 1156.16 19.368C1155.94 18.76 1155.83 17.9973 1155.83 17.08C1155.83 16.088 1155.96 15.2773 1156.24 14.648C1156.53 14.0187 1156.95 13.5547 1157.49 13.256C1158.03 12.9467 1158.71 12.792 1159.51 12.792C1160.69 12.792 1161.58 13.0907 1162.18 13.688C1162.79 14.2853 1163.09 15.2293 1163.09 16.52L1162.99 17.704H1157.97C1157.98 18.3013 1158.1 18.7493 1158.34 19.048C1158.57 19.3467 1158.98 19.496 1159.55 19.496C1159.88 19.496 1160.25 19.4907 1160.64 19.48C1161.04 19.4587 1161.43 19.4373 1161.81 19.416C1162.2 19.3947 1162.54 19.3733 1162.82 19.352L1162.87 20.84C1162.6 20.8827 1162.26 20.9307 1161.86 20.984C1161.45 21.0373 1161.03 21.08 1160.59 21.112C1160.17 21.1547 1159.76 21.176 1159.38 21.176ZM1157.97 16.344H1160.96C1160.96 15.6187 1160.84 15.112 1160.61 14.824C1160.39 14.536 1160.02 14.392 1159.51 14.392C1159 14.392 1158.62 14.5413 1158.35 14.84C1158.1 15.1387 1157.97 15.64 1157.97 16.344ZM1164.51 24.376V12.968H1166.62L1166.63 13.48C1166.78 13.384 1166.97 13.2827 1167.19 13.176C1167.43 13.0693 1167.68 12.9787 1167.95 12.904C1168.21 12.8293 1168.47 12.792 1168.73 12.792C1169.81 12.792 1170.58 13.1387 1171.05 13.832C1171.52 14.5147 1171.75 15.5547 1171.75 16.952C1171.75 17.9547 1171.64 18.7653 1171.4 19.384C1171.17 20.0027 1170.79 20.456 1170.27 20.744C1169.75 21.032 1169.08 21.176 1168.23 21.176C1167.97 21.176 1167.68 21.1547 1167.37 21.112C1167.06 21.0693 1166.81 21.0267 1166.63 20.984V24.376H1164.51ZM1167.9 19.4C1168.32 19.4 1168.66 19.3093 1168.91 19.128C1169.15 18.9467 1169.32 18.6747 1169.42 18.312C1169.52 17.9387 1169.58 17.4693 1169.58 16.904C1169.58 16.0293 1169.45 15.4267 1169.21 15.096C1168.97 14.7547 1168.63 14.584 1168.19 14.584C1168.01 14.584 1167.83 14.6053 1167.64 14.648C1167.45 14.6907 1167.26 14.744 1167.08 14.808C1166.9 14.872 1166.75 14.936 1166.63 15V19.288C1166.76 19.2987 1166.94 19.32 1167.18 19.352C1167.42 19.384 1167.66 19.4 1167.9 19.4ZM1175.99 21.192C1175.41 21.192 1174.93 21.1067 1174.57 20.936C1174.21 20.7653 1173.94 20.472 1173.78 20.056C1173.64 19.6293 1173.56 19.0373 1173.56 18.28V14.744H1172.62V12.968H1173.56V10.84H1175.69V12.968H1177.74V14.744H1175.69V17.72C1175.69 18.136 1175.7 18.4613 1175.74 18.696C1175.78 18.9307 1175.86 19.096 1175.99 19.192C1176.12 19.288 1176.32 19.336 1176.58 19.336C1176.66 19.336 1176.77 19.3307 1176.92 19.32C1177.07 19.3093 1177.22 19.2987 1177.37 19.288C1177.52 19.2773 1177.64 19.2667 1177.74 19.256L1177.8 20.968C1177.54 21.0107 1177.24 21.0587 1176.87 21.112C1176.52 21.1653 1176.23 21.192 1175.99 21.192Z" fill="#2995E2"/>
</svg>
